<?xml version="1.0" encoding="UTF-8"?>
<svg width="250px" height="250px" viewBox="0 0 250 250" version="1.1" xmlns="http://www.w3.org/2000/svg" xmlns:xlink="http://www.w3.org/1999/xlink">
    <title>Artboard</title>
    <g id="Artboard" stroke="none" stroke-width="1" fill="none" fill-rule="evenodd">
        <g id="logo" transform="translate(0.000000, 24.000000)" fill-rule="nonzero">
            <path d="M31.3009091,21.2695503 C52.192008,2.12181418 78.9213063,-1.31342749 95.8699336,0.38145683 C103.803333,1.17480694 108.60878,3.04624841 113.488658,5.12260207 L114.154858,5.40692931 C119.49296,7.69039618 125.092875,10.1704911 135.112169,11.7135901 C155.487946,6.42526125 166.807821,0.38145683 187.183598,2.64788349 C218.87925,7.93621236 228.451725,15.4923843 238.07416,33.1337405 C244.758073,45.3877374 245.963396,59.8399781 239.255026,75.1735366 C239.191101,75.3196516 238.687995,75.3196516 237.745709,75.1735366 C242.961334,81.0127386 246.483073,86.804718 248.310926,92.5494743 C254.242946,111.193202 245.044374,172.117568 212.841983,190.761296 C181.146331,208.892709 151.463101,206.878108 123.792294,184.717492 C105.177387,198.819702 85.5562688,204.108031 64.92894,200.582478 C10.5935366,193.783198 4.18310566,141.606337 2.52824872,127.759275 C0.771459627,113.059294 -2.13292601,88.7753216 2.48824294,70.4211956 C8.32956143,47.2209411 20.6643897,31.0184518 31.3009091,21.2695503 Z" id="blob-outer" fill="#FD5A1E"></path>
            <path d="M41.7387263,29.3983617 C60.3508409,12.3710337 79.4880321,12.0656317 94.5877544,13.5728256 C101.756309,14.2883621 106.482419,16.5876213 111.598444,18.8600836 L112.25389,19.1499154 C117.737228,21.5618997 123.798248,23.865996 133.847032,24.123183 C154.986644,21.8623921 167.230282,12.8872314 183.676116,15.8336165 C213.120575,21.1087952 217.650491,24.87678 225.955339,39.1951222 C232.303426,50.1398241 230.290129,62.6997734 219.91545,76.87497 C227.346828,83.3215376 231.876744,89.0991145 233.5052,94.2077 C238.790103,110.786833 230.485255,162.785023 201.795783,179.364156 C167.066421,193.933697 141.145232,187.653723 124.032213,160.524232 C110.945787,181.122549 90.8128238,189.412115 63.6333236,185.392932 C22.8640734,179.364156 17.5791705,136.40913 16.1048399,124.095483 C14.5396968,111.023368 12.2942677,88.9325213 16.0691983,73.1069852 C21.0395149,52.270066 32.2625317,38.0676761 41.7387263,29.3983617 Z" id="blob-inner" fill="#FFE417"></path>
            <path d="M38.2297065,54.4836831 C23.8572596,88.7445113 25.4848053,103.609003 26.8830379,115.391822 C28.2001424,126.49098 29.7966354,170.865801 66.2181557,176.299961 C90.4991695,179.922734 110.671024,166.979755 126.733722,137.471022 C142.103249,173.444128 165.300883,184.864404 196.326622,171.731851 C221.956581,156.78791 228.279935,114.347376 223.558627,99.4034356 C222.103834,94.7987072 216.808722,87.1851898 207.673291,76.5628835 C228.853739,47.6315175 220.028552,30.1204276 181.197731,24.0296137 C159.260838,24.0296137 147.888288,31.1280244 129.003055,33.1658345 C111.228282,32.7068293 101.014606,26.3136689 91.1808267,24.0296137 C81.3470472,21.7455585 52.6021534,20.222855 38.2297065,54.4836831 Z" id="initials-background" fill="#FFFFFF"></path>
            <path d="M79.0082879,170 C83.5450275,170 87.900297,169.275676 91.1667495,167.645946 C96.9737754,164.748648 101.510514,159.497298 106.047254,154.97027 C112.761628,148.089189 116.391019,138.672973 118.931594,127.808108 C119.476002,125.635135 120.38335,123.824324 120.746289,121.651352 C121.109228,120.021622 121.290698,117.848648 121.290698,115.856756 C121.290698,114.589189 121.109228,113.502702 121.109228,112.416216 C120.927758,103.362162 119.838941,98.1108105 116.20955,92.4972976 C114.031915,90.6864863 111.309872,90.1432435 108.406358,90.1432435 C103.869619,90.1432435 98.7884714,91.5918919 93.7073229,91.954054 C91.1667495,92.3162161 88.2632357,93.0405403 85.5411921,93.4027024 C79.9156356,94.1270274 75.7418355,94.3081081 72.6568531,97.0243242 C72.4753835,97.9297298 72.2939139,99.0162161 72.2939139,99.9216218 C72.2939139,101.37027 72.6568531,102.637838 73.7456704,103.362162 C74.4715484,106.078378 75.7418355,106.983784 79.5526968,108.794594 C81.4538064,109.484427 82.6965233,109.517277 84.5349289,109.518841 L87.5373575,109.518919 C90.6223406,109.7 95.5220189,109.337838 96.4293665,112.235135 C96.792306,113.14054 96.9737754,114.227027 96.9737754,115.494594 C96.9737754,117.667568 96.6108359,120.021622 96.6108359,121.289189 C96.2478972,124.367568 95.8849577,127.083784 95.3405495,129.437838 C93.8887923,137.767568 92.0740971,145.372973 87.900297,151.348648 C86.6300099,153.15946 83.9079663,156.237838 81.9118009,156.418919 C81.3673921,156.418919 80.6415138,156.056756 79.5526968,155.694594 C76.4677137,155.151352 73.7456704,154.608108 72.1124443,153.34054 C69.7533399,151.891892 67.3942355,147.908108 65.942479,144.82973 C65.0351311,142.837838 64.4907224,140.302702 63.9463137,137.767568 C63.0389659,135.232432 62.131618,132.697298 61.9501484,130.524324 C61.4057397,127.989189 61.7686789,125.454054 61.4057397,123.1 C61.2242702,121.651352 60.6798615,120.021622 60.4983919,118.754054 L60.4983919,116.762162 C60.4983919,112.778378 60.8613311,109.156756 61.0428006,105.172973 L61.0428006,103.181081 C61.0428006,100.464865 60.8613311,97.7486484 60.8613311,94.8513516 C60.8613311,93.5837839 60.8613311,92.3162161 61.0428006,91.0486484 C61.9501484,76.5621621 66.3054181,68.2324324 75.0159572,55.9189189 C76.6491838,53.3837838 84.2709058,46.6837838 87.5373575,46.1405406 L88.4447059,46.1405406 C89.7149922,46.1405406 90.4408712,46.5027027 91.5296882,47.227027 C92.6185059,47.9513514 93.7073229,51.572973 94.4332012,54.1081081 C94.4332012,54.2891892 94.6146713,54.4702702 94.6146713,54.6513514 C95.3405495,57.9108108 95.8849577,61.5324324 95.8849577,64.7918919 C95.8849577,66.6027027 95.7034883,68.4135135 95.3405495,70.0432432 C96.0664278,70.2243244 96.9737754,70.4054054 98.0625931,70.4054054 C103.68815,70.4054054 112.943097,67.6891892 114.757793,62.4378378 C115.483672,60.627027 116.20955,57.9108108 116.20955,55.5567568 L116.20955,54.8324324 C115.84661,51.572973 114.394854,49.0378378 112.943097,46.8648648 L112.580158,46.3216216 C108.587828,39.6216216 101.329045,36 92.6185059,36 L91.3482188,36 C88.0817664,36.3621622 84.2709058,36.7243244 80.6415138,36.7243244 L79.7707386,36.7247879 C76.434904,36.7301189 73.1359327,36.7967568 70.2977487,37.6297298 C45.7993567,44.3297298 40.5367392,67.5081081 37.0888174,88.1513516 C36.3629391,93.0405403 36,98.654054 36,103.905406 L36,104.991892 C36,106.983784 36.3629391,109.156756 36.3629391,111.510811 L36.3629391,112.597298 C36.3629391,114.408108 36.1814696,116.037838 36.1814696,117.667568 C36.1814696,118.935135 36.3629391,120.202702 36.5444087,121.289189 C38.3591044,134.508108 42.5329045,145.735135 48.8843394,154.427027 C51.0619743,157.505406 54.146957,161.308108 57.0504701,163.843244 C60.4983919,166.74054 65.0351311,168.189189 69.3904008,168.913514 C72.2939139,169.637838 75.5603661,170 79.0082879,170 Z M173.71759,170 C178.25433,170 182.609599,169.275676 185.876052,167.645946 C191.683078,164.748648 196.219817,159.497298 200.756556,154.97027 C207.47093,148.089189 211.100322,138.672973 213.640896,127.808108 C214.185304,125.635135 215.092652,123.824324 215.455591,121.651352 C215.818531,120.021622 216,117.848648 216,115.856756 C216,114.589189 215.818531,113.502702 215.818531,112.416216 C215.637061,103.362162 214.548244,98.1108105 210.918852,92.4972976 C208.741218,90.6864863 206.019174,90.1432435 203.11566,90.1432435 C198.578921,90.1432435 193.497774,91.5918919 188.416625,91.954054 C185.876052,92.3162161 182.972538,93.0405403 180.250494,93.4027024 C174.624938,94.1270274 170.451138,94.3081081 167.366155,97.0243242 C167.184686,97.9297298 167.003216,99.0162161 167.003216,99.9216218 C167.003216,101.37027 167.366155,102.637838 168.454972,103.362162 C169.180851,106.078378 170.451138,106.983784 174.261999,108.794594 C176.163109,109.484427 177.405826,109.517277 179.244231,109.518841 L182.24666,109.518919 C185.331643,109.7 190.231321,109.337838 191.138669,112.235135 C191.501608,113.14054 191.683078,114.227027 191.683078,115.494594 C191.683078,117.667568 191.320138,120.021622 191.320138,121.289189 C190.957199,124.367568 190.59426,127.083784 190.049852,129.437838 C188.598095,137.767568 186.783399,145.372973 182.609599,151.348648 C181.339312,153.15946 178.617269,156.237838 176.621103,156.418919 C176.076694,156.418919 175.350816,156.056756 174.261999,155.694594 C171.177016,155.151352 168.454972,154.608108 166.821747,153.34054 C164.462643,151.891892 162.103538,147.908108 160.651781,144.82973 C159.744434,142.837838 159.200025,140.302702 158.655616,137.767568 C157.748268,135.232432 156.840921,132.697298 156.65945,130.524324 C156.115042,127.989189 156.477981,125.454054 156.115042,123.1 C155.933572,121.651352 155.389164,120.021622 155.207694,118.754054 L155.207694,116.762162 C155.207694,112.778378 155.570633,109.156756 155.752103,105.172973 L155.752103,103.181081 C155.752103,100.464865 155.570633,97.7486484 155.570633,94.8513516 C155.570633,93.5837839 155.570633,92.3162161 155.752103,91.0486484 C156.65945,76.5621621 161.014721,68.2324324 169.72526,55.9189189 C171.358486,53.3837838 178.980208,46.6837838 182.24666,46.1405406 L183.154008,46.1405406 C184.424295,46.1405406 185.150174,46.5027027 186.238991,47.227027 C187.327808,47.9513514 188.416625,51.572973 189.142504,54.1081081 C189.142504,54.2891892 189.323974,54.4702702 189.323974,54.6513514 C190.049852,57.9108108 190.59426,61.5324324 190.59426,64.7918919 C190.59426,66.6027027 190.412791,68.4135135 190.049852,70.0432432 C190.77573,70.2243244 191.683078,70.4054054 192.771895,70.4054054 C198.397452,70.4054054 207.6524,67.6891892 209.467096,62.4378378 C210.192974,60.627027 210.918852,57.9108108 210.918852,55.5567568 L210.918852,54.8324324 C210.555913,51.572973 209.104156,49.0378378 207.6524,46.8648648 L207.28946,46.3216216 C203.29713,39.6216216 196.038347,36 187.327808,36 L186.057521,36 C182.791069,36.3621622 178.980208,36.7243244 175.350816,36.7243244 L174.480041,36.7247879 C171.144206,36.7301189 167.845235,36.7967568 165.007051,37.6297298 C140.508659,44.3297298 135.246042,67.5081081 131.79812,88.1513516 C131.072242,93.0405403 130.709302,98.654054 130.709302,103.905406 L130.709302,104.991892 C130.709302,106.983784 131.072242,109.156756 131.072242,111.510811 L131.072242,112.597298 C131.072242,114.408108 130.890772,116.037838 130.890772,117.667568 C130.890772,118.935135 131.072242,120.202702 131.253711,121.289189 C133.068406,134.508108 137.242207,145.735135 143.593642,154.427027 C145.771277,157.505406 148.856259,161.308108 151.759772,163.843244 C155.207694,166.74054 159.744434,168.189189 164.099703,168.913514 C167.003216,169.637838 170.269668,170 173.71759,170 Z" id="initials" fill="#0F1031"></path>
        </g>
    </g>
</svg>