<?xml version="1.0" encoding="UTF-8"?>
<svg width="100px" height="100px" viewBox="0 0 100 100" version="1.1" xmlns="http://www.w3.org/2000/svg" xmlns:xlink="http://www.w3.org/1999/xlink">
    <title>favicon</title>
    <g id="favicon" stroke="none" stroke-width="1" fill="none" fill-rule="evenodd">
        <path d="M0.936288832,38.2899531 C-0.771824552,45.4751102 0.244206684,55.5048622 0.95241625,61.439903 C1.61953419,67.0305818 4.01089292,86.5331513 22.4585175,89.2703541 C34.7569338,91.0951559 43.8668719,87.3315021 49.7883316,77.9793928 C57.531779,90.2968051 69.2608242,93.148058 84.9754673,86.5331513 C97.9571291,79.0058438 101.714979,55.3974702 99.3236198,47.8701626 C98.5867621,45.5507473 96.5370261,42.9275947 93.1744116,40.0007048 C97.8688366,33.5648396 98.7798304,27.8623339 95.907393,22.8931876 C92.1495436,16.3923311 90.0998075,14.6815794 76.7765231,12.286527 C69.3349693,10.9488005 63.7948614,15.0237298 54.2294264,16.0501808 C45.2264429,15.8189785 43.2975008,11.9443767 36.4650472,11.260076 C29.6325937,10.5757753 20.9732312,10.7144348 12.5514598,18.4452332 C8.263589,22.3813012 3.18530084,28.8295127 0.936288832,38.2899531 Z" id="blob-outer" fill="#FD5A1E"></path>
        <path d="M11.2945686,29.7568691 C4.86669038,45.1074999 5.59458772,51.7675646 6.21992791,57.0468794 C6.8089847,62.0198785 7.52299413,81.9021036 23.8120158,84.3368897 C34.6713635,85.9600804 43.692947,80.1609532 50.8767663,66.9395081 C57.7505752,83.0573283 68.1253962,88.1742052 82.0012295,82.2901389 C93.4638743,75.5944772 96.2919071,56.5789134 94.1803672,49.8832517 C93.5297311,47.8200943 91.1615655,44.408843 87.0758702,39.6494978 C96.5485329,26.686743 92.6015901,18.840865 75.2350418,16.111864 C65.4240698,16.111864 60.3378538,19.2923207 51.8916945,20.2053655 C43.9421727,19.9997073 39.3742473,17.1352393 34.9762254,16.111864 C30.5782034,15.0884886 17.7224469,14.4062383 11.2945686,29.7568691 Z" id="initials-background" fill="#FFFFFF"></path>
        <path d="M28.1617021,81 C30.1829787,81 32.1234043,80.6756757 33.5787234,79.9459459 C36.1659574,78.6486486 38.187234,76.2972973 40.2085106,74.2702703 C43.2,71.1891892 44.8170213,66.972973 45.9489362,62.1081081 C46.1914894,61.1351351 46.5957447,60.3243243 46.7574468,59.3513514 C46.9191489,58.6216216 47,57.6486486 47,56.7567568 C47,56.1891892 46.9191489,55.7027027 46.9191489,55.2162162 C46.8382979,51.1621622 46.3531915,48.8108108 44.7361702,46.2972973 C43.7659574,45.4864865 42.5531915,45.2432432 41.2595745,45.2432432 C39.2382979,45.2432432 36.9744681,45.8918919 34.7106383,46.0540541 C33.5787234,46.2162162 32.2851064,46.5405405 31.0723404,46.7027027 C28.5659574,47.027027 26.706383,47.1081081 25.3319149,48.3243243 C25.2510638,48.7297297 25.1702128,49.2162162 25.1702128,49.6216216 C25.1702128,50.2702703 25.3319149,50.8378378 25.8170213,51.1621622 C26.1404255,52.3783784 26.706383,52.7837838 28.4042553,53.5945946 C29.2512665,53.9034749 29.8049404,53.9181835 30.6240147,53.9188839 L31.9617021,53.9189189 C33.3361702,54 35.5191489,53.8378378 35.9234043,55.1351351 C36.0851064,55.5405405 36.1659574,56.027027 36.1659574,56.5945946 C36.1659574,57.5675676 36.0042553,58.6216216 36.0042553,59.1891892 C35.8425532,60.5675676 35.6808511,61.7837838 35.4382979,62.8378378 C34.7914894,66.5675676 33.9829787,69.972973 32.1234043,72.6486486 C31.5574468,73.4594595 30.3446809,74.8378378 29.4553191,74.9189189 C29.212766,74.9189189 28.8893617,74.7567568 28.4042553,74.5945946 C27.0297872,74.3513514 25.8170213,74.1081081 25.0893617,73.5405405 C24.0382979,72.8918919 22.987234,71.1081081 22.3404255,69.7297297 C21.9361702,68.8378378 21.693617,67.7027027 21.4510638,66.5675676 C21.0468085,65.4324324 20.6425532,64.2972973 20.5617021,63.3243243 C20.3191489,62.1891892 20.4808511,61.0540541 20.3191489,60 C20.2382979,59.3513514 19.9957447,58.6216216 19.9148936,58.0540541 L19.9148936,57.1621622 C19.9148936,55.3783784 20.0765957,53.7567568 20.1574468,51.972973 L20.1574468,51.0810811 C20.1574468,49.8648649 20.0765957,48.6486486 20.0765957,47.3513514 C20.0765957,46.7837838 20.0765957,46.2162162 20.1574468,45.6486486 C20.5617021,39.1621622 22.5021277,35.4324324 26.3829787,29.9189189 C27.1106383,28.7837838 30.506383,25.7837838 31.9617021,25.5405405 L32.3659574,25.5405405 C32.9319149,25.5405405 33.2553191,25.7027027 33.7404255,26.027027 C34.2255319,26.3513514 34.7106383,27.972973 35.0340426,29.1081081 C35.0340426,29.1891892 35.1148936,29.2702703 35.1148936,29.3513514 C35.4382979,30.8108108 35.6808511,32.4324324 35.6808511,33.8918919 C35.6808511,34.7027027 35.6,35.5135135 35.4382979,36.2432432 C35.7617021,36.3243243 36.1659574,36.4054054 36.6510638,36.4054054 C39.1574468,36.4054054 43.2808511,35.1891892 44.0893617,32.8378378 C44.412766,32.027027 44.7361702,30.8108108 44.7361702,29.7567568 L44.7361702,29.4324324 C44.5744681,27.972973 43.9276596,26.8378378 43.2808511,25.8648649 L43.1191489,25.6216216 C41.3404255,22.6216216 38.106383,21 34.2255319,21 L33.6595745,21 C32.2042553,21.1621622 30.506383,21.3243243 28.8893617,21.3243243 L28.5014008,21.3245319 C27.0151694,21.3269189 25.5453617,21.3567568 24.2808511,21.7297297 C13.3659574,24.7297297 11.0212766,35.1081081 9.48510638,44.3513514 C9.16170213,46.5405405 9,49.0540541 9,51.4054054 L9,51.8918919 C9,52.7837838 9.16170213,53.7567568 9.16170213,54.8108108 L9.16170213,55.2972973 C9.16170213,56.1081081 9.08085106,56.8378378 9.08085106,57.5675676 C9.08085106,58.1351351 9.16170213,58.7027027 9.24255319,59.1891892 C10.0510638,65.1081081 11.9106383,70.1351351 14.7404255,74.027027 C15.7106383,75.4054054 17.0851064,77.1081081 18.3787234,78.2432432 C19.9148936,79.5405405 21.9361702,80.1891892 23.8765957,80.5135135 C25.1702128,80.8378378 26.6255319,81 28.1617021,81 Z M71.1617021,81 C73.1829787,81 75.1234043,80.6756757 76.5787234,79.9459459 C79.1659574,78.6486486 81.187234,76.2972973 83.2085106,74.2702703 C86.2,71.1891892 87.8170213,66.972973 88.9489362,62.1081081 C89.1914894,61.1351351 89.5957447,60.3243243 89.7574468,59.3513514 C89.9191489,58.6216216 90,57.6486486 90,56.7567568 C90,56.1891892 89.9191489,55.7027027 89.9191489,55.2162162 C89.8382979,51.1621622 89.3531915,48.8108108 87.7361702,46.2972973 C86.7659574,45.4864865 85.5531915,45.2432432 84.2595745,45.2432432 C82.2382979,45.2432432 79.9744681,45.8918919 77.7106383,46.0540541 C76.5787234,46.2162162 75.2851064,46.5405405 74.0723404,46.7027027 C71.5659574,47.027027 69.706383,47.1081081 68.3319149,48.3243243 C68.2510638,48.7297297 68.1702128,49.2162162 68.1702128,49.6216216 C68.1702128,50.2702703 68.3319149,50.8378378 68.8170213,51.1621622 C69.1404255,52.3783784 69.706383,52.7837838 71.4042553,53.5945946 C72.2512665,53.9034749 72.8049404,53.9181835 73.6240147,53.9188839 L74.9617021,53.9189189 C76.3361702,54 78.5191489,53.8378378 78.9234043,55.1351351 C79.0851064,55.5405405 79.1659574,56.027027 79.1659574,56.5945946 C79.1659574,57.5675676 79.0042553,58.6216216 79.0042553,59.1891892 C78.8425532,60.5675676 78.6808511,61.7837838 78.4382979,62.8378378 C77.7914894,66.5675676 76.9829787,69.972973 75.1234043,72.6486486 C74.5574468,73.4594595 73.3446809,74.8378378 72.4553191,74.9189189 C72.212766,74.9189189 71.8893617,74.7567568 71.4042553,74.5945946 C70.0297872,74.3513514 68.8170213,74.1081081 68.0893617,73.5405405 C67.0382979,72.8918919 65.987234,71.1081081 65.3404255,69.7297297 C64.9361702,68.8378378 64.693617,67.7027027 64.4510638,66.5675676 C64.0468085,65.4324324 63.6425532,64.2972973 63.5617021,63.3243243 C63.3191489,62.1891892 63.4808511,61.0540541 63.3191489,60 C63.2382979,59.3513514 62.9957447,58.6216216 62.9148936,58.0540541 L62.9148936,57.1621622 C62.9148936,55.3783784 63.0765957,53.7567568 63.1574468,51.972973 L63.1574468,51.0810811 C63.1574468,49.8648649 63.0765957,48.6486486 63.0765957,47.3513514 C63.0765957,46.7837838 63.0765957,46.2162162 63.1574468,45.6486486 C63.5617021,39.1621622 65.5021277,35.4324324 69.3829787,29.9189189 C70.1106383,28.7837838 73.506383,25.7837838 74.9617021,25.5405405 L75.3659574,25.5405405 C75.9319149,25.5405405 76.2553191,25.7027027 76.7404255,26.027027 C77.2255319,26.3513514 77.7106383,27.972973 78.0340426,29.1081081 C78.0340426,29.1891892 78.1148936,29.2702703 78.1148936,29.3513514 C78.4382979,30.8108108 78.6808511,32.4324324 78.6808511,33.8918919 C78.6808511,34.7027027 78.6,35.5135135 78.4382979,36.2432432 C78.7617021,36.3243243 79.1659574,36.4054054 79.6510638,36.4054054 C82.1574468,36.4054054 86.2808511,35.1891892 87.0893617,32.8378378 C87.412766,32.027027 87.7361702,30.8108108 87.7361702,29.7567568 L87.7361702,29.4324324 C87.5744681,27.972973 86.9276596,26.8378378 86.2808511,25.8648649 L86.1191489,25.6216216 C84.3404255,22.6216216 81.106383,21 77.2255319,21 L76.6595745,21 C75.2042553,21.1621622 73.506383,21.3243243 71.8893617,21.3243243 L71.5014008,21.3245319 C70.0151694,21.3269189 68.5453617,21.3567568 67.2808511,21.7297297 C56.3659574,24.7297297 54.0212766,35.1081081 52.4851064,44.3513514 C52.1617021,46.5405405 52,49.0540541 52,51.4054054 L52,51.8918919 C52,52.7837838 52.1617021,53.7567568 52.1617021,54.8108108 L52.1617021,55.2972973 C52.1617021,56.1081081 52.0808511,56.8378378 52.0808511,57.5675676 C52.0808511,58.1351351 52.1617021,58.7027027 52.2425532,59.1891892 C53.0510638,65.1081081 54.9106383,70.1351351 57.7404255,74.027027 C58.7106383,75.4054054 60.0851064,77.1081081 61.3787234,78.2432432 C62.9148936,79.5405405 64.9361702,80.1891892 66.8765957,80.5135135 C68.1702128,80.8378378 69.6255319,81 71.1617021,81 Z" id="initials" fill="#0F1031" fill-rule="nonzero"></path>
    </g>
</svg>