<svg width="105px" height="102px" viewBox="0 0 105 102" version="1.1" xmlns="http://www.w3.org/2000/svg" xmlns:xlink="http://www.w3.org/1999/xlink">
    <title>CodePen Logo</title>
    <g id="clients" stroke="none" stroke-width="1" fill="none" fill-rule="evenodd">
        <g id="client-logos" transform="translate(-982.000000, -1401.000000)" fill="#1A1919">
            <g id="client-logo" transform="translate(428.000000, 1392.000000)">
                <g id="client-codepen" class="codepen-logo" transform="translate(481.000000, 9.000000)">
                    <g id="codepen-logo" transform="translate(73.469388, 0.000000)">
                        <path d="M52.0412601,93.62443 C28.0582465,93.62443 8.54718383,74.502977 8.54718383,51.0003262 C8.54718383,27.4978928 28.0582465,8.3762223 52.0412601,8.3762223 C76.0233861,8.3762223 95.5344488,27.4978928 95.5344488,51.0003262 C95.5344488,74.502977 76.0233861,93.62443 52.0412601,93.62443 M52.0412601,0 C23.2989637,0 0,22.8331532 0,51.0003262 C0,79.1677166 23.2989637,102 52.0412601,102 C80.7826689,102 104.081633,79.1677166 104.081633,51.0003262 C104.081633,22.8331532 80.7826689,0 52.0412601,0" id="Fill-1"></path>
                        <path d="M78.8493679,55.9839194 L72.0243204,51.509571 L78.8493679,47.0354371 L78.8493679,55.9839194 Z M55.2893829,74.9495965 L55.2893829,62.4792112 L67.1172032,54.7270775 L76.6650462,60.9849015 L55.2893829,74.9495965 Z M52.5615528,57.8347526 L42.9119251,51.509571 L52.5615528,45.1843894 L62.210305,51.509571 L52.5615528,57.8347526 Z M49.8328472,74.9495965 L28.456965,60.9849015 L38.0056835,54.7270775 L49.8328472,62.4792112 L49.8328472,74.9495965 Z M26.2728622,47.0354371 L33.0985663,51.509571 L26.2728622,55.9839194 L26.2728622,47.0354371 Z M49.8328472,28.0695455 L49.8328472,40.5399308 L38.0056835,48.2937805 L28.456965,42.0340259 L49.8328472,28.0695455 Z M55.2893829,28.0695455 L76.6650462,42.0340259 L67.1172032,48.2937805 L55.2893829,40.5399308 L55.2893829,28.0695455 Z M84.2816066,41.6822218 C84.2759154,41.6429656 84.2658464,41.6054255 84.2592796,41.5661693 C84.2457083,41.4906601 84.2316992,41.4153654 84.2115612,41.3417869 C84.199741,41.2975968 84.1831052,41.2551229 84.1690962,41.212649 C84.147207,41.1470075 84.1255367,41.0815805 84.0988319,41.0178696 C84.0802261,40.9736796 84.0587747,40.9294895 84.0379799,40.8870156 C84.0093051,40.8263079 83.9795358,40.7673164 83.9451698,40.7102555 C83.9202161,40.667567 83.8935113,40.6265947 83.8676821,40.5858369 C83.8309083,40.5300631 83.7932589,40.4760054 83.7521072,40.4236638 C83.7223379,40.3844076 83.6905986,40.3451514 83.6588593,40.3073968 C83.6152998,40.2584874 83.5702081,40.2093636 83.5227086,40.1634574 C83.4870292,40.1276334 83.4515687,40.091595 83.4141382,40.0587742 C83.364012,40.0145842 83.3123535,39.9718957 83.2596006,39.9311379 C83.2188867,39.9000333 83.1786106,39.8689287 83.1361456,39.8395401 C83.1201665,39.8296725 83.1061574,39.8165871 83.0910539,39.8067194 L54.0743143,20.8491939 C53.1578142,20.2502687 51.9644159,20.2502687 51.0476969,20.8491939 L22.0311762,39.8067194 C22.0160727,39.8165871 22.0018447,39.8296725 21.9860845,39.8395401 C21.9434006,39.8689287 21.9033434,39.9000333 21.8632862,39.9311379 C21.8098766,39.9718957 21.7579992,40.0145842 21.7089674,40.0587742 C21.6704425,40.091595 21.6354198,40.1276334 21.5995215,40.1634574 C21.552022,40.2093636 21.5069303,40.2584874 21.4642464,40.3073968 C21.4316315,40.3451514 21.3998922,40.3844076 21.369904,40.4236638 C21.3298468,40.4760054 21.2913218,40.5300631 21.2554236,40.5858369 C21.2278432,40.6265947 21.2020139,40.667567 21.1770603,40.7102555 C21.1435698,40.7673164 21.1135816,40.8263079 21.0842501,40.8870156 C21.0634554,40.9294895 21.0417851,40.9736796 21.0233982,41.0178696 C20.9966934,41.0815805 20.9750231,41.1470075 20.9531339,41.212649 C20.938906,41.2551229 20.9231457,41.2975968 20.9106689,41.3417869 C20.8905309,41.4153654 20.8771785,41.4906601 20.8629505,41.5661693 C20.8563837,41.6054255 20.8463147,41.6429656 20.8412802,41.6822218 C20.8253011,41.7967726 20.8163265,41.9130396 20.8163265,42.0308082 L20.8163265,60.9883337 C20.8163265,61.1061023 20.8253011,61.2223693 20.8412802,61.3386363 C20.8463147,61.3763909 20.8563837,61.4154326 20.8629505,61.4529727 C20.8771785,61.5284818 20.8905309,61.603562 20.9106689,61.6773551 C20.9231457,61.7215451 20.938906,61.764019 20.9531339,61.8067075 C20.9750231,61.8719199 20.9966934,61.9375615 21.0233982,62.0029885 C21.0417851,62.047393 21.0634554,62.0898669 21.0842501,62.1323408 C21.1135816,62.1926195 21.1435698,62.251611 21.1770603,62.3106026 C21.2020139,62.3517894 21.2278432,62.3923327 21.2554236,62.433305 C21.2913218,62.4890788 21.3298468,62.5431366 21.369904,62.5954782 C21.3998922,62.6364505 21.4316315,62.6739906 21.4642464,62.7115306 C21.5069303,62.7606545 21.552022,62.8097784 21.5995215,62.8556845 C21.6354198,62.8915085 21.6704425,62.927547 21.7089674,62.9601532 C21.7579992,63.0047723 21.8098766,63.0472462 21.8632862,63.088004 C21.9033434,63.1193232 21.9434006,63.1502133 21.9860845,63.1796018 C22.0018447,63.1894695 22.0160727,63.2025549 22.0311762,63.212208 L51.0476969,82.1699481 C51.5060564,82.4694107 52.0338046,82.62 52.5615528,82.62 C53.0884255,82.62 53.6159548,82.4694107 54.0743143,82.1699481 L83.0910539,63.212208 C83.1061574,63.2025549 83.1201665,63.1894695 83.1361456,63.1796018 C83.1786106,63.1502133 83.2188867,63.1193232 83.2596006,63.088004 C83.3123535,63.0472462 83.364012,63.0047723 83.4141382,62.9601532 C83.4515687,62.927547 83.4870292,62.8915085 83.5227086,62.8556845 C83.5702081,62.8097784 83.6152998,62.7606545 83.6588593,62.7115306 C83.6905986,62.6739906 83.7223379,62.6364505 83.7521072,62.5954782 C83.7932589,62.5431366 83.8309083,62.4890788 83.8676821,62.433305 C83.8935113,62.3923327 83.9202161,62.3517894 83.9451698,62.3106026 C83.9795358,62.251611 84.0093051,62.1926195 84.0379799,62.1323408 C84.0587747,62.0898669 84.0802261,62.047393 84.0988319,62.0029885 C84.1255367,61.9375615 84.147207,61.8719199 84.1690962,61.8067075 C84.1831052,61.764019 84.199741,61.7215451 84.2115612,61.6773551 C84.2316992,61.603562 84.2457083,61.5284818 84.2592796,61.4529727 C84.2658464,61.4154326 84.2759154,61.3763909 84.2816066,61.3386363 C84.2967101,61.2223693 84.3061224,61.1061023 84.3061224,60.9883337 L84.3061224,42.0308082 C84.3061224,41.9130396 84.2967101,41.7967726 84.2816066,41.6822218 L84.2816066,41.6822218 Z" id="Fill-3"></path>
                    </g>
                </g>
            </g>
        </g>
    </g>
</svg>