<?xml version="1.0" encoding="utf-8"?><svg width="32" height="31.09" xmlns="http://www.w3.org/2000/svg" viewBox="0 0 105 102"><g class="acodepen-logo" fill="#1A1919" stroke-width="0" fill-rule="evenodd"><path d="M52.51 93.624C28.529 93.624 9.018 74.503 9.018 51c0-23.502 19.51-42.624 43.494-42.624 23.982 0 43.493 19.122 43.493 42.624 0 23.503-19.511 42.624-43.493 42.624M52.51 0C23.768 0 .469 22.833.469 51c0 28.168 23.3 51 52.042 51 28.741 0 52.04-22.832 52.04-51 0-28.167-23.299-51-52.04-51"/><path d="M79.319 55.984l-6.825-4.474 6.825-4.475v8.949zM55.759 74.95V62.48l11.828-7.753 9.547 6.258L55.76 74.95zM53.03 57.835l-9.65-6.325 9.65-6.326 9.649 6.326-9.65 6.325zM50.302 74.95L28.926 60.985l9.55-6.258 11.826 7.752v12.47zm-23.56-27.915l6.826 4.475-6.826 4.474v-8.949zm23.56-18.965v12.47l-11.827 7.754-9.549-6.26L50.302 28.07zm5.457 0l21.375 13.964-9.547 6.26-11.828-7.754V28.07zM84.75 41.682c-.006-.039-.016-.077-.022-.116a2.572 2.572 0 00-.048-.224c-.012-.044-.029-.087-.043-.13-.021-.065-.043-.13-.07-.194a2.563 2.563 0 00-.06-.131 1.974 1.974 0 00-.093-.177c-.025-.042-.052-.083-.078-.124a2.38 2.38 0 00-.209-.279 2.657 2.657 0 00-.136-.144c-.036-.035-.071-.071-.108-.104a3.101 3.101 0 00-.155-.128c-.04-.031-.081-.062-.123-.091-.016-.01-.03-.023-.046-.033L54.544 20.849a2.774 2.774 0 00-3.027 0L22.501 39.807c-.016.01-.03.023-.046.033-.042.029-.082.06-.122.091a2.46 2.46 0 00-.155.128c-.038.033-.073.069-.11.104a2.338 2.338 0 00-.343.423 2.217 2.217 0 00-.171.301c-.021.042-.043.087-.061.13-.027.065-.049.13-.07.196-.015.042-.03.085-.043.129-.02.073-.033.149-.048.224-.006.04-.016.077-.021.116-.016.115-.025.231-.025.349v18.957c0 .118.009.234.025.35.005.038.015.077.021.115.015.075.028.15.048.224.013.045.028.087.043.13.021.065.043.13.07.196.018.044.04.087.06.13.03.06.06.119.093.178a3.034 3.034 0 00.193.284 2.281 2.281 0 00.23.26c.036.037.07.073.11.105.048.045.1.087.154.128.04.031.08.062.122.092.016.01.03.023.046.032L51.517 82.17a2.767 2.767 0 003.027 0L83.56 63.212c.016-.01.03-.023.046-.032a3.037 3.037 0 00.278-.22c.037-.032.072-.068.108-.104a2.584 2.584 0 00.23-.26 2.38 2.38 0 00.115-.163c.026-.04.053-.081.078-.122.034-.06.064-.118.092-.179.021-.042.043-.085.061-.129.027-.065.049-.131.07-.196.014-.043.031-.085.043-.13.02-.073.034-.149.048-.224.006-.038.016-.077.022-.114.015-.117.025-.233.025-.35V42.03c0-.118-.01-.234-.025-.349z"/></g></svg>