<?xml version="1.0" encoding="utf-8"?><svg width="30.72" height="32" xmlns="http://www.w3.org/2000/svg" viewBox="0 0 96 100"><path d="M41.487 61.066L18.38 77.61c-2.771 1.804-4.93 3.008-7.702 3.008C5.132 80.618.51 75.804.51 70.398c0-4.52 3.698-7.83 7.087-9.332L34.71 49.635 7.597 37.902C3.912 36.4.51 33.09.51 28.578c0-5.414 4.93-9.926 10.468-9.926 2.774 0 4.622.902 7.393 3.007L41.48 38.203l-3.072-26.772C37.483 5.111 41.797 0 47.96 0c6.163 0 10.468 4.814 9.552 11.13l-3.09 27.073L77.529 21.66c2.782-2.105 4.938-3.007 7.712-3.007 5.594.049 10.117 4.464 10.167 9.926 0 4.814-3.389 7.822-7.087 9.326l-27.115 11.73 27.115 11.432c3.698 1.503 7.087 4.811 7.087 9.625 0 5.414-4.93 9.927-10.468 9.927-2.465 0-4.622-1.204-7.396-3.008L54.421 61.066l3.08 26.772c.924 6.316-3.39 11.432-9.552 11.432-6.163 0-10.468-4.814-9.552-11.13l3.09-27.074z" fill="#FF9800" fill-rule="nonzero"/></svg>