<svg height="300" width="300" xmlns="http://www.w3.org/2000/svg" viewBox="0 0 100 100"><path d="M50.779 43.807c1.742.131 2.374 1.692 2.582 2.465.102.379.205.765.335 1.136 7.122 20.367 16.842 18.533 20.352 18.485 3.511-.049 9.51 0 13.76-3.769 3.736-3.312 5.34-15.696 5.673-18.647.044-.396.303-.728.672-.876l.13-.052a1.27 1.27 0 00.8-1.18v-4.092c0-.595-.409-1.109-.99-1.239-2.755-.619-10.79-2.245-17.985-1.96-8.852.35-16.784 2.016-20.596 3.068-2.06.745-5.288.613-5.288.613h-.365s-3.229.132-5.288-.613c-3.813-1.052-11.744-2.717-20.596-3.068-7.196-.285-15.231 1.341-17.986 1.96-.581.13-.989.644-.989 1.24v4.09c0 .52.316.988.799 1.18l.13.053c.37.148.628.48.673.876.333 2.951 1.937 15.335 5.672 18.647 4.251 3.769 10.25 3.72 13.76 3.769 3.51.048 13.23 1.882 20.352-18.485.13-.37.233-.757.335-1.136.208-.773.84-2.334 2.582-2.465h1.476z"/></svg>