<svg xmlns="http://www.w3.org/2000/svg" width="32" height="31.085" viewBox="0 0 32 31.085"><path d="M31.947 6.35c-.687-.42-5.126-1.472-5.131-1.473C26.551 3.127 25.603 0 22.2 0c-4.021 0-4.457 2.447-5.681 4.981C15.417 7.264 8.554 12.023 0 11.274c0 0 2.605 6.616 8.016 9.183-.004-2.937 2.349-5.646 5.712-6.331 3.409-.693 6.676.938 7.774 3.711 2.983-2.492 4.328-5.567 4.934-7.956l-.002.025c0 .001 6.201-3.135 5.513-3.556zm-7.945.002c-.402 1.211-1.547 1.92-2.553 1.584-1.009-.336-1.498-1.589-1.096-2.8.404-1.211 1.548-1.92 2.557-1.584 1.007.336 1.497 1.59 1.092 2.8z"/><path d="M21.143 18.134c-1.35-2.309-4.325-3.587-7.415-2.959-2.974.604-5.155 2.795-5.619 5.325 1.16.537 2.449.885 3.866.944l.729 6.669-2.331.934v.582l2.331-.467 1.224 1.924.699-.524-.699-1.34 1.923.35.233-.815-2.215-.467-1.177-6.836a11.76 11.76 0 002.975-.484l1.278 4.064-2.104 1.366.113.571 2.195-.91 1.574 1.647.584-.65-.946-1.18 1.954-.03.068-.847-2.262-.024-1.641-4.272c.214-.078.432-.162.648-.252 1.581-.655 2.904-1.446 4.015-2.319z"/></svg>