<svg width="331" height="270" xmlns="http://www.w3.org/2000/svg" xmlns:xlink="http://www.w3.org/1999/xlink" viewBox="0 0 331 270"><defs><path d="M112.297 5.424C65.195-14.74-2.689 22.112.082 102.774c2.77 80.66 26.322 107.083 72.04 107.083 30.478 0 52.413-15.993 65.804-47.98 6.004 27.351 22.166 43.344 48.488 47.98C225.897 216.811 273 193.168 273 107.641c0-20.166-29.093-25.728-15.932-41.026 15.932-19.47 8.796-46.63-16.624-56.323-21.166-8.072-42.667-7.23-51.259-4.868-18.91 5.198-41.56 19.47-76.888 0z" id="ja"/></defs><g fill="none" fill-rule="evenodd"><path d="M105.105 225c6.024 0 11.807-.962 16.144-3.127 7.71-3.849 13.734-10.824 19.758-16.838 8.915-9.14 13.734-21.649 17.108-36.08.723-2.887 1.927-5.293 2.41-8.18.481-2.164.722-5.05.722-7.697 0-1.683-.24-3.127-.24-4.57-.242-12.027-1.688-19.003-6.507-26.46-2.891-2.405-6.505-3.126-10.36-3.126-6.024 0-12.77 1.924-19.517 2.405-3.374.481-7.229 1.443-10.843 1.924-7.47.963-13.012 1.203-17.108 4.811-.24 1.203-.482 2.646-.482 3.849 0 1.924.482 3.608 1.928 4.57.964 3.608 2.65 4.81 7.71 7.216 2.525.917 4.175.96 6.616.962h3.986c4.096.241 10.602-.24 11.807 3.609.482 1.202.723 2.646.723 4.33 0 2.886-.482 6.013-.482 7.697-.482 4.089-.964 7.697-1.687 10.824-1.928 11.065-4.337 21.167-9.879 29.105-1.687 2.406-5.3 6.495-7.951 6.735-.723 0-1.687-.48-3.133-.962-4.096-.721-7.71-1.443-9.879-3.127-3.132-1.924-6.264-7.216-8.192-11.305-1.205-2.646-1.928-6.014-2.65-9.381-1.205-3.368-2.41-6.735-2.651-9.622-.723-3.367-.24-6.735-.723-9.862-.24-1.924-.964-4.09-1.205-5.773v-2.646c0-5.292.482-10.103.723-15.395v-2.645c0-3.609-.24-7.217-.24-11.065 0-1.684 0-3.368.24-5.052 1.205-19.243 6.988-30.308 18.554-46.665 2.168-3.367 12.288-12.267 16.625-12.989h1.205c1.687 0 2.65.481 4.096 1.444 1.446.962 2.892 5.772 3.855 9.14 0 .24.241.481.241.722.964 4.33 1.687 9.14 1.687 13.47 0 2.405-.241 4.81-.723 6.976.964.24 2.169.48 3.614.48 7.47 0 19.758-3.607 22.168-10.583.964-2.405 1.927-6.014 1.927-9.14v-.963c-.481-4.33-2.41-7.697-4.337-10.584l-.482-.721C144.381 51.81 134.742 47 123.177 47h-1.687c-4.337.481-9.397.962-14.216.962h-1.156c-4.43.008-8.81.096-12.578 1.203-32.529 8.9-39.516 39.69-44.094 67.11C48.482 122.77 48 130.228 48 137.204v1.443c0 2.646.482 5.532.482 8.66v1.443c0 2.405-.241 4.57-.241 6.735 0 1.684.24 3.367.482 4.81 2.41 17.56 7.951 32.474 16.385 44.02 2.891 4.089 6.987 9.14 10.842 12.508 4.578 3.848 10.602 5.773 16.385 6.735 3.855.962 8.192 1.443 12.77 1.443zm125.753 0c6.024 0 11.807-.962 16.144-3.127 7.71-3.849 13.734-10.824 19.758-16.838 8.915-9.14 13.734-21.649 17.108-36.08.722-2.887 1.927-5.293 2.41-8.18.481-2.164.722-5.05.722-7.697 0-1.683-.241-3.127-.241-4.57-.24-12.027-1.687-19.003-6.506-26.46-2.891-2.405-6.505-3.126-10.36-3.126-6.024 0-12.771 1.924-19.518 2.405-3.373.481-7.228 1.443-10.842 1.924-7.47.963-13.012 1.203-17.108 4.811-.24 1.203-.482 2.646-.482 3.849 0 1.924.482 3.608 1.928 4.57.964 3.608 2.65 4.81 7.71 7.216 2.524.917 4.175.96 6.616.962h3.986c4.096.241 10.602-.24 11.807 3.609.482 1.202.723 2.646.723 4.33 0 2.886-.482 6.013-.482 7.697-.482 4.089-.964 7.697-1.687 10.824-1.928 11.065-4.337 21.167-9.879 29.105-1.687 2.406-5.301 6.495-7.951 6.735-.723 0-1.687-.48-3.133-.962-4.096-.721-7.71-1.443-9.879-3.127-3.132-1.924-6.265-7.216-8.192-11.305-1.205-2.646-1.928-6.014-2.65-9.381-1.205-3.368-2.41-6.735-2.651-9.622-.723-3.367-.241-6.735-.723-9.862-.24-1.924-.964-4.09-1.205-5.773v-2.646c0-5.292.482-10.103.723-15.395v-2.645c0-3.609-.24-7.217-.24-11.065 0-1.684 0-3.368.24-5.052 1.205-19.243 6.988-30.308 18.553-46.665 2.169-3.367 12.289-12.267 16.626-12.989h1.205c1.686 0 2.65.481 4.096 1.444 1.446.962 2.891 5.772 3.855 9.14 0 .24.241.481.241.722.964 4.33 1.687 9.14 1.687 13.47 0 2.405-.241 4.81-.723 6.976.964.24 2.169.48 3.614.48 7.47 0 19.758-3.607 22.168-10.583.964-2.405 1.927-6.014 1.927-9.14v-.963c-.482-4.33-2.41-7.697-4.337-10.584l-.482-.721C270.134 51.81 260.495 47 248.93 47h-1.687c-4.337.481-9.397.962-14.216.962h-1.156c-4.43.008-8.81.096-12.578 1.203-32.529 8.9-39.516 39.69-44.094 67.11-.964 6.495-1.446 13.952-1.446 20.928v1.443c0 2.646.482 5.532.482 8.66v1.443c0 2.405-.241 4.57-.241 6.735 0 1.684.24 3.367.482 4.81 2.41 17.56 7.951 32.474 16.384 44.02 2.892 4.089 6.988 9.14 10.843 12.508 4.578 3.848 10.602 5.773 16.385 6.735 3.855.962 8.192 1.443 12.77 1.443z" fill="#0F1031" fill-rule="nonzero"/><g transform="translate(29 29)"><path stroke="#FD5A1E" stroke-width="29" d="M68.8-12.965c16.792-3.128 33.907-1.49 49.204 5.06.248.106.496.213.74.323.183.103.367.205.552.307 24.262 13.372 41.24 7.013 55.175 2.21 3.771-1.3 7.381-2.533 10.871-3.492 10.076-2.77 35.334-4.209 60.268 5.3 17.435 6.649 28.288 19.461 32.47 33.629 4.243 14.377 1.755 30.544-8.826 44.216.842.685 1.923 1.309 2.707 2.107 7.941 8.085 15.539 17.653 15.539 30.946 0 42.714-11.133 71.29-26.565 89.507-20.937 24.716-50.364 31.687-77.036 26.99-16.401-2.89-29.507-9.51-39.547-19.445a67.336 67.336 0 01-8.57-10.392c-4.791 6.015-10.073 11.096-15.808 15.278-13.351 9.734-29.261 14.778-47.853 14.778-29.17 0-50.518-9.382-65.203-31.21-12.331-18.33-19.852-46.929-21.327-89.876C-15.874 60.62.368 28.982 23.019 9.332 36.571-2.425 52.531-9.934 68.8-12.965z"/><use stroke="#FFE417" stroke-width="20" xlink:href="#ja"/></g></g></svg>