<svg viewBox="0 0 72 72" xmlns="http://www.w3.org/2000/svg" width="72" height="72"><g fill="none" fill-rule="evenodd"><g transform="translate(1 1)"><ellipse fill="#FFF" fill-rule="nonzero" cx="35" cy="35.045" rx="35" ry="34.955"/><ellipse stroke="#C46C28" stroke-width="2" cx="35" cy="35.045" rx="35" ry="34.955"/></g><path d="M51.345 29.247c-.09 1.633.115 3.694.418 5.243.455 2.334.478 3.206.005 5.46-.836 3.99-.857 6.352-.206 10.288 1.322 7.983-5.201 8.905-9.554 8.746-2.773-.1-5.646-1.312-7.6-2.842-1.927-1.51-4.033-2.637-5.7-4.368-1.9-1.973-3.305-3.845-5.152-5.668-4.581 3.102-6.352-2.56-6.524-6.496-.29-6.658 1.411-12.873 5.064-18.18 3.598-5.228 8.857-8.93 15.602-8.375 6.663.548 12.134 4.292 14.462 10.714.633 1.748 1.495 4.991.054 6.571" stroke="#FBC7B1" fill="#F9EDE8" fill-rule="nonzero"/><path d="M31.076 17.788c-2.624 3.06-1.333 9.082-2.98 12.806-2.98 6.74-.85-2.92-2.968-.225-.848 1.08-.389 1.07-.84 2.483-.315.983-1.08 1.609-1.304 2.735-.249 1.249-.01 2.88.019 4.16-.873-1.124-.567-2.57-1.705-3.344-.783.554-2.854 3.843-2.995 4.749-.167 1.07.348 4.798 1.04 5.38-.439 1.343-1.728 2.615-3.133 2.454.038-.683-.12-1.456-.05-2.143a5.075 5.075 0 01-2.658.352c.535-1.181.538-2.687 1.01-3.981 1.124-.398.935-1.63.627-2.69.193-.265.257-.445.385-.686-1.156-.06-2.374.003-3.524-.068 4.016-3.19 4.067-11.616 4.77-16.523 1.012-7.074 4.922-10.822 11.944-11.12 4.947-.21 8.907-.231 13.706.506 2.986.458 5.94.314 7.65 3.178.717 1.202.73 1.974 1.73 3.145 1.466 1.718 1.3 1.406 1.624 3.555.288 1.914.931 4.062 1.65 5.886.428 1.086.535 2.26 1.926 2.01-1.237.864-3.713 1.117-5.203 1.25 2.012 1.303 3.037 1.752 2.664 4.528-2.804-.239-3.43-5.253-3.799-7.376-.574-3.298-2.467-6.431-4.261-9.185-2.045-3.137-5.122-5.267-9.23-3.857-.364.125-1.207.693-1.354.734-.389.107-1.416.228-2.02.433-1.094.372-2.152.995-3.146 1.528" stroke="#B19430" fill="#FBF19E" fill-rule="nonzero"/></g></svg>