<svg viewBox="0 0 72 72" version="1.1" xmlns="http://www.w3.org/2000/svg" xmlns:xlink="http://www.w3.org/1999/xlink">
    <g stroke="none" stroke-width="1" fill="none" fill-rule="evenodd">
        <g transform="translate(-42.000000, -1117.000000)">
            <g transform="translate(43.000000, 1118.000000)">
                <g>
                    <ellipse id="Oval" fill="#FFFFFF" fill-rule="nonzero" cx="35" cy="35.0446105" rx="35" ry="34.9553001"></ellipse>
                    <ellipse id="Oval" stroke="#C46C28" stroke-width="2" cx="35" cy="35.0446105" rx="35" ry="34.9553001"></ellipse>
                </g>
                <path d="M50.344975,28.2469486 C50.2542223,29.8796458 50.4603277,31.9407413 50.7627138,33.4904822 C51.2181356,35.8241866 51.2405244,36.6955856 50.7682419,38.9499171 C49.9319351,42.9403276 49.9107442,45.3020723 50.5624129,49.2382835 C51.8835325,57.221165 45.3609481,58.1427319 41.0081361,57.9844342 C38.2351578,57.88374 35.3624898,56.6723637 33.4081284,55.1419733 C31.4812232,53.6329042 29.3749317,52.504753 27.7087676,50.7741387 C25.8082129,48.8010163 24.4033429,46.9287672 22.5564106,45.1056111 C17.9748281,48.2075118 16.2035384,42.5454344 16.0317993,38.6097607 C15.7412064,31.9522082 17.443303,25.7366711 21.0955227,20.4300692 C24.6938437,15.2021235 29.9527084,11.5003577 36.6977981,12.0549821 C43.3608879,12.6026187 48.8323996,16.347296 51.1599065,22.7692383 C51.7934247,24.5171426 52.6551606,27.7604989 51.2139896,29.3402511" id="Path" stroke="#FBC7B1" fill="#F9EDE8" fill-rule="nonzero"></path>
                <path d="M30.0762656,16.7879974 C27.4519324,19.8479975 28.7430574,25.8695106 27.0965727,29.5936076 C24.1168799,36.3332474 26.2453351,26.6731461 24.1278071,29.3690204 C23.2799108,30.4483274 23.7394852,30.439031 23.2875869,31.8519051 C22.9730462,32.8350262 22.2076007,33.4607408 21.9837286,34.5868981 C21.7353832,35.83575 21.9746979,37.4676887 22.0028738,38.7478355 C21.1300527,37.6228747 21.435653,36.1763125 20.2975087,35.4027754 C19.5154466,35.9569719 17.4437947,39.245517 17.3025539,40.1519655 C17.1362077,41.2215158 17.6511405,44.950307 18.3433468,45.532853 C17.9043624,46.8752215 16.6153145,48.1466242 15.2098604,47.9862836 C15.2476992,47.3025814 15.0907449,46.5296886 15.1594688,45.8428569 C14.3179844,46.2033009 13.4038929,46.3116366 12.5019928,46.1952931 C13.0370642,45.0138173 13.0395928,43.508439 13.5120811,42.2136572 C14.6357762,41.8161196 14.4470337,40.5832833 14.1389048,39.5233055 C14.3324336,39.2591395 14.39601,39.0786414 14.5244272,38.8379465 C13.3675893,38.7772896 12.1502454,38.841076 11,38.7701101 C15.0158801,35.5802361 15.067265,27.1536153 15.769676,22.246754 C16.7822026,15.1731789 20.6920618,11.4247823 27.7141851,11.1267441 C32.660683,10.916884 36.6212949,10.8956218 41.4198692,11.6326175 C44.4058836,12.0909962 47.3602904,11.9467634 49.0694484,14.810894 C49.7871214,16.0134478 49.7994032,16.785144 50.7991062,17.9559427 C52.2655178,19.6737583 52.0999843,19.3621897 52.4240073,21.511139 C52.7123589,23.4250082 53.3552573,25.572761 54.0740139,27.3971635 C54.5018904,28.4828216 54.6094466,29.6572099 56,29.4074948 C54.7626982,30.271327 52.2867401,30.5236193 50.7971194,30.6564387 C52.8085363,31.9601488 53.8344284,32.409139 53.4611879,35.1849075 C50.6570526,34.9459615 50.0316738,29.9317769 49.6622262,27.8086919 C49.0882323,24.5108503 47.1945763,21.3775833 45.4005294,18.6242736 C43.356331,15.4871407 40.2791061,13.3567842 36.1702094,14.766897 C35.8072639,14.8915245 34.9642443,15.4601718 34.8165014,15.5008552 C34.4283601,15.6077182 33.4011134,15.72894 32.7965956,15.9341059 C31.7028826,16.3058713 30.6452023,16.9285484 29.6506468,17.4618509"  stroke="#B19430" fill="#FBF19E" fill-rule="nonzero"></path>
            </g>
        </g>
    </g>
</svg>