<svg viewBox="0 0 136 106" xmlns="http://www.w3.org/2000/svg"><path d="M89.294 105.595c1.644 0 2.369-.87 2.175-2.61l-.87-8.12V66.88c0-3.19 1.934-5.123 5.8-5.8l2.465-.435c1.16-.097 1.74-.822 1.74-2.175 0-1.16-.676-1.74-2.03-1.74l-14.355.58-19.72-.58c-1.256 0-1.885.652-1.885 1.958 0 1.305.532 1.957 1.595 1.957l7.83.435c4.35.193 6.525 2.127 6.525 5.8v17.98c0 3.287-2.489 6.404-7.467 9.352-4.979 2.949-11.069 4.423-18.27 4.423-7.202 0-13.775-2.44-19.72-7.323-5.945-4.881-10.513-11.092-13.703-18.632-3.19-7.54-4.785-15.37-4.785-23.49 0-12.373 3.553-22.572 10.658-30.595C32.382 10.572 41.927 6.56 53.914 6.56c6.477 0 12.084 1.837 16.82 5.51 4.737 3.673 7.975 8.748 9.715 15.225.484 1.933 1.547 2.9 3.19 2.9.677 0 1.233-.314 1.668-.943.435-.628.652-1.28.652-1.957v-16.53c0-2.127-3.31-4.302-9.932-6.525C69.405 2.017 62.034.905 53.914.905 38.158.905 25.35 5.859 15.49 15.768 5.63 25.676.7 38.146.7 53.178c0 15.031 4.688 27.525 14.065 37.482 9.377 9.957 21.605 14.935 36.685 14.935 8.893 0 16.627-1.788 23.2-5.365 2.127-1.16 3.577-1.74 4.35-1.74 3.577 0 6.139 1.74 7.685 5.22.677 1.257 1.547 1.885 2.61 1.885zm35.051 0c1.643 0 2.368-.87 2.175-2.61l-.87-8.12V66.88c0-3.19 1.933-5.123 5.8-5.8l2.465-.435c1.16-.097 1.74-.822 1.74-2.175 0-1.16-.677-1.74-2.03-1.74l-14.355.58-19.72-.58c-1.257 0-1.885.652-1.885 1.958 0 1.305.532 1.957 1.595 1.957l7.83.435c4.35.193 6.525 2.127 6.525 5.8v17.98c0 3.287-2.49 6.404-7.467 9.352-4.979 2.949-11.069 4.423-18.27 4.423-7.202 0-13.776-2.44-19.72-7.323-5.946-4.881-10.513-11.092-13.703-18.632-3.19-7.54-4.785-15.37-4.785-23.49 0-12.373 3.553-22.572 10.657-30.595C67.433 10.572 76.978 6.56 88.965 6.56c6.477 0 12.083 1.837 16.82 5.51s7.975 8.748 9.715 15.225c.483 1.933 1.547 2.9 3.19 2.9.677 0 1.233-.314 1.667-.943.436-.628.653-1.28.653-1.957v-16.53c0-2.127-3.31-4.302-9.933-6.525C104.456 2.017 97.085.905 88.965.905 73.208.905 60.4 5.859 50.54 15.768c-9.86 9.908-14.79 22.378-14.79 37.41 0 15.031 4.688 27.525 14.065 37.482 9.377 9.957 21.605 14.935 36.685 14.935 8.893 0 16.627-1.788 23.2-5.365 2.127-1.16 3.577-1.74 4.35-1.74 3.577 0 6.138 1.74 7.685 5.22.677 1.257 1.547 1.885 2.61 1.885z" fill="var(--primary-color)"/></svg>.23 C522.775834,318.07 524.225834,317.49 524.999167,317.49 C528.575834,317.49 531.1375,319.23 532.684167,322.71 C533.360834,323.966667 534.230834,324.595 535.294167,324.595 Z M570.345,324.595 C571.988333,324.595 572.713333,323.725 572.52,321.985 L572.52,321.985 L571.65,313.865 L571.65,285.88 C571.65,282.69 573.583333,280.756667 577.45,280.08 L577.45,280.08 L579.915,279.645 C581.075,279.548333 581.655,278.823333 581.655,277.47 C581.655,276.31 580.978333,275.73 579.625,275.73 L579.625,275.73 L565.27,276.31 L545.55,275.73 C544.293333,275.73 543.665,276.3825 543.665,277.6875 C543.665,278.9925 544.196667,279.645 545.26,279.645 L545.26,279.645 L553.09,280.08 C557.44,280.273333 559.615,282.206667 559.615,285.88 L559.615,285.88 L559.615,303.86 C559.615,307.146667 557.125833,310.264167 552.1475,313.2125 C547.169167,316.160833 541.079167,317.635 533.8775,317.635 C526.675833,317.635 520.1025,315.194167 514.1575,310.3125 C508.2125,305.430833 503.645,299.22 500.455,291.68 C497.265,284.14 495.67,276.31 495.67,268.19 C495.67,255.816667 499.2225,245.618333 506.3275,237.595 C513.4325,229.571667 522.978333,225.56 534.965,225.56 C541.441667,225.56 547.048333,227.396667 551.785,231.07 C556.521667,234.743333 559.76,239.818333 561.5,246.295 C561.983333,248.228333 563.046667,249.195 564.69,249.195 C565.366667,249.195 565.9225,248.880833 566.3575,248.2525 C566.7925,247.624167 567.01,246.971667 567.01,246.295 L567.01,246.295 L567.01,229.765 C567.01,227.638333 563.699167,225.463333 557.0775,223.24 C550.455833,221.016667 543.085,219.905 534.965,219.905 C519.208333,219.905 506.4,224.859167 496.54,234.7675 C486.68,244.675833 481.75,257.145833 481.75,272.1775 C481.75,287.209167 486.438333,299.703333 495.815,309.66 C505.191667,319.616667 517.42,324.595 532.5,324.595 C541.393333,324.595 549.126667,322.806667 555.7,319.23 C557.826667,318.07 559.276667,317.49 560.05,317.49 C563.626667,317.49 566.188333,319.23 567.735,322.71 C568.411667,323.966667 569.281667,324.595 570.345,324.595 Z"></path>
		</g>
	</g>
</svg>