<svg width="136px" height="106px" viewBox="0 0 136 106" version="1.1" xmlns="http://www.w3.org/2000/svg" xmlns:xlink="http://www.w3.org/1999/xlink" alt="" >
    <title>Geoff Graham</title>
    <desc>My logo. It's two Gs overlapping one another.</desc>
    <g stroke="none" stroke-width="1" fill="none" fill-rule="evenodd">
			<g transform="translate(-446.000000, -219.000000)" fill="var(--primary-color)" fill-rule="nonzero">
				<path d="M535.294167,324.595 C536.9375,324.595 537.6625,323.725 537.469167,321.985 L537.469167,321.985 L536.599167,313.865 L536.599167,285.88 C536.599167,282.69 538.5325,280.756667 542.399167,280.08 L542.399167,280.08 L544.864167,279.645 C546.024167,279.548333 546.604167,278.823333 546.604167,277.47 C546.604167,276.31 545.9275,275.73 544.574167,275.73 L544.574167,275.73 L530.219167,276.31 L510.499167,275.73 C509.2425,275.73 508.614167,276.3825 508.614167,277.6875 C508.614167,278.9925 509.145834,279.645 510.209167,279.645 L510.209167,279.645 L518.039167,280.08 C522.389167,280.273333 524.564167,282.206667 524.564167,285.88 L524.564167,285.88 L524.564167,303.86 C524.564167,307.146667 522.075,310.264167 517.096667,313.2125 C512.118334,316.160833 506.028334,317.635 498.826667,317.635 C491.625,317.635 485.051667,315.194167 479.106667,310.3125 C473.161667,305.430833 468.594167,299.22 465.404167,291.68 C462.214167,284.14 460.619167,276.31 460.619167,268.19 C460.619167,255.816667 464.171667,245.618333 471.276667,237.595 C478.381667,229.571667 487.9275,225.56 499.914167,225.56 C506.390834,225.56 511.9975,227.396667 516.734167,231.07 C521.470834,234.743333 524.709167,239.818333 526.449167,246.295 C526.9325,248.228333 527.995834,249.195 529.639167,249.195 C530.315834,249.195 530.871667,248.880833 531.306667,248.2525 C531.741667,247.624167 531.959167,246.971667 531.959167,246.295 L531.959167,246.295 L531.959167,229.765 C531.959167,227.638333 528.648334,225.463333 522.026667,223.24 C515.405,221.016667 508.034167,219.905 499.914167,219.905 C484.1575,219.905 471.349167,224.859167 461.489167,234.7675 C451.629167,244.675833 446.699167,257.145833 446.699167,272.1775 C446.699167,287.209167 451.3875,299.703333 460.764167,309.66 C470.140834,319.616667 482.369167,324.595 497.449167,324.595 C506.3425,324.595 514.075834,322.806667 520.649167,319.23 C522.775834,318.07 524.225834,317.49 524.999167,317.49 C528.575834,317.49 531.1375,319.23 532.684167,322.71 C533.360834,323.966667 534.230834,324.595 535.294167,324.595 Z M570.345,324.595 C571.988333,324.595 572.713333,323.725 572.52,321.985 L572.52,321.985 L571.65,313.865 L571.65,285.88 C571.65,282.69 573.583333,280.756667 577.45,280.08 L577.45,280.08 L579.915,279.645 C581.075,279.548333 581.655,278.823333 581.655,277.47 C581.655,276.31 580.978333,275.73 579.625,275.73 L579.625,275.73 L565.27,276.31 L545.55,275.73 C544.293333,275.73 543.665,276.3825 543.665,277.6875 C543.665,278.9925 544.196667,279.645 545.26,279.645 L545.26,279.645 L553.09,280.08 C557.44,280.273333 559.615,282.206667 559.615,285.88 L559.615,285.88 L559.615,303.86 C559.615,307.146667 557.125833,310.264167 552.1475,313.2125 C547.169167,316.160833 541.079167,317.635 533.8775,317.635 C526.675833,317.635 520.1025,315.194167 514.1575,310.3125 C508.2125,305.430833 503.645,299.22 500.455,291.68 C497.265,284.14 495.67,276.31 495.67,268.19 C495.67,255.816667 499.2225,245.618333 506.3275,237.595 C513.4325,229.571667 522.978333,225.56 534.965,225.56 C541.441667,225.56 547.048333,227.396667 551.785,231.07 C556.521667,234.743333 559.76,239.818333 561.5,246.295 C561.983333,248.228333 563.046667,249.195 564.69,249.195 C565.366667,249.195 565.9225,248.880833 566.3575,248.2525 C566.7925,247.624167 567.01,246.971667 567.01,246.295 L567.01,246.295 L567.01,229.765 C567.01,227.638333 563.699167,225.463333 557.0775,223.24 C550.455833,221.016667 543.085,219.905 534.965,219.905 C519.208333,219.905 506.4,224.859167 496.54,234.7675 C486.68,244.675833 481.75,257.145833 481.75,272.1775 C481.75,287.209167 486.438333,299.703333 495.815,309.66 C505.191667,319.616667 517.42,324.595 532.5,324.595 C541.393333,324.595 549.126667,322.806667 555.7,319.23 C557.826667,318.07 559.276667,317.49 560.05,317.49 C563.626667,317.49 566.188333,319.23 567.735,322.71 C568.411667,323.966667 569.281667,324.595 570.345,324.595 Z"></path>
		</g>
	</g>
</svg>