<svg width="253" height="211" xmlns="http://www.w3.org/2000/svg" xmlns:xlink="http://www.w3.org/1999/xlink" viewBox="0 0 253 211"><defs><path d="M207.474 211c52.455 0 45.183-78.695 45.183-149.683C252.657-9.67 147.431.505 94.977.505 42.523.505 0 58.052 0 129.04S155.02 211 207.474 211z" id="la"/></defs><g fill="none" fill-rule="evenodd"><mask id="lb" fill="#fff"><use xlink:href="#la"/></mask><use fill="#FD5A1E" xlink:href="#la"/><g mask="url(#lb)" fill-rule="nonzero"><g transform="translate(131 108)"><circle fill="#F8E71C" cx="70" cy="70" r="70"/><path d="M102.44 59.585c-7.603-15.604-23.143-20.9-32.877-20.9-9.737 0-25.313 5.294-32.914 20.897-7.605 15.605-1.48 30.073 5.94 39.72 7.416 9.644 8.203 13.9 8.667 16.265.463 2.365-1.023 6.052 1.81 8.605 2.835 2.554 16.497 2.933 16.497 2.933s13.62-.379 16.453-2.933c2.834-2.551 1.326-6.241 1.79-8.605.464-2.364 1.239-6.621 8.659-16.266 7.42-9.644 13.577-24.113 5.975-39.716z" fill="#EFC75E"/><path d="M82.472 71.047a6.86 6.86 0 00-1.245-.126l-.129.014-1.164.118c-3.252.615-5.714 3.486-5.714 6.951v4.165H63.007v-4.165c0-3.462-2.458-6.333-5.704-6.95l-1.174-.119-.128-.014c-.431 0-.846.052-1.254.126-3.36.547-5.931 3.418-5.931 6.908 0 3.88 3.165 7.023 7.072 7.023h4.244v42.127h2.829V84.978h11.315v42.127h2.83V84.978h4.243c3.906 0 7.072-3.143 7.072-7.023 0-3.494-2.58-6.371-5.95-6.908zm-30.827 6.908c0-2.284 1.834-4.132 4.119-4.2H56c2.323 0 4.206 3.172 4.206 7.084l.014 1.33h-4.333c-2.342 0-4.243-1.888-4.243-4.214zm29.704 4.214h-4.34l.014-1.33c0-3.912 1.881-7.083 4.205-7.083h.247c2.283.066 4.117 1.917 4.117 4.2 0 2.325-1.9 4.213-4.243 4.213z" fill="#DDB857"/><path d="M69.54 11.053a2.8 2.8 0 00-2.793 2.805v11.22a2.8 2.8 0 002.793 2.804 2.8 2.8 0 002.793-2.805v-11.22a2.8 2.8 0 00-2.793-2.804zm24.823 5.804c-1.414-.572-3.032.086-3.617 1.472L86.51 28.352c-.585 1.384.087 2.97 1.499 3.543 1.412.572 3.032-.086 3.617-1.47L95.86 20.4c.587-1.382-.085-2.97-1.498-3.544zm-46.03 1.472c-.585-1.386-2.204-2.044-3.617-1.472-1.413.574-2.084 2.162-1.498 3.544l4.234 10.024c.585 1.384 2.204 2.042 3.617 1.47 1.413-.573 2.084-2.159 1.499-3.543l-4.235-10.023zm65.114 13.103a2.595 2.595 0 00-3.681 0l-7.363 7.393a2.62 2.62 0 000 3.699 2.597 2.597 0 003.683 0l7.361-7.394a2.62 2.62 0 000-3.698zm-84.134 0a2.595 2.595 0 00-3.681 0 2.62 2.62 0 000 3.698l7.361 7.394a2.597 2.597 0 003.683 0 2.62 2.62 0 000-3.699l-7.363-7.393z" fill="#EFC75E"/><path d="M84.314 71.047a6.86 6.86 0 00-1.245-.126l-.129.014-1.164.118c-3.252.615-5.714 3.486-5.714 6.951v4.165H64.849v-4.165c0-3.462-2.458-6.333-5.704-6.95l-1.174-.119-.128-.014c-.431 0-.845.052-1.254.126-3.36.547-5.931 3.418-5.931 6.908 0 3.88 3.165 7.023 7.072 7.023h4.244v42.127h2.829V84.978h11.315v42.127h2.83V84.978h4.243c3.907 0 7.072-3.143 7.072-7.023 0-3.494-2.58-6.371-5.95-6.908zm-30.827 6.908c0-2.284 1.834-4.132 4.119-4.2h.237c2.323 0 4.206 3.172 4.206 7.084l.014 1.33H57.73c-2.342 0-4.243-1.888-4.243-4.214zM83.19 82.17h-4.34l.014-1.33c0-3.912 1.882-7.083 4.206-7.083h.246c2.283.066 4.117 1.917 4.117 4.2 0 2.325-1.9 4.213-4.243 4.213z" fill="#FFF"/></g></g><g mask="url(#lb)"><path d="M162-43c38.66 0 70 31.34 70 70s-31.34 70-70 70-70-31.34-70-70 31.34-70 70-70z" fill="#F8E71C" fill-rule="nonzero"/><path d="M150.04-.97c4.967.966 9.744-2.265 10.668-7.212.924-4.948-2.355-9.74-7.321-10.705-4.967-.964-9.743 2.267-10.668 7.214-.924 4.946 2.354 9.739 7.321 10.703zm-3.176-9.899a4.865 4.865 0 015.724-3.889 4.966 4.966 0 013.929 5.77 4.865 4.865 0 01-5.724 3.89 4.968 4.968 0 01-3.93-5.77zm-16.168 44.406l4.264-4.261a2.02 2.02 0 10-2.857-2.858l-4.265 4.264-4.265-4.264a2.02 2.02 0 10-2.856 2.858l4.263 4.26-4.305 4.304a2.021 2.021 0 002.858 2.856l4.305-4.304 4.307 4.304A2.02 2.02 0 10135 37.84l-4.305-4.303zm71.71-12.538l-4.306-4.304 4.265-4.263a2.021 2.021 0 00-2.858-2.856l-4.263 4.263-4.266-4.263a2.019 2.019 0 10-2.855 2.856l4.262 4.263-4.304 4.304a2.019 2.019 0 102.856 2.856l4.307-4.304 4.305 4.304c.79.79 2.069.79 2.858 0a2.024 2.024 0 000-2.856zM188.27 61.607l4.262-4.262a2.018 2.018 0 10-2.855-2.855l-4.266 4.26-4.263-4.26a2.021 2.021 0 00-2.857 0 2.017 2.017 0 000 2.855l4.264 4.262-4.307 4.303a2.021 2.021 0 002.86 2.856l4.303-4.303 4.306 4.303a2.021 2.021 0 002.857-2.856l-4.304-4.303zm-14.057-45.516L157.639 7.78l-2.729 9.027-2.308 7.725c-.02.139-.089.354-.08.498.075 1.023.863 1.757 1.887 1.886l.444.012c1.085-.08 1.793-.823 2.172-1.944l2.278-7.203c6.754 12.881 3.587 29.08-8.415 38.577-2.868 2.27-7.02 4.566-10.922 6.081 0 0-4.01 1.071-3.894 3.467.198 4.03 5.828 1.523 6.814 1.156 3.964-1.477 7.397-3.416 11.41-6.588 13.85-10.964 17.636-29.56 10.138-44.527l6.548 3.274c.807.35 1.637.737 2.503.654.966-.093 1.664-.99 1.664-2.136 0-.693-.383-1.301-.936-1.648z" fill="#2085AA" fill-rule="nonzero"/><path d="M150.961-2.812c4.967.966 9.744-2.265 10.668-7.213.924-4.947-2.355-9.739-7.321-10.704-4.967-.964-9.743 2.267-10.668 7.214-.924 4.946 2.355 9.739 7.321 10.703zm-3.176-9.899a4.865 4.865 0 015.724-3.889 4.966 4.966 0 013.929 5.77 4.865 4.865 0 01-5.724 3.889 4.968 4.968 0 01-3.93-5.77zm-16.168 44.406l4.264-4.261a2.02 2.02 0 10-2.857-2.858l-4.265 4.264-4.265-4.264a2.02 2.02 0 10-2.856 2.858l4.263 4.26-4.305 4.304a2.021 2.021 0 002.858 2.856l4.305-4.305 4.307 4.305a2.02 2.02 0 102.856-2.856l-4.305-4.303zm71.71-12.538l-4.306-4.304 4.265-4.263a2.021 2.021 0 00-2.858-2.856l-4.263 4.262-4.266-4.262a2.019 2.019 0 10-2.855 2.856l4.262 4.263-4.304 4.304a2.019 2.019 0 102.856 2.856l4.307-4.304 4.305 4.304c.79.79 2.069.79 2.858 0a2.024 2.024 0 000-2.856zm-14.136 40.608l4.262-4.263a2.018 2.018 0 10-2.855-2.855l-4.266 4.262-4.263-4.261a2.021 2.021 0 00-2.857 0 2.017 2.017 0 000 2.854l4.264 4.263-4.307 4.303a2.021 2.021 0 002.86 2.856l4.303-4.303 4.306 4.303a2.021 2.021 0 002.857-2.856l-4.304-4.303zm-14.057-45.516L158.56 5.938l-2.729 9.027-2.308 7.725c-.02.139-.089.354-.08.498.075 1.023.863 1.757 1.887 1.886l.444.012c1.085-.08 1.793-.823 2.172-1.944l2.278-7.203c6.754 12.881 3.587 29.08-8.415 38.577-2.868 2.27-7.02 4.565-10.922 6.081 0 0-4.01 1.071-3.894 3.467.198 4.03 5.828 1.523 6.814 1.156 3.964-1.478 7.397-3.416 11.41-6.588 13.85-10.964 17.636-29.56 10.138-44.527l6.548 3.274c.807.35 1.637.737 2.503.654.966-.093 1.664-.99 1.664-2.136 0-.693-.383-1.301-.936-1.648z" fill="#FFF" fill-rule="nonzero"/></g><g mask="url(#lb)" fill-rule="nonzero"><path d="M43 70c38.66 0 70 31.564 70 70.5 0 38.934-31.34 70.5-70 70.5s-70-31.566-70-70.5C-27 101.563 4.339 70 43 70z" fill="#F8E71C"/><path d="M-17.79 104.313c5.795-9.86 13.885-18.171 23.536-24.176 19.465 19.702 52.805 53.447 53.442 54.09 1.896 1.92 7.965 30.114 6.655 31.44-1.343 1.361-28.523-5.575-30.365-7.442l-53.267-53.912z" fill="#BF392B"/><path d="M47.44 146.39c1.386-1.396 1.564-7.522 2.96-8.928 1.394-1.409 8.82-2.95 8.825-2.952 1.812 1.826 7.447 27.646 6.74 30.867l-.41.415c-3.172.684-28.163-5.72-29.923-7.496 0 0 1.593-7.553 2.957-8.927 1.364-1.377 7.464-1.581 8.852-2.979z" fill="#FFCABA"/><path d="M66.026 165.166l-.036.206-.412.42c-3.18.688-28.185-5.77-29.946-7.561 0 0 1.533-7.555 2.929-8.976 23.263 13.446 26.896 15.574 27.465 15.91z" fill="#E5B5A7"/><path d="M66.01 164.922c-.426-.73-2.76-4.796-15.642-27.475 1.399-1.401 8.844-2.937 8.844-2.937 1.765 1.766 7.155 26.127 6.797 30.412z" fill="#FFDCD2"/><path d="M61.325 160.273c.928-.965 2.52-1.686 4-1.802.63 3.887.912 6.796.524 7.198-.377.393-2.876.087-6.264-.587-.082-1.701.677-3.706 1.74-4.81z" fill="#BF392B"/><path d="M59.579 134.293s-7.516 1.56-8.928 2.982C50.673 137.308-1.21 85.1-1.21 85.1a70.822 70.822 0 017.003-4.964l53.787 54.156z" fill="#C9574B"/><path d="M-12.987 97.647s51.415 51.897 51.382 51.878c-1.402 1.416-2.94 8.946-2.94 8.946l-53.244-53.715a70.303 70.303 0 014.802-7.109z" fill="#AC3327"/></g></g></svg>