<?xml version="1.0" encoding="utf-8"?><svg width="32" height="30.26" xmlns="http://www.w3.org/2000/svg" xmlns:xlink="http://www.w3.org/1999/xlink" viewBox="0 0 239 226"><defs><linearGradient x1="50%" y1="5.291%" x2="68.446%" y2="77.604%" id="qb"><stop stop-color="#FF9340" offset="0%"/><stop stop-color="#FD5A1E" offset="100%"/></linearGradient><path d="M165.644 226C210.514 226 239 156.184 239 91.696S218.401 0 173.531 0C128.661 0 0 27.586 0 92.074 0 156.563 120.774 226 165.644 226z" id="qa"/></defs><g fill="none" fill-rule="evenodd"><mask id="qc" fill="#fff"><use xlink:href="#qa"/></mask><use fill="url(#qb)" xlink:href="#qa"/><g mask="url(#qc)"><path d="M128.5-49C204.439-49 266 16.364 266 97c0 80.63-61.561 146-137.5 146S-9 177.63-9 97C-9 16.364 52.562-49 128.5-49z" fill="#EFC75E" fill-rule="nonzero"/><path d="M3.643 158.496H57.19V32.994L-9 102.9c.721 19.803 5.173 38.581 12.643 55.597z" fill="#D7B354" fill-rule="nonzero"/><path d="M13.063 176.066C37.549 216.314 80.261 243 128.894 243c48.633 0 91.345-26.686 115.83-66.934H13.064z" fill="#923604" fill-rule="nonzero"/><path d="M244.725 176.066H13.063c1.812 2.853 3.697 5.659 5.707 8.367h220.25c2.005-2.708 3.893-5.514 5.705-8.367z" fill="#7B2B00" fill-rule="nonzero"/><path d="M158.245 220.835c4.095-2.54 5.97-3.7 4.633-9.454-2.49-10.737.9-25.623 3.81-35.315h-5.604c-2.963 10.493-6.319 26.851-2.166 32.693.77 1.074.56 2.614-.473 3.423-1.033.809-2.493.585-3.265-.495-5.447-7.664-1.839-25.19 1.03-35.621h-2.404c-2.05 7.175-5.005 19.653-6.31 35.53-1.57 19.045-3.477 27.783-12.044 31.404 3.606-.192 7.162-.573 10.691-1.057.696-14.003 7.259-18.113 12.102-21.108zm17.4-44.77h-4.043c-2.826 9.097-6.539 24.066-4.194 34.155 2.154 9.28-2.595 12.228-6.794 14.827-4.439 2.745-9.015 5.588-9.78 16.186 2.205-.387 4.39-.824 6.556-1.313.544-2.78 1.586-5.314 3.26-7.436 4.608-5.822 10.955-7.097 17.416-3.49 1.295.722 2.57 1.653 3.807 2.739a128.228 128.228 0 005.34-2.57 102.077 102.077 0 00-5.967-7.396c-13.882-15.712-10.268-34.105-5.601-45.701zm-11.406 59.545c-.707.893-1.234 1.92-1.652 3.03 4.837-1.313 9.559-2.923 14.17-4.765l-.879-.556c-4.52-2.523-8.437-1.752-11.64 2.29zm67.987-42.898a148.06 148.06 0 004.977-6.47c.399-3.246.921-6.602 1.71-10.176h-5.195c.086 4.282-.145 10.3-1.492 16.646zm-89.372 18.465c1.267-15.435 3.993-27.567 6.079-35.108h-6.145c-1.07 9.203-4.967 25.684-19.154 33.973-10.326 6.031-13.926 16.044-12.14 22.826 1.298 4.922 5.283 7.635 10.936 7.454 16.207-.532 18.307-3.53 20.424-29.145zm83.128-35.111c.247 1.968.406 4.104.406 6.363 0 10.254-3.295 22.808-16.889 31.08-8.465 5.146-14.59 3.143-18.232.55-6.907-4.907-10.785-16.588-9.23-27.788.545-3.912 1.726-7.335 3.395-10.205h-4.81c-4.576 10.158-9.053 27.555 4.043 42.377a108.884 108.884 0 016.747 8.481c12.187-6.703 23.304-15.275 33.02-25.384 4.122-8.936 4.708-19.26 4.592-25.474h-3.042zm-130.907 0h-8.074c-3.257 1.496-7.636 2.69-13.545 2.893-15.79.568-26.502 2.844-26.607 2.858-1.261.274-2.493-.579-2.754-1.903-.25-1.336.553-2.614 1.817-2.888.181-.035 2.133-.448 5.47-.96H39.98c-1.363 9.163-5.698 16.067-12.28 20.153.676.78 1.374 1.54 2.067 2.309l.387-.28c10.106-7.247 21.553-15.461 37.816-15.461 13.53 0 21.93-3.173 27.104-6.721zm148.628 0l-.118.585.352-.585h-.234zm-136.702 58.1c-2.273-8.63 1.937-21.149 14.368-28.408 11.961-6.986 15.6-21.318 16.694-29.692h-2.935c-2.138 14.917-10.785 21.955-18.527 28.248-9.763 7.938-18.2 14.763-16.078 35.286l.085.562c3.784.83 7.632 1.461 11.521 1.956-2.446-1.892-4.238-4.57-5.128-7.952zm6.741-33.717c7.515-6.113 14.66-11.946 16.661-24.383h-6.038c-2.3 8.54-9.677 21.944-33.033 29.523-13.638 4.424-25.582 10.187-34.32 16.236 1.05.68 2.122 1.324 3.192 1.979 3.96-1.37 8.28-1.729 12.178-.297 3.273 1.2 7.283 4.08 9.1 10.88 4.656 1.808 9.443 3.327 14.322 4.593-1.935-22.307 8.149-30.58 17.938-38.531zM35.26 176.066h-7.775c.467 1.711.176 3.577-.91 5.32-1.24 1.992-3.573 3.837-6.632 5.048a141.317 141.317 0 004.642 6.042c7.39-4.226 9.859-11.788 10.675-16.41zm35.584 52.057c-1.309-.477-2.732-.66-4.194-.62 2.855 1.534 5.75 3.001 8.712 4.326-1.127-1.767-2.633-3.013-4.518-3.706zM22.674 178.71c.588-.943.338-1.377.248-1.54-.198-.346-.624-.733-1.322-1.103h-8.537a142.438 142.438 0 003.969 6.214c2.817-.841 4.834-2.273 5.642-3.571zm171.707 21.859c.544.681 2.204 2.756 7.052.454 9.042-4.299 12.197-15.19 9.474-22.654-.31-.853-.696-1.61-1.122-2.302h-6.733c3.768 2.535 4.93 5.888 5.25 7.937.631 3.99-.957 8.316-3.948 10.73-1.02.817-2.484.625-3.267-.45-.786-1.067-.594-2.604.426-3.428 1.643-1.324 2.534-3.819 2.187-6.06-.417-2.672-2.44-4.736-5.843-5.958-.832-.297-1.731.273-2.668 1.711-3.161 4.83-4.159 15.826-.808 20.02zm-74.892-24.502h-5.521c-3.98 6.948-12.417 16.469-29.458 19.146-12.112 1.898-27.615 8.93-39.302 17.977 2.45 1.99 4.953 3.9 7.525 5.72 10.483-7.606 24.645-13.91 37.222-17.995 20.165-6.543 27.138-17.507 29.534-24.848zm74.394 33.944c3.694 2.62 8.16 2.375 13.278-.739 14.805-9.006 15.597-23.71 14.223-33.205h-6.35l.226.55c3.471 9.512-.099 23.256-11.909 28.862-7.025 3.336-10.875.318-12.546-1.772-4.774-5.988-3.675-19.487.541-25.929.43-.66.894-1.21 1.377-1.711h-1.481c-2.347 2.625-3.955 6.363-4.59 10.915-1.286 9.268 1.817 19.181 7.231 23.03zm-85.525-33.944h-5.95c-5.14 5.457-15.199 11.614-34.437 11.614-14.666 0-25.407 7.594-34.878 14.387a139.14 139.14 0 008.432 8.04c12.511-9.95 29.276-17.692 42.298-19.738 13.22-2.081 20.564-8.668 24.535-14.303z" fill="#9B481A" fill-rule="nonzero"/><path d="M12.696 176.066h231.608a149.008 149.008 0 009.089-17.57H3.607a148.594 148.594 0 009.089 17.57z" fill="#A34A1B" fill-rule="nonzero"/><path d="M225.026 146.782v2.929c0 4.849-3.689 8.785-8.24 8.785H41.002c-4.551 0-8.24-3.936-8.24-8.785v-2.929h192.264z" fill="#F3F3F3" fill-rule="nonzero"/><path d="M116.484 144.272h24.82c2.284 0 4.137 1.874 4.137 4.184 0 2.309-1.853 4.183-4.137 4.183h-24.82c-2.284 0-4.137-1.874-4.137-4.183 0-2.31 1.853-4.184 4.137-4.184z" fill="#D5D5D5" fill-rule="nonzero"/><path d="M57.161 32.994h142.678c3.03 0 5.488 2.612 5.488 5.836v107.952H51.673V38.83c0-3.224 2.459-5.836 5.488-5.836z" fill="#36434F" fill-rule="nonzero"/><path fill="#465765" fill-rule="nonzero" d="M59.553 41.361h137.894v96.218H59.553z"/><path d="M95.677 125.865h65.948c4.553 0 8.243 3.93 8.243 8.785v2.929l-82.736-.03.302-2.899c0-4.855 3.69-8.785 8.243-8.785z" fill="#7E8A94" fill-rule="nonzero"/><path d="M103.68 120.009c3.044 0 5.515 2.62 5.515 5.856 0 3.233-2.471 5.857-5.516 5.857s-5.516-2.624-5.516-5.857c0-3.236 2.471-5.856 5.516-5.856z" fill="#E4E7E7" fill-rule="nonzero"/><path d="M120.226 120.009c3.045 0 5.516 2.62 5.516 5.856 0 3.233-2.47 5.857-5.516 5.857-3.044 0-5.515-2.624-5.515-5.857 0-3.236 2.47-5.856 5.515-5.856z" fill="#EFC75E" fill-rule="nonzero"/><path d="M136.774 120.009c3.044 0 5.515 2.62 5.515 5.856 0 3.233-2.47 5.857-5.515 5.857-3.045 0-5.516-2.624-5.516-5.857 0-3.236 2.47-5.856 5.516-5.856zm16.547 0c3.045 0 5.516 2.62 5.516 5.856 0 3.233-2.471 5.857-5.516 5.857s-5.516-2.624-5.516-5.857c0-3.236 2.471-5.856 5.516-5.856z" fill="#E4E7E7" fill-rule="nonzero"/><path d="M177.506 184.433h4.801c.616-3.16 1.666-5.977 3.12-8.367h-4.807a51.887 51.887 0 00-3.114 8.367zm20.35-5.726c-.833-.284-1.732.262-2.67 1.64-.741 1.085-1.349 2.51-1.824 4.086h10.337v-.017c-.418-2.56-2.438-4.538-5.843-5.709zm-10.769 5.726h1.454c.63-2.588 1.58-4.95 2.803-6.738.426-.628.888-1.155 1.37-1.63h-1.48c-1.954 2.098-3.355 4.957-4.147 8.368zm28.172-7.848c.915 2.4 1.325 5.092 1.24 7.848h5.266a39.658 39.658 0 00-.385-8.367h-6.346l.225.519zm-6.96 7.075l.072.773h3.436c.099-2.167-.181-4.287-.901-6.172a11.914 11.914 0 00-1.116-2.195h-6.729c3.76 2.43 4.92 5.634 5.239 7.594zm-191.275-1.65c2.814-.807 4.834-2.18 5.642-3.423.588-.904.338-1.32.248-1.475-.198-.327-.622-.697-1.311-1.046H13.06c1.273 2.016 2.592 4 3.964 5.943zm91.321-5.944h-5.95c-2.93 2.978-7.47 6.166-14.383 8.367H99.11c4.2-2.555 7.182-5.578 9.235-8.367zm-73.093 0h-7.773c.462 1.634.173 3.422-.913 5.087-.775 1.188-2.017 2.31-3.553 3.28h9.125c1.786-2.99 2.685-6.058 3.114-8.367zm59.804 0h-8.083c-3.257 1.428-7.624 2.566-13.523 2.76-15.79.545-26.503 2.726-26.608 2.74a2.332 2.332 0 01-2.754-1.824 2.343 2.343 0 011.817-2.767c.181-.033 2.116-.424 5.417-.91H39.974c-.479 3.069-1.336 5.852-2.51 8.368h16.931a48.21 48.21 0 0113.57-1.939c13.522 0 21.913-3.034 27.091-6.428zm63.848 8.367h5.47a128.56 128.56 0 012.308-8.367h-5.604a130.33 130.33 0 00-2.174 8.367zm69.768 0c.327-3.171.398-6.069.352-8.367h-3.043a46.65 46.65 0 01.407 6.085c0 .748-.028 1.51-.066 2.282h2.35zm10.238-8.367h-5.192c.05 2.326-.036 5.218-.335 8.367h4.024c.373-2.686.83-5.442 1.503-8.367zm-131.895 8.367h7.847c2.347-2.996 3.774-5.899 4.62-8.367h-5.524a36.044 36.044 0 01-6.943 8.367zm136.686-8.367l-.116.55.346-.55h-.23zm-123.106 8.367h7.127c1.199-2.424 2.136-5.154 2.677-8.367h-6.038c-.696 2.457-1.861 5.343-3.766 8.367zm20.548 0h5.637a162.368 162.368 0 012.147-8.367h-6.143a59.88 59.88 0 01-1.64 8.367zm10.442 0h2.515c.648-3.04 1.399-5.91 2.105-8.367H153.8c-.67 2.25-1.438 5.092-2.215 8.367zm-18.75 0h3.4a54.69 54.69 0 001.822-8.367h-2.936c-.473 3.132-1.267 5.882-2.287 8.367zm36.362 0h3.661a57.389 57.389 0 012.784-8.367H171.6a129.803 129.803 0 00-2.402 8.367z" fill="#88411A" fill-rule="nonzero"/><path d="M93.49 158.496h-9.816c-3.896 2.287-8.508 4.404-14.04 6.193-9.965 3.216-19.04 7.14-26.638 11.365h34.326c3.527-7.315 9.266-11.965 14.9-16.519l1.269-1.04zm28.073 11.804c.347-4.2.804-8.126 1.325-11.804h-9.484c-2.753 4.088-6.377 7.848-11.212 10.656-3.379 1.962-6.028 4.346-8.024 6.902h26.866c.18-1.795.358-3.678.53-5.754zm20.186.202c-.85-3.643-.983-7.772-.727-12.006h-5.21c-.052 3.947.472 7.315 1.942 9.373.774 1.087.562 2.624-.48 3.438-1.04.806-2.51.583-3.287-.503-2.117-2.964-2.866-7.389-2.839-12.308h-3.502a198.506 198.506 0 00-1.405 12.223 302.98 302.98 0 01-.487 5.335h15.888c.633-1.28.719-2.928.107-5.552zm-73.503-10.501a73.336 73.336 0 004.202-1.505H47.81c-10.394 4.038-21.147 10.34-29.163 17.558h14.985c10.197-6.732 23.064-12.325 34.615-16.053zm-63.929-.103l2.013-1.402H3.717l.6 1.402zm95.59 4.964c2.987-1.74 5.454-3.924 7.503-6.366h-6.48c-1.924 1.757-3.904 3.356-5.831 4.92-4.816 3.888-9.304 7.531-12.391 12.638h5.744c2.467-4.202 6.231-8.161 11.454-11.192zm-63.726-6.366H14.703c-1.39.96-2.75 1.932-4.083 2.881a258.449 258.449 0 01-4.197 2.929c1.87 3.81 3.894 7.514 6.067 11.119 6.35-6.452 14.808-12.343 23.691-16.93zm179.818 0h-6.231c-1.534 4.38-3.71 8.682-6.815 12.44-1.204 1.458-2.195 3.22-3.068 5.118h18.895c-1.542-5.198-2.572-10.993-2.781-17.558zm32.792 9.936c1.327-2.495 2.563-5.058 3.75-7.646a24.627 24.627 0 01-.104-2.287h-5.794c.185 3.028.86 6.38 2.148 9.933zm-11.978 7.622h7.674l1.316-2.328c-2.508-5.461-3.681-10.615-3.91-15.23h-9.857c.283 5.549 2.026 11.655 4.777 17.558zm-80.227 0c-3.781-5.777-5.549-11.766-6.02-17.558h-4.832c-.262 3.871-.17 7.613.58 10.832.64 2.75.664 4.931.287 6.726h9.985zm70.678-17.558h-6.614c.214 6.624 1.327 12.41 3.001 17.558h7.853c-2.5-5.88-4.02-11.9-4.24-17.558zm-32.478 17.558c1.2-3.18 2.712-6.023 4.612-8.322 2.296-2.785 4.012-5.954 5.311-9.236h-2.676c-2.577 5.21-6.735 10.17-13.289 14.132-8.536 5.166-14.706 3.15-18.38.553-4.185-2.963-7.236-8.395-8.687-14.688h-6.474c.592 5.821 2.707 11.85 7.278 17.558h32.305v.003zm-24.89-13.25c-.944-1.178-1.655-2.66-2.161-4.308h-1.195c1.252 4.603 3.497 8.527 6.46 10.627 3.725 2.63 8.224 2.383 13.384-.738 4.695-2.85 7.989-6.258 10.26-9.89h-6.289a22.565 22.565 0 01-7.809 6.086c-7.082 3.347-10.965.322-12.65-1.778zm10.714-2.695c.967-.457 1.826-1.025 2.657-1.613h-10.422c.21.395.4.828.658 1.156.548.686 2.217 2.768 7.107.457z" fill="#AC5C32" fill-rule="nonzero"/></g></g></svg>