<svg width="220px" height="224px" viewBox="0 0 220 224" version="1.1" xmlns="http://www.w3.org/2000/svg" xmlns:xlink="http://www.w3.org/1999/xlink">
    <title>Group</title>
    <defs>
        <path d="M82.7007299,224 C128.375082,224 220,115.059217 220,53.3246393 C220,-8.40993889 128.375082,0.439316222 82.7007299,0.439316222 C37.026378,0.439316222 0,50.48508 0,112.219658 C0,173.954236 37.026378,224 82.7007299,224 Z" id="path-1"></path>
    </defs>
    <g id="Home" stroke="none" stroke-width="1" fill="none" fill-rule="evenodd">
        <g id="4" transform="translate(-514.000000, -534.000000)">
            <g id="Module-1" transform="translate(474.000000, 485.000000)">
                <g id="Group" transform="translate(40.000000, 49.000000)">
                    <mask id="mask-2" fill="white">
                        <use xlink:href="#path-1"></use>
                    </mask>
                    <use id="Oval" fill="#2394BC" xlink:href="#path-1"></use>
                    <g id="picture" mask="url(#mask-2)" fill-rule="nonzero">
                        <g transform="translate(0.000000, 7.000000)" id="Path">
                            <path d="M98,0 C152.12344,0 196,43.87656 196,98 C196,152.12344 152.12344,196 98,196 C43.87656,196 0,152.12344 0,98 C0,43.87656 43.87656,0 98,0 Z" fill="#2394BC"></path>
                            <path d="M30.9089904,61.5992921 L131.037387,34.7465949 C134.196203,33.8978309 137.441187,35.7541346 138.27936,38.8904449 L158.04497,112.725071 C158.88706,115.863342 157.005087,119.091781 153.844313,119.940545 L53.7159162,146.795203 C50.5571002,147.642007 47.3121169,145.785703 46.4739437,142.649393 L26.7083331,68.812806 C25.8682016,65.6764956 27.7501744,62.4460959 30.9089904,61.5992921 Z" fill="#EDEDED"></path>
                            <path d="M38.7128281,67.0730182 L126.464142,43.5332703 C128.888179,42.8839115 131.378843,44.317994 132.025514,46.7388664 L148.450961,108.104256 C149.099591,110.523167 147.661238,113.014665 145.235242,113.664023 L57.4839276,137.203771 C55.0618503,137.855092 52.569227,136.419048 51.9225558,133.996213 L35.4990685,72.6327853 C34.8523974,70.209951 36.2907508,67.722377 38.7128281,67.0730182 Z" fill="#4681A0"></path>
                            <path d="M49.3076459,61.0491803 L153.118584,61.0491803 C156.393748,61.0491803 159.04918,63.662572 159.04918,66.8869874 L159.04918,142.770696 C159.04918,145.993166 156.393748,148.606557 153.118584,148.606557 L49.3076459,148.606557 C46.0305205,148.606557 43.3770492,145.993166 43.3770492,142.770696 L43.3770492,66.8869874 C43.3770492,63.660626 46.0305205,61.0491803 49.3076459,61.0491803 L49.3076459,61.0491803 Z" fill="#F6F6F6"></path>
                            <path d="M55.1707317,68.2786885 L146.45419,68.2786885 C148.974527,68.2786885 151.016393,70.3250002 151.016393,72.8473361 L151.016393,136.810377 C151.016393,139.332713 148.974527,141.377049 146.45419,141.377049 L55.1707317,141.377049 C52.6503946,141.377049 50.6065574,139.332713 50.6065574,136.810377 L50.6065574,72.8493113 C50.6045898,70.3250002 52.6484256,68.2786885 55.1707317,68.2786885 L55.1707317,68.2786885 Z" fill="#A3E0F5"></path>
                            <path d="M59.3020221,119.688525 C56.571019,119.688525 53.936358,119.917053 51.4098361,120.305157 L51.4098361,136.822242 C51.4098361,139.338024 53.4507153,141.377049 55.9674064,141.377049 L90.3399017,141.377049 C90.5974693,140.411714 90.7704918,139.428648 90.7704918,138.418001 C90.772458,128.075122 76.6829201,119.688525 59.3020221,119.688525 L59.3020221,119.688525 Z" fill="#3DB39E"></path>
                            <path d="M151.016393,136.850172 L151.016393,112.469258 C144.892085,110.910697 138.164446,110.04918 131.108435,110.04918 C102.619325,110.04918 79.5245902,124.076234 79.5245902,141.377049 L146.433053,141.377049 C148.965067,141.377049 151.016393,139.350528 151.016393,136.850172 L151.016393,136.850172 Z" fill="#4BC2AD"></path>
                            <path d="M50.6065574,72.794498 L50.6065574,95.3989153 C51.566635,95.5140548 52.5384208,95.5901639 53.5297204,95.5901639 C66.9981259,95.5901639 77.9180328,84.6753314 77.9180328,71.2098665 C77.9180328,70.2165446 77.8399777,69.2407862 77.7248464,68.2786885 L55.1318011,68.2786885 C52.6320869,68.2786885 50.6065574,70.3004598 50.6065574,72.794498 L50.6065574,72.794498 Z" fill="#EFC75E"></path>
                            <path d="M152.501849,148.71841 L49.1682951,148.71841 C45.9062399,148.71841 43.2649708,146.096511 43.2649708,142.863551 L43.2649708,66.7328127 C43.2649708,66.1490839 43.3781959,65.5965913 43.5382728,65.0655738 C41.1254061,65.8015797 39.3606557,68.0037408 39.3606557,70.6373536 L39.3606557,146.768092 C39.3606557,150.001052 42.003877,152.622951 45.2639801,152.622951 L148.597534,152.622951 C151.270037,152.622951 153.503306,150.850289 154.229508,148.433378 C153.679,148.601274 153.107018,148.71841 152.501849,148.71841 Z" fill="#1F85A9"></path>
                            <path d="M43.1142945,130.934426 L43.1142945,66.7381475 C43.1142945,66.1525508 43.22315,65.5982905 43.3770492,65.0655738 C41.0573004,65.8039348 39.3606557,68.0131422 39.3606557,70.655182 L39.3606557,116.316053 L43.1142945,130.934426 Z" fill="#D5D5D5"></path>
                            <path d="M40.5146838,66.4236671 C39.3187694,67.4997312 38.557377,69.0437351 38.557377,70.7832075 L38.557377,86.475973 L42.4719905,101.213115 L42.4719905,66.8343485 C42.4719905,66.5026443 42.513094,66.1827867 42.5737705,65.8688525 L40.5146838,66.4236671 Z" fill="#3F7490"></path>
                        </g>
                    </g>
                </g>
            </g>
        </g>
    </g>
</svg>