<svg width="239px" height="226px" viewBox="0 0 239 226" version="1.1" xmlns="http://www.w3.org/2000/svg" xmlns:xlink="http://www.w3.org/1999/xlink">
    <defs>
        <linearGradient x1="50%" y1="5.29139896%" x2="68.4457508%" y2="77.6039389%" id="linearGradient-1">
            <stop stop-color="#FF9340" offset="0%"></stop>
            <stop stop-color="#FD5A1E" offset="100%"></stop>
        </linearGradient>
        <path d="M165.643564,226 C210.513511,226 239,156.1844 239,91.6959504 C239,27.2075011 218.401299,0 173.531353,0 C128.661407,0 0,27.5856248 0,92.0740741 C0,156.562523 120.773618,226 165.643564,226 Z" id="path-2"></path>
    </defs>
    <g id="Home" stroke="none" stroke-width="1" fill="none" fill-rule="evenodd">
        <g id="4" transform="translate(-1056.000000, -931.000000)">
            <g id="Module-2" transform="translate(474.000000, 881.000000)">
                <g id="symbol-computer" transform="translate(582.000000, 50.000000)">
                    <mask id="mask-3" fill="white">
                        <use xlink:href="#path-2"></use>
                    </mask>
                    <use id="Oval" fill="url(#linearGradient-1)" xlink:href="#path-2"></use>
                    <g id="laptop" mask="url(#mask-3)">
                        <g transform="translate(-9.000000, -49.000000)">
                            <path d="M137.5,0 C213.4385,0 275,65.3642 275,146 C275,226.62996 213.4385,292 137.5,292 C61.5615,292 0,226.62996 0,146 C0,65.3642 61.5615,0 137.5,0 Z" id="Path" fill="#EFC75E" fill-rule="nonzero"></path>
                            <path d="M12.6431124,207.495702 L66.1891117,207.495702 L66.1891117,81.9942693 L0,151.898567 C0.721279202,171.701526 5.1733129,190.480043 12.6431124,207.495702 Z" id="Path" fill="#D7B354" fill-rule="nonzero"></path>
                            <path d="M22.0630372,225.065903 C46.5490599,265.313666 89.2605682,292 137.893983,292 C186.527397,292 229.238906,265.313666 253.724928,225.065903 L22.0630372,225.065903 Z" id="Path" fill="#923604" fill-rule="nonzero"></path>
                            <path d="M253.724928,225.065903 L22.0630372,225.065903 C23.8745734,227.918968 25.7604432,230.724623 27.7702022,233.432665 L248.020517,233.432665 C250.024769,230.724623 251.913392,227.918968 253.724928,225.065903 L253.724928,225.065903 Z" id="Path" fill="#7B2B00" fill-rule="nonzero"></path>
                            <path d="M167.244569,269.835139 C171.339687,267.294111 173.214096,266.135659 171.878373,260.381236 C169.388322,249.643721 172.7771,234.758481 175.687657,225.065903 L170.083668,225.065903 C167.120891,235.55892 163.765094,251.916966 167.917928,257.758709 C168.68748,258.832752 168.478601,260.372504 167.445203,261.181674 C166.411804,261.990844 164.952403,261.766722 164.180102,260.686858 C158.732772,253.023026 162.341422,235.497795 165.210753,225.065903 L162.805902,225.065903 C160.755595,232.24074 157.801064,244.718843 156.495573,260.596626 C154.926236,279.641234 153.018846,288.379109 144.45208,292 C148.057982,291.807895 151.614413,291.426595 155.14336,290.943422 C155.838705,276.940119 162.401887,272.830233 167.244569,269.835139 L167.244569,269.835139 Z M184.644696,225.065903 L180.601798,225.065903 C177.776442,234.161791 174.063352,249.131441 176.407738,259.219873 C178.562484,268.499135 173.813248,271.447658 169.613691,274.046899 C165.175023,276.791674 160.598936,279.635413 159.83488,290.233215 C162.039098,289.846094 164.224077,289.409491 166.389817,288.920496 C166.934,286.140792 167.975644,283.605586 169.64942,281.483697 C174.258489,275.662329 180.604546,274.387449 187.066037,277.993787 C188.360534,278.715637 189.635792,279.647056 190.872572,280.732741 C192.675523,279.92066 194.45099,279.056187 196.212715,278.162607 C194.420758,275.705989 192.430916,273.240639 190.245937,270.766558 C176.363764,255.054683 179.977911,236.662069 184.644696,225.065903 L184.644696,225.065903 Z M173.238832,284.609772 C172.532493,285.503353 172.0048,286.530824 171.587043,287.639795 C176.424229,286.327076 181.145981,284.717468 185.757798,282.875005 L184.87831,282.319064 C180.35719,279.795501 176.440719,280.566832 173.238832,284.609772 Z M241.226026,241.712106 C242.941028,239.60186 244.603811,237.447954 246.20338,235.241655 C246.601899,231.996242 247.124095,228.640223 247.912886,225.065903 L242.718408,225.065903 C242.803608,229.347519 242.572743,235.366815 241.226026,241.712106 Z M151.853524,260.177488 C153.120537,244.742129 155.846951,232.610396 157.932987,225.068813 L151.787562,225.068813 C150.718434,234.272397 146.821202,250.752692 132.633956,259.042321 C122.308214,265.073259 118.707808,275.086013 120.494269,281.867908 C121.791514,286.789875 125.776696,289.502633 131.430156,289.32217 C147.637477,288.789515 149.737255,285.79151 151.853524,260.177488 Z M234.981659,225.065903 C235.229015,227.033525 235.388423,229.169968 235.388423,231.428659 C235.388423,241.683 232.09309,254.236781 218.499499,262.508946 C210.034424,267.655036 203.908238,265.652485 200.266607,263.059065 C193.359875,258.151652 189.481881,246.471075 191.037476,235.270762 C191.58166,231.358802 192.763472,227.935837 194.431752,225.065903 L189.62205,225.065903 C185.045962,235.224191 180.568817,252.621351 193.664948,267.442556 C196.179735,270.292116 198.389449,273.11548 200.412272,275.92429 C212.598682,269.220984 223.715964,260.649019 233.431561,250.540212 C237.554163,241.604411 238.139572,231.280214 238.024139,225.065903 L234.981659,225.065903 L234.981659,225.065903 Z M104.075322,225.065903 L96.0005198,225.065903 C92.7436646,226.561994 88.3654619,227.755375 82.4563999,227.959123 C66.6668364,228.526706 55.9535694,230.802861 55.8491302,230.817415 C54.5876142,231.091019 53.3563305,230.238189 53.0952324,228.913827 C52.845128,227.577823 53.647661,226.300033 54.9119255,226.026428 C55.0933199,225.9915 57.0446846,225.578183 60.3812434,225.065903 L48.9808762,225.065903 C47.6176693,234.228737 43.283441,241.13288 36.7010207,245.219481 C37.3771274,245.999544 38.0752212,246.759233 38.7678183,247.527654 L39.1553428,247.248228 C49.2612131,240.000624 60.7083031,231.786673 76.9705915,231.786673 C90.5009695,231.786673 98.9000828,228.614027 104.075322,225.065903 L104.075322,225.065903 Z M252.703349,225.065903 L252.585167,225.65095 L252.936963,225.065903 L252.703349,225.065903 Z M116.000634,283.166073 C113.727706,274.535894 117.938256,262.01704 130.369274,254.757794 C142.330315,247.772151 145.969198,233.439941 147.063061,225.065903 L144.127769,225.065903 C141.989513,239.98316 133.343044,247.021195 125.600798,253.314094 C115.838478,261.25153 107.400887,268.077085 109.522652,288.600321 L109.607853,289.162083 C113.392401,289.991628 117.240162,290.623246 121.12915,291.118063 C118.683073,289.226118 116.891115,286.548288 116.000634,283.166073 L116.000634,283.166073 Z M122.742461,249.448705 C130.256589,243.336268 137.402432,237.503257 139.403268,225.065903 L133.365031,225.065903 C131.064619,233.60585 123.687911,247.009552 100.332,254.588974 C86.6944341,259.013214 74.7498836,264.776369 66.0127169,270.824771 C67.0626061,271.505871 68.1344825,272.149133 69.2036104,272.804037 C73.1640562,271.433104 77.4845425,271.07509 81.3817751,272.507147 C84.6551206,273.706349 88.6650376,276.587926 90.4817306,283.387285 C95.1375219,285.19482 99.9252363,286.714197 104.803648,287.980345 C102.868774,265.67286 112.952657,257.400695 122.742461,249.448705 L122.742461,249.448705 Z M44.2591234,225.065903 L36.4838971,225.065903 C36.9511252,226.777385 36.6597947,228.643134 35.5741763,230.386634 C34.3346475,232.377542 32.0012551,234.222916 28.9422848,235.43376 C30.4401634,237.497435 31.9875131,239.508718 33.5843341,241.476341 C40.9747842,237.250027 43.4428483,229.688069 44.2591234,225.065903 L44.2591234,225.065903 Z M79.8426705,277.123492 C78.5344317,276.64614 77.11076,276.462767 75.6486107,276.503516 C78.5041993,278.037447 81.3982655,279.504432 84.3610417,280.828793 C83.2341973,279.062008 81.7280736,277.816235 79.8426705,277.123492 L79.8426705,277.123492 Z M31.6741954,227.708804 C32.2623532,226.765742 32.0122487,226.33205 31.9215515,226.169052 C31.7236666,225.822681 31.2976645,225.435559 30.5995706,225.065903 L22.0630372,225.065903 C23.3382953,227.176149 24.6575278,229.251467 26.0317282,231.280214 C28.8488392,230.439026 30.8661655,229.006969 31.6741954,227.708804 Z M203.380545,249.568043 C203.924729,250.249144 205.584763,252.324462 210.432942,250.02211 C219.475181,245.723029 222.630345,234.831249 219.90668,227.368254 C219.596111,226.515423 219.211335,225.758645 218.785332,225.065903 L212.05175,225.065903 C215.819808,227.601109 216.982381,230.954217 217.301196,233.003339 C217.933328,236.993887 216.344752,241.319164 213.354492,243.732121 C212.334835,244.550024 210.869938,244.357918 210.086643,243.283876 C209.300601,242.215655 209.492989,240.678813 210.512646,239.85509 C212.156189,238.530728 213.046671,236.036272 212.700373,233.795045 C212.282616,231.123037 210.259793,229.059362 206.857272,227.836874 C206.024507,227.539984 205.12578,228.110478 204.188575,229.548356 C201.027914,234.377182 200.030244,245.373747 203.380545,249.568043 L203.380545,249.568043 Z M128.489367,225.065903 L122.96783,225.065903 C118.988145,232.013706 110.550554,241.534555 93.5104685,244.212384 C81.3982655,246.11015 65.8945357,253.142364 54.2083348,262.188771 C56.6571601,264.179679 59.1609534,266.089088 61.7334566,267.908266 C72.2158579,260.302647 86.378368,253.998105 98.9550508,249.914415 C119.120069,243.371196 126.092762,232.406649 128.489367,225.065903 Z M202.883085,259.010304 C206.576935,261.629919 211.043087,261.385422 216.16061,258.27099 C230.966246,249.265332 231.757785,234.560555 230.383585,225.065903 L224.034778,225.065903 L224.260147,225.616022 C227.731378,235.128138 224.161205,248.87239 212.351326,254.478368 C205.326413,257.814012 201.475903,254.795633 199.804875,252.705761 C195.030903,246.718483 196.130263,233.218729 200.34631,226.777385 C200.775061,226.11666 201.239541,225.56654 201.723259,225.065903 L200.241871,225.065903 C197.894737,227.69134 196.286922,231.428659 195.652042,235.980969 C194.36579,245.248588 197.468735,255.162379 202.883085,259.010304 Z M117.358344,225.065903 L111.408056,225.065903 C106.268546,230.523436 96.2093982,236.679533 76.9705915,236.679533 C62.305124,236.679533 51.5643731,244.273509 42.0933834,251.067046 C44.8033068,253.864214 47.6066757,256.559507 50.5254775,259.106356 C63.0361987,249.157637 79.8014445,241.415217 92.8233683,239.369005 C106.043177,237.287866 113.386904,230.700987 117.358344,225.065903 L117.358344,225.065903 Z" id="Shape" fill="#9B481A" fill-rule="nonzero"></path>
                            <path d="M21.6960493,225.065903 L253.303951,225.065903 C256.69222,219.461009 259.736433,213.592562 262.39255,207.495702 L12.6074499,207.495702 C15.2635669,213.592562 18.3050274,219.461009 21.6960493,225.065903 Z" id="Path" fill="#A34A1B" fill-rule="nonzero"></path>
                            <path d="M234.025788,195.782235 L234.025788,198.710602 C234.025788,203.559977 230.337073,207.495702 225.785919,207.495702 L50.0020467,207.495702 C45.4508923,207.495702 41.7621777,203.559977 41.7621777,198.710602 L41.7621777,195.782235 L234.025788,195.782235 Z" id="Path" fill="#F3F3F3" fill-rule="nonzero"></path>
                            <path d="M125.483524,193.272206 L150.304441,193.272206 C152.587966,193.272206 154.441261,195.146361 154.441261,197.455587 C154.441261,199.764814 152.587966,201.638968 150.304441,201.638968 L125.483524,201.638968 C123.2,201.638968 121.346705,199.764814 121.346705,197.455587 C121.346705,195.146361 123.2,193.272206 125.483524,193.272206 Z" id="Path" fill="#D5D5D5" fill-rule="nonzero"></path>
                            <path d="M66.1609701,81.9942693 L208.83903,81.9942693 C211.868195,81.9942693 214.326648,84.6055573 214.326648,87.8295496 L214.326648,195.782235 L60.6733524,195.782235 L60.6733524,87.8295496 C60.6733524,84.6055573 63.1318052,81.9942693 66.1609701,81.9942693 Z" id="Path" fill="#36434F" fill-rule="nonzero"></path>
                            <polygon id="Path" fill="#465765" fill-rule="nonzero" points="68.5530086 90.3610315 206.446991 90.3610315 206.446991 186.578797 68.5530086 186.578797"></polygon>
                            <path d="M104.677477,174.86533 L170.624782,174.86533 C175.177894,174.86533 178.868195,178.795198 178.868195,183.65043 L178.868195,186.578797 L96.1318052,186.549513 L96.4340636,183.65043 C96.4340636,178.795198 100.124365,174.86533 104.677477,174.86533 Z" id="Path" fill="#7E8A94" fill-rule="nonzero"></path>
                            <path d="M112.679083,169.008596 C115.723782,169.008596 118.194842,171.629484 118.194842,174.86533 C118.194842,178.098246 115.723782,180.722063 112.679083,180.722063 C109.634384,180.722063 107.163324,178.098246 107.163324,174.86533 C107.163324,171.629484 109.634384,169.008596 112.679083,169.008596 Z" id="Path" fill="#E4E7E7" fill-rule="nonzero"></path>
                            <path d="M129.226361,169.008596 C132.27106,169.008596 134.74212,171.629484 134.74212,174.86533 C134.74212,178.098246 132.27106,180.722063 129.226361,180.722063 C126.181662,180.722063 123.710602,178.098246 123.710602,174.86533 C123.710602,171.629484 126.181662,169.008596 129.226361,169.008596 Z" id="Path" fill="#EFC75E" fill-rule="nonzero"></path>
                            <path d="M145.773639,169.008596 C148.818338,169.008596 151.289398,171.629484 151.289398,174.86533 C151.289398,178.098246 148.818338,180.722063 145.773639,180.722063 C142.72894,180.722063 140.25788,178.098246 140.25788,174.86533 C140.25788,171.629484 142.72894,169.008596 145.773639,169.008596 Z M162.320917,169.008596 C165.365616,169.008596 167.836676,171.629484 167.836676,174.86533 C167.836676,178.098246 165.365616,180.722063 162.320917,180.722063 C159.276218,180.722063 156.805158,178.098246 156.805158,174.86533 C156.805158,171.629484 159.276218,169.008596 162.320917,169.008596 Z" id="Shape" fill="#E4E7E7" fill-rule="nonzero"></path>
                            <g id="Group" stroke-width="1" fill="none" fill-rule="evenodd" transform="translate(22.063037, 225.065903)">
                                <path d="M164.442702,8.36676218 L169.24433,8.36676218 C169.859994,5.206915 170.90992,2.39010506 172.363876,0 L167.556751,0 C166.421621,2.40683859 165.297485,5.24595989 164.442702,8.36676218 L164.442702,8.36676218 Z M184.792589,2.64110793 C183.959794,2.35663801 183.061035,2.90326648 182.123797,4.28099331 C181.381702,5.36588348 180.774284,6.79102197 180.298793,8.36676218 L190.635898,8.36676218 L190.635898,8.35002865 C190.218127,5.78979943 188.19798,3.81245463 184.792589,2.64110793 L184.792589,2.64110793 Z M174.02397,8.36676218 L175.477926,8.36676218 C176.107332,5.77864374 177.058313,3.41642789 178.281395,1.6287297 C178.707412,1.00122254 179.16916,0.474116523 179.650148,0 L178.171455,0 C176.217272,2.09726839 174.815538,4.95591213 174.02397,8.36676218 Z M202.196086,0.518739255 C203.111336,2.92 203.520862,5.6113085 203.435659,8.36676218 L208.701783,8.36676218 C208.89143,5.34914995 208.693538,2.48492837 208.316993,0 L201.970709,0 L202.196086,0.518739255 L202.196086,0.518739255 Z M195.236886,7.59423114 L195.308347,8.36676218 L198.743971,8.36676218 C198.842917,6.19977077 198.56257,4.08019102 197.842463,2.19488061 C197.531883,1.38330468 197.149841,0.658185291 196.726573,0 L189.998247,0 C193.758193,2.42914995 194.91806,5.63361987 195.236886,7.59423114 Z M3.96058722,5.94319007 C6.77505031,5.13719198 8.79519716,3.76504298 9.6032559,2.52118434 C10.1914347,1.61757402 9.94132129,1.20202483 9.85062082,1.04584527 C9.65272889,0.719541547 9.22946002,0.348615091 8.53958674,0 L-0.00274849911,0 C1.26980659,2.01638968 2.58908616,3.99931232 3.96058722,5.94319007 L3.96058722,5.94319007 Z M95.2822188,0 L89.3317182,0 C86.4018181,2.97856734 81.8612976,6.16630372 74.9488223,8.36676218 L86.0472617,8.36676218 C90.2469684,5.81211079 93.2290899,2.78892073 95.2822188,0 Z M22.1886333,0 L14.4158778,0 C14.8776257,1.63430755 14.5890333,3.42200573 13.5033761,5.0869914 C12.7282994,6.27507163 11.4859778,7.39621777 9.94956679,8.36676218 L19.0745838,8.36676218 C20.8611083,5.37703916 21.7598675,2.30922636 22.1886333,0 Z M81.9932255,0 L73.9098897,0 C70.6529182,1.42792741 66.2855531,2.56580707 60.387274,2.76103152 C44.5971466,3.30487106 33.8834971,5.48580707 33.7790541,5.49975167 C32.517493,5.76191022 31.2861654,4.94475645 31.025058,3.67579752 C30.7749446,2.3956829 31.5775063,1.1713467 32.8418159,0.909188157 C33.0232168,0.875721108 34.9581602,0.485272206 38.2591077,0 L26.9105548,0 C26.432316,3.0678128 25.5747842,5.85115568 24.4011751,8.36676218 L41.3319297,8.36676218 C45.4794148,7.16194842 49.9649654,6.42846227 54.9012698,6.42846227 C68.4238854,6.42846227 76.8150532,3.39411652 81.9932255,0 L81.9932255,0 Z M145.84086,8.36676218 L151.310373,8.36676218 C152.035977,5.33799427 152.841287,2.48492837 153.619112,0 L148.014923,0 C147.272828,2.51560649 146.505997,5.38819484 145.84086,8.36676218 Z M215.608761,8.36676218 C215.935833,5.19575931 216.007294,2.29807068 215.960569,0 L212.917981,0 C213.165346,1.87973257 213.324759,3.92122254 213.324759,6.08542502 C213.324759,6.83285578 213.297274,7.59423114 213.258795,8.36676218 L215.608761,8.36676218 Z M225.846921,0 L220.655006,0 C220.704479,2.32595989 220.619275,5.21807068 220.319689,8.36676218 L224.343492,8.36676218 C224.717287,5.68103152 225.173538,2.92557784 225.846921,0 Z M93.9519452,8.36676218 L101.79891,8.36676218 C104.146128,5.37146132 105.572599,2.46819484 106.419137,0 L100.894654,0 C99.3445004,2.59369628 97.1017252,5.55553009 93.9519452,8.36676218 Z M230.637555,2.22044605e-16 L230.522118,0.549417383 L230.868429,2.22044605e-16 L230.637555,2.22044605e-16 Z M107.532279,8.36676218 L114.659138,8.36676218 C115.857483,5.94319007 116.794721,3.21283668 117.336176,0 L111.297723,0 C110.602353,2.45703916 109.436989,5.34357211 107.532279,8.36676218 Z M128.080059,8.36676218 L133.71723,8.36676218 C134.453828,5.16508118 135.193174,2.33153773 135.863808,0 L129.720913,0 C129.429572,2.37616046 128.923848,5.26827125 128.080059,8.36676218 Z M138.521607,8.36676218 L141.036483,8.36676218 C141.685129,5.32683859 142.43547,2.45703916 143.141834,0 L140.736897,0 C140.066263,2.25065903 139.299432,5.09256925 138.521607,8.36676218 Z M119.771346,8.36676218 L123.171239,8.36676218 C124.10298,5.29337154 124.666423,2.39010506 124.993494,0 L122.058097,0 C121.585355,3.13195798 120.791039,5.88183381 119.771346,8.36676218 Z M156.133989,8.36676218 L159.79499,8.36676218 C160.550827,5.32126074 161.532041,2.49050621 162.57922,0 L158.536177,0 C157.750107,2.41799427 156.906317,5.29337154 156.133989,8.36676218 Z" id="Shape" fill="#88411A" fill-rule="nonzero"></path>
                            </g>
                            <g id="Group" stroke-width="1" fill="none" fill-rule="evenodd" transform="translate(12.607450, 207.495702)">
                                <path d="M89.8832378,-7.10551409e-14 L80.0668314,-7.10551409e-14 C76.170558,2.28705444 71.5583614,4.40426361 66.0264791,6.1934957 C56.061381,9.40884241 46.9856796,13.3328539 39.3886347,17.5584871 L73.7143912,17.5584871 C77.241689,10.2434269 82.9800875,5.59318052 88.6138512,1.0395702 L89.8832378,-7.10551409e-14 L89.8832378,-7.10551409e-14 Z M117.955682,11.8042464 C118.302629,7.60496848 118.759719,3.67802865 119.280139,-2.84225768e-14 L109.796913,-2.84225768e-14 C107.043363,4.088 103.41969,7.84802292 98.5844564,10.6563266 C95.2058503,12.6183324 92.556935,15.0020229 90.5606112,17.5584871 L117.427,17.5584871 C117.605981,15.7633983 117.784962,13.8804585 117.955682,11.8042464 L117.955682,11.8042464 Z M138.141958,12.0063037 C137.291111,8.36341547 137.158941,4.23441834 137.415021,-2.84225768e-14 L132.205304,-2.84225768e-14 C132.152987,3.9474384 132.676161,7.31506017 134.146557,9.37370201 C134.920304,10.4601261 134.708281,11.9975186 133.667439,12.8116046 C132.626597,13.6169054 131.156201,13.3943496 130.3797,12.3079255 C128.26222,9.34441834 127.513255,4.91965616 127.54079,-2.84225768e-14 L124.038274,-2.84225768e-14 C123.484811,3.80394842 122.994679,7.87144986 122.633964,12.2230029 C122.477011,14.1117994 122.317305,15.8658911 122.146585,17.5584871 L138.03457,17.5584871 C138.667886,16.2787908 138.753246,14.6301203 138.141958,12.0063037 L138.141958,12.0063037 Z M64.6386898,1.50518052 C66.1145927,1.0307851 67.502382,0.521249284 68.8406074,-2.84225768e-14 L44.2018404,-2.84225768e-14 C33.8071885,4.03821777 23.0545751,10.340063 15.0389905,17.5584871 L30.0238106,17.5584871 C40.2202069,10.8261719 53.0875468,5.2329914 64.6386898,1.50518052 Z M0.709515413,1.40268768 L2.72236059,-2.90887106e-14 L0.109241475,-2.90887106e-14 L0.709515413,1.40268768 Z M96.2990097,6.36626934 C99.2866117,4.62681948 101.753793,2.44225788 103.802434,-2.84225768e-14 L97.3233304,-2.84225768e-14 C95.3985988,1.75702006 93.4187962,3.35590831 91.4913111,4.91965616 C86.6753519,8.80852722 82.1870651,12.4514155 79.1003353,17.5584871 L84.844241,17.5584871 C87.311422,13.3562808 91.075525,9.39712894 96.2990097,6.36626934 Z M32.573598,-7.10551409e-14 L11.0959067,-7.10551409e-14 C9.70536383,0.960504298 8.34511005,1.93272206 7.01239176,2.88151289 C5.60257407,3.88887106 4.20927769,4.85523209 2.8159813,5.80987966 C4.68564187,9.61968481 6.70950124,13.3240688 8.88205233,16.9288883 C15.231739,10.4776963 23.6906452,4.58582235 32.573598,-7.10551409e-14 L32.573598,-7.10551409e-14 Z M212.391439,-2.84225768e-14 L206.160155,-2.84225768e-14 C204.626427,4.38083668 202.451123,8.68260745 199.345118,12.439702 C198.141816,13.8980287 197.150538,15.6609054 196.277663,17.5584871 L215.172524,17.5584871 C213.630536,12.3606361 212.600708,6.56539828 212.391439,-2.84225768e-14 L212.391439,-2.84225768e-14 Z M245.183468,9.93594842 C246.510679,7.44097994 247.747023,4.87865903 248.933803,2.28998281 C248.862211,1.52275072 248.829168,0.758446991 248.829168,0.00292836676 L243.035699,0.00292836676 C243.220186,3.0308596 243.894806,6.38383954 245.183468,9.93594842 L245.183468,9.93594842 Z M233.205524,17.5584871 L240.879669,17.5584871 L242.195866,15.2304355 C239.687382,9.76903152 238.514369,4.61510602 238.285824,-2.84225768e-14 L228.428115,-2.84225768e-14 C228.711731,5.54925501 230.454728,11.6548997 233.205524,17.5584871 Z M152.978087,17.5584871 C149.197462,11.7808195 147.429683,5.79230946 146.958826,-2.84225768e-14 L142.126345,-2.84225768e-14 C141.864758,3.87130086 141.955625,7.61375358 142.707344,10.8320287 C143.346168,13.581765 143.37095,15.7633983 142.993714,17.5584871 L152.978087,17.5584871 L152.978087,17.5584871 Z M223.656212,-2.84225768e-14 L217.042185,-2.84225768e-14 C217.256962,6.62396562 218.369396,12.4104183 220.043555,17.5584871 L227.89668,17.5584871 C225.396456,11.6783266 223.876496,5.65760458 223.656212,-2.84225768e-14 Z M191.178088,17.5584871 C192.378636,14.3782808 193.890335,11.5348367 195.790285,9.23606877 C198.086745,6.45119198 199.802207,3.28269914 201.101883,-2.89096004e-14 L198.425432,-2.89096004e-14 C195.848109,5.20956447 191.690248,10.1702178 185.136799,14.132298 C176.600793,19.297937 170.430088,17.2832206 166.756852,14.6857593 C162.571455,11.7222521 159.520522,6.29013181 158.069401,-0.00292836676 L151.595804,-0.00292836676 C152.187818,5.81866476 154.302544,11.8481719 158.873437,17.5555587 L191.178088,17.5555587 L191.178088,17.5584871 Z M166.288748,4.30762751 C165.34428,3.13042407 164.633864,1.64867049 164.127211,-2.93107552e-14 L162.93217,-2.93107552e-14 C164.185036,4.60339255 166.429179,8.52740401 169.391999,10.627043 C173.117553,13.2567163 177.616853,13.0107335 182.777007,9.88909456 C187.47181,7.0397937 190.765056,3.63117479 193.036734,-2.93107552e-14 L186.747626,-2.93107552e-14 C184.72652,2.45397135 182.14369,4.56532378 178.938558,6.08514613 C171.856427,9.43226934 167.973921,6.40726648 166.288748,4.30762751 L166.288748,4.30762751 Z M177.002812,1.61353009 C177.969308,1.15670487 178.828416,0.588601719 179.659988,-2.88944216e-14 L169.2378,-2.88944216e-14 C169.44707,0.395329513 169.637065,0.828727794 169.895899,1.15670487 C170.443855,1.84194269 172.112507,3.92401146 177.002812,1.61353009 L177.002812,1.61353009 Z" id="Shape" fill="#AC5C32" fill-rule="nonzero"></path>
                            </g>
                        </g>
                    </g>
                </g>
            </g>
        </g>
    </g>
</svg>