<?xml version="1.0" encoding="utf-8"?><svg width="31.43" height="32" xmlns="http://www.w3.org/2000/svg" xmlns:xlink="http://www.w3.org/1999/xlink" viewBox="0 0 220 224"><defs><path d="M82.7 224C128.376 224 220 115.06 220 53.325 220-8.41 128.375.439 82.7.439 37.027.44 0 50.485 0 112.22 0 173.955 37.026 224 82.7 224z" id="ra"/></defs><g fill="none" fill-rule="evenodd"><mask id="rb" fill="#fff"><use xlink:href="#ra"/></mask><use fill="#2394BC" xlink:href="#ra"/><g mask="url(#rb)" fill-rule="nonzero"><path d="M98 7c54.123 0 98 43.877 98 98s-43.877 98-98 98-98-43.877-98-98S43.877 7 98 7z" fill="#2394BC"/><path d="M30.909 68.6l100.128-26.853c3.16-.85 6.404 1.007 7.242 4.143l19.766 73.835c.842 3.138-1.04 6.367-4.2 7.216l-100.13 26.854c-3.158.847-6.403-1.01-7.241-4.146L26.708 75.813c-.84-3.137 1.042-6.367 4.201-7.214z" fill="#EDEDED"/><path d="M38.713 74.073l87.751-23.54a4.537 4.537 0 015.562 3.206l16.425 61.365a4.541 4.541 0 01-3.216 5.56l-87.751 23.54a4.536 4.536 0 01-5.561-3.208L35.499 79.633a4.543 4.543 0 013.214-5.56z" fill="#4681A0"/><path d="M49.308 68.05h103.81c3.276 0 5.931 2.613 5.931 5.837v75.884c0 3.222-2.655 5.836-5.93 5.836H49.308c-3.277 0-5.931-2.614-5.931-5.836V73.887c0-3.226 2.654-5.838 5.93-5.838z" fill="#F6F6F6"/><path d="M55.17 75.279h91.284a4.566 4.566 0 014.562 4.568v63.963a4.564 4.564 0 01-4.562 4.567H55.171a4.566 4.566 0 01-4.564-4.567V79.85a4.565 4.565 0 014.564-4.571z" fill="#A3E0F5"/><path d="M59.302 126.689c-2.731 0-5.366.228-7.892.616v16.517a4.556 4.556 0 004.557 4.555H90.34c.257-.965.43-1.948.43-2.959.002-10.343-14.087-18.73-31.468-18.73z" fill="#3DB39E"/><path d="M151.016 143.85v-24.38c-6.124-1.56-12.852-2.42-19.908-2.42-28.489 0-51.583 14.026-51.583 31.327h66.908c2.532 0 4.583-2.026 4.583-4.527z" fill="#4BC2AD"/><path d="M50.607 79.794V102.4c.96.115 1.931.191 2.923.191 13.468 0 24.388-10.915 24.388-24.38 0-.993-.078-1.97-.193-2.931H55.132a4.52 4.52 0 00-4.525 4.515z" fill="#EFC75E"/><path d="M152.502 155.718H49.168c-3.262 0-5.903-2.621-5.903-5.854V73.733c0-.584.113-1.136.273-1.667-2.413.736-4.177 2.938-4.177 5.571v76.131c0 3.233 2.643 5.855 5.903 5.855h103.334a5.877 5.877 0 005.632-4.19c-.551.168-1.123.285-1.728.285z" fill="#1F85A9"/><path d="M43.114 137.934V73.738c0-.585.11-1.14.263-1.672-2.32.738-4.016 2.947-4.016 5.59v45.66l3.753 14.618z" fill="#D5D5D5"/><path d="M40.515 73.424a5.84 5.84 0 00-1.958 4.36v15.692l3.915 14.737V73.834c0-.331.041-.651.102-.965l-2.06.555z" fill="#3F7490"/></g></g></svg>