<svg width="102px" height="121px" viewBox="0 0 102 121" version="1.1" xmlns="http://www.w3.org/2000/svg" xmlns:xlink="http://www.w3.org/1999/xlink">
    <title>Toilet Bowl</title>
    <desc>An illstration of a toilet.</desc>
    <g id="clients" stroke="none" stroke-width="1" fill="none" fill-rule="evenodd">
        <g id="3" transform="translate(-1223.000000, -1392.000000)" fill="#000000" fill-rule="nonzero">
            <g id="client-logos" transform="translate(428.000000, 1392.000000)">
                <g id="client-toilet" transform="translate(721.000000, 0.000000)">
                    <g id="toilet" class="toilet-logo" transform="translate(74.489796, 0.000000)">
                        <path d="M27.4710259,19.9023439 L27.6006791,20.6223721 C27.604608,20.6502262 27.6281813,20.6627605 27.6373487,20.6878292 C27.6452065,20.7073271 27.6373487,20.7282176 27.6478258,20.7463228 L28.0655972,21.4315334 C28.0800031,21.4566021 28.1035764,21.4677437 28.1219112,21.4872416 C28.129769,21.4942051 28.1284594,21.5081321 28.1363171,21.5150957 L28.8461357,22.1153513 C28.8579223,22.1264929 28.8736379,22.1223148 28.8867342,22.1306711 C28.8972112,22.1390273 28.8998304,22.154347 28.9116171,22.1599178 L29.8453821,22.6236884 C29.859788,22.630652 29.8741939,22.6292593 29.8885998,22.6348301 C29.895148,22.6362228 29.8964576,22.644579 29.9030058,22.6459717 L30.9834491,22.9370469 C30.997855,22.9412251 31.012261,22.9412251 31.0266669,22.9426178 C31.0292861,22.9440105 31.0305957,22.9467959 31.033215,22.9467959 L32.2249768,23.0665685 C32.2354538,23.0679612 32.2446212,23.0679612 32.2550982,23.0679612 C32.2603368,23.0679612 32.2668849,23.0679612 32.2721234,23.0679612 L33.4638852,22.9997186 C33.4665045,22.9997186 33.4665045,22.9969332 33.4691237,22.9969332 C33.4861489,22.9955405 33.503174,22.9941478 33.5201992,22.9899697 L34.6333833,22.7156069 C34.6386218,22.7142142 34.6399314,22.7072507 34.64517,22.705858 C34.6582662,22.7016799 34.6726722,22.7030726 34.6844588,22.6975018 L35.6509645,22.2685488 C35.6614415,22.262978 35.6640608,22.2490509 35.6745378,22.2434801 C35.6889437,22.2351239 35.7059689,22.2379093 35.7190652,22.2267677 L36.4590052,21.6446172 C36.4747207,21.6320828 36.4734111,21.6111923 36.4865074,21.5972652 C36.4969844,21.5847309 36.5140096,21.5903017 36.5244866,21.5763747 L37.0077395,20.9078765 C37.0182165,20.8925568 37.0116684,20.8744516 37.0208358,20.8577392 C37.033932,20.8326705 37.0561957,20.8201361 37.0627439,20.792282 L37.2565689,20.0722538 C37.2604977,20.0541487 37.2487111,20.0402216 37.2513304,20.0221165 C37.2539496,20.0040113 37.2696651,19.9928697 37.2696651,19.9761572 L37.2696651,19.5653094 C37.2696651,19.5527751 37.2591881,19.5458115 37.2578785,19.5346699 C37.2565689,19.5235283 37.2657363,19.5137793 37.2644266,19.5026377 L37.1347734,18.765897 C37.1308445,18.7394356 37.1072712,18.7296867 37.0981038,18.7060107 C37.0902461,18.6823348 37.0981038,18.6572661 37.0850076,18.6349828 L36.6502109,17.9497722 C36.6397339,17.9330597 36.6200895,17.9330597 36.6083028,17.9205254 C36.5965162,17.9052057 36.5978258,17.8843151 36.5821103,17.8717808 L35.8893169,17.2882376 C35.8788399,17.2798813 35.8644339,17.2840595 35.8526473,17.2770959 C35.8421703,17.2687397 35.839551,17.25342 35.8277643,17.2478491 L34.8926897,16.7687588 C34.8809031,16.763188 34.8691164,16.7715442 34.8573298,16.7659734 C34.8468527,16.7617953 34.8416142,16.7478682 34.8298276,16.7450828 L33.7336686,16.4526149 C33.7231916,16.4498295 33.7153338,16.4581857 33.7061664,16.456793 C33.696999,16.4554003 33.6917605,16.4442587 33.6812835,16.442866 L32.5052373,16.3411985 C32.4973795,16.3398058 32.4908313,16.3495548 32.4829736,16.3481621 C32.4738062,16.3481621 32.4698773,16.3398058 32.4607099,16.3398058 L31.2689481,16.4080483 C31.2571615,16.409441 31.2519229,16.4205827 31.2414459,16.4233681 C31.2309689,16.4247608 31.2231111,16.4150119 31.2126341,16.4177973 L30.1007596,16.6921601 C30.0915922,16.6949455 30.088973,16.7046944 30.0798056,16.7074798 C30.0706382,16.7102652 30.0614708,16.7033017 30.0523034,16.7074798 L29.0857977,17.1183276 C29.0713918,17.1252912 29.0674629,17.1433963 29.0556762,17.1489671 C29.0425799,17.1573234 29.028174,17.1503598 29.0163874,17.1601088 L28.2581126,17.7436519 C28.2437066,17.7547936 28.2450163,17.7728987 28.2332296,17.7854331 C28.2201333,17.7993601 28.2017985,17.7979674 28.1900119,17.8132872 L27.706759,18.4803926 C27.6923531,18.5012832 27.6989013,18.5263519 27.6897339,18.5500278 C27.6792568,18.5723111 27.6556835,18.58206 27.6491354,18.6071287 L27.4723356,19.3438694 C27.4684067,19.3591891 27.4801933,19.3731162 27.4775741,19.3870432 C27.4762644,19.4037557 27.4618585,19.4135046 27.4618585,19.4288244 L27.4618585,19.8396722 C27.4618585,19.8522065 27.4723356,19.85917 27.4736452,19.8703117 C27.4749548,19.8814533 27.4684067,19.8898095 27.4710259,19.9023439 Z M32.4449944,17.6336283 L33.2648217,17.7144051 L33.9942847,17.9205254 L34.6137389,18.2352766 L35.0747281,18.6071287 L35.3130804,18.9929079 L35.3838003,19.3814724 L35.2895071,19.783964 L35.2751012,19.8034619 L35.0786569,19.5263137 C35.0734184,19.5193502 35.0629414,19.5207429 35.0577029,19.5123866 C35.0524644,19.5054231 35.0550836,19.4956742 35.0485355,19.4887107 L34.7591076,19.1795303 C34.7551787,19.1739594 34.747321,19.1767448 34.7420825,19.171174 C34.7381536,19.1669959 34.7394632,19.1600324 34.7342247,19.1558543 L34.3793154,18.8466739 C34.3753865,18.8424958 34.3688384,18.8452812 34.3635999,18.8411031 C34.3583614,18.836925 34.359671,18.8299614 34.3544325,18.8257833 L33.9680921,18.5514205 C33.961544,18.5458497 33.9523766,18.5514205 33.9458284,18.5472424 C33.9392803,18.5416716 33.9392803,18.5333154 33.9314225,18.5291373 L33.4796007,18.2895921 C33.4756719,18.2868067 33.4704333,18.2909848 33.4665045,18.2881994 C33.4612659,18.2868067 33.4612659,18.2798432 33.4560274,18.2770578 L32.9727746,18.0723302 C32.9701553,18.0709375 32.9675361,18.0737229 32.9636072,18.0723302 C32.9609879,18.0709375 32.9609879,18.0681521 32.9583687,18.0667594 L32.4436847,17.880137 C32.4384462,17.8773516 32.4318981,17.8829224 32.4266596,17.8815297 C32.421421,17.880137 32.4188018,17.8717808 32.4122536,17.870388 L31.864829,17.7325103 C31.8622097,17.7325103 31.8609001,17.733903 31.8582809,17.733903 C31.8569712,17.7325103 31.8556616,17.7297249 31.8530423,17.7297249 L31.6238574,17.6809802 L32.4449944,17.6336283 Z M31.1825126,18.2979483 L31.7207699,18.4121501 L32.2433116,18.544457 L32.7304933,18.7227232 L33.207198,18.926058 L33.6171117,19.1433199 L33.9811884,19.4037557 L34.3020473,19.6822966 L34.5679019,19.9650156 L34.7853002,20.2728033 L34.8114928,20.3229406 L34.5312323,20.5415952 L33.8633218,20.8243142 L33.1129048,21.0179002 L32.2760523,21.0652521 L31.4614635,20.9844753 L30.7189042,20.7769623 L30.1086174,20.4817089 L29.6620341,20.0973225 L29.405347,19.7004017 L29.3359367,19.317408 L29.4302299,18.9177018 L29.7275156,18.5347081 L30.1465966,18.2074225 L30.599728,18.2338839 L31.1825126,18.2979483 Z M28.2685896,18.8452812 L28.6824321,18.2728796 L29.3647485,17.7464373 L30.2788691,17.3592655 L30.3522083,17.3411603 L29.9226502,17.5277827 C29.9082443,17.5347463 29.905625,17.5514587 29.8925287,17.5584222 C29.8807421,17.5667785 29.8650265,17.5598149 29.8532399,17.5695639 L29.3045056,17.9985169 C29.2927189,18.0082658 29.2927189,18.0263709 29.2822419,18.0361199 C29.2717649,18.0472615 29.2547397,18.0458688 29.2442627,18.0584032 L28.8749475,18.5374935 C28.859232,18.5583841 28.8657801,18.5848454 28.8539935,18.6085214 C28.8422068,18.6335901 28.8160142,18.6447317 28.8094661,18.6739785 L28.6798129,19.2240968 C28.675884,19.2394166 28.6876707,19.2533436 28.686361,19.2672706 C28.6850514,19.2825904 28.6706455,19.2923393 28.6706455,19.3076591 L28.6706455,19.4441441 C28.6706455,19.4566785 28.6811225,19.463642 28.6824321,19.4747836 C28.6837418,19.4859252 28.6745744,19.4970669 28.675884,19.5082085 L28.7714869,20.0402216 C28.7767254,20.0694684 28.8002987,20.0861809 28.8120853,20.1126423 C28.8199431,20.1321401 28.8120853,20.1544234 28.823872,20.1725286 L29.1460406,20.6683313 C29.1591369,20.6892219 29.1787813,20.6975781 29.1944968,20.7142906 C29.2023546,20.7212541 29.1997353,20.7351812 29.2089027,20.7421447 L29.7262059,21.1878101 C29.7393022,21.1989518 29.757637,21.1961663 29.7720429,21.2059153 C29.7825199,21.2128788 29.7851392,21.2295913 29.7982355,21.2351621 L30.4753133,21.5596622 C30.4857904,21.565233 30.497577,21.5638403 30.508054,21.5680184 C30.5132926,21.5694111 30.5146022,21.5763747 30.5198407,21.5777674 L31.3095466,21.8187052 C31.3305006,21.8256688 31.3501451,21.8256688 31.3697895,21.8284542 C31.3724087,21.8284542 31.3724087,21.8312396 31.375028,21.8312396 L32.2459308,21.8994821 C32.2537886,21.9008748 32.2616464,21.9008748 32.2695042,21.9008748 C32.2747427,21.9008748 32.2812908,21.9008748 32.287839,21.9008748 L33.1744573,21.8493447 C33.175767,21.8493447 33.1770766,21.8465593 33.1796959,21.8465593 C33.1954114,21.8451666 33.2111269,21.8451666 33.2268425,21.8409885 L34.0322639,21.6529734 C34.0375024,21.6515807 34.0401217,21.6446172 34.0453602,21.6432245 C34.0597661,21.6390464 34.0754816,21.6404391 34.0898875,21.6334756 L34.8154216,21.3075827 C34.8272083,21.3020119 34.8285179,21.2866921 34.8403046,21.2811213 C34.8534009,21.2727651 34.8691164,21.2755505 34.8822127,21.2658016 L35.4296373,20.8368486 C35.4374951,20.8312778 35.4361855,20.8201361 35.4427336,20.8131726 C35.4558299,20.8006383 35.4649973,20.792282 35.4754743,20.7797477 C35.4794032,20.7741769 35.487261,20.7769623 35.4924995,20.7713915 L35.8474088,20.2923011 C35.8591954,20.2755887 35.8526473,20.2546981 35.8618147,20.236593 C35.8762206,20.2087389 35.9011035,20.1934191 35.9076517,20.1613869 L36.0373049,19.6112686 C36.0412338,19.5959489 36.0294471,19.5820219 36.0307567,19.5680948 C36.0320664,19.5527751 36.0464723,19.5430261 36.0464723,19.5277064 L36.0464723,19.3912213 C36.0464723,19.378687 36.0346856,19.3703308 36.0346856,19.3605818 C36.033376,19.3466548 36.043853,19.3369059 36.0412338,19.3257642 L35.9443213,18.7937511 C35.9403924,18.7686824 35.9168191,18.7575408 35.9076517,18.7352575 C35.8997939,18.7129743 35.9076517,18.690691 35.895865,18.6698004 L35.5907216,18.1739976 C35.578935,18.1558925 35.5579809,18.1544998 35.543575,18.1405727 C35.5291691,18.1266457 35.5304787,18.101577 35.5147632,18.0876499 L34.9830541,17.658697 C34.972577,17.6503407 34.9594808,17.6559116 34.9490037,17.648948 C34.9385267,17.6419845 34.9372171,17.6266648 34.9254304,17.6210939 L34.3505036,17.3300187 L34.6386218,17.4066175 L35.5134535,17.8550683 L36.1407655,18.3815106 L36.5074615,18.9608757 L36.6109221,19.5458115 L36.4550763,20.1237839 L36.0386145,20.6989708 L35.3628463,21.230984 L34.4644412,21.6292974 L33.401023,21.8744134 L32.2668849,21.956583 L31.1196505,21.8409885 L30.0955211,21.565233 L29.2233086,21.1334946 L28.5868293,20.594518 L28.23192,20.0137602 L28.1284594,19.4371806 L28.2685896,18.8452812 Z" id="Shape"></path>
                        <path d="M89.2484596,68.3600473 L89.1362028,67.4726116 C89.1349125,67.461218 89.1220094,67.4561542 89.1194288,67.4460265 C89.1168482,67.4358989 89.1271707,67.4257712 89.1220094,67.4156435 L88.822658,66.4952929 C88.8200774,66.4902291 88.8149161,66.4889632 88.8123355,66.4851653 C88.8110452,66.4801015 88.8149161,66.4750376 88.8123355,66.4699738 L88.2407291,65.1154 C88.2407291,65.1154 88.2407291,65.1154 88.2407291,65.1141341 C88.2407291,65.1141341 88.2407291,65.1141341 88.2407291,65.1128681 L88.0187961,64.5988896 C88.0123446,64.5849641 87.9955706,64.5811662 87.9891191,64.5697726 C87.9865384,64.5634429 87.9891191,64.5571131 87.9865384,64.5520492 L86.7955842,62.478412 C86.7917133,62.4708162 86.7813908,62.4708162 86.7762296,62.4632205 C86.7710684,62.4568907 86.7749393,62.4467631 86.769778,62.4404333 L84.97625,60.1503174 C84.9736694,60.1477855 84.9685082,60.1477855 84.9659275,60.1452536 C84.9646372,60.1414557 84.9659275,60.1376578 84.9633469,60.1351259 L83.4859443,58.4691268 C83.4833637,58.4665949 83.4807831,58.4678608 83.4782025,58.4653289 C83.4756219,58.462797 83.4756219,58.4577332 83.4730413,58.4552012 L82.8291776,57.8057654 L82.7582107,57.7247442 C82.7362754,57.699425 82.7027274,57.699425 82.6769213,57.6829676 L80.5698484,56.029628 C80.5646872,56.0258301 80.5569453,56.028362 80.5517841,56.0245642 C80.5453325,56.0207663 80.5466228,56.0131706 80.5401713,56.0093727 L78.3814861,54.6699904 C78.3789055,54.6687244 78.3763249,54.6699904 78.3737443,54.6687244 C78.3711637,54.6674585 78.3711637,54.6623946 78.3672927,54.6611287 L77.0176306,53.9129482 L76.2873163,53.507842 C76.2808648,53.5040442 76.2731229,53.509108 76.2666714,53.5053101 C76.2589296,53.5015122 76.2589296,53.4926505 76.2511877,53.4901186 L74.2189527,52.6647148 C74.2125012,52.6621829 74.2073399,52.6672467 74.2008884,52.6647148 C74.1944368,52.6634488 74.1944368,52.6558531 74.1879853,52.6545871 L70.0280325,51.4240771 C70.0241616,51.4228112 70.0202907,51.426609 70.0164197,51.4253431 C70.0112585,51.4240771 70.0099682,51.4190133 70.004807,51.4177473 L68.4654696,51.074673 C68.4551471,51.0721411 68.4448247,51.0810028 68.4357925,51.0797369 C68.4241797,51.0784709 68.4177282,51.0670773 68.4074057,51.0670773 L64.7713179,50.9417476 C64.7597052,50.9430135 64.7519633,50.9518752 64.7429312,50.9531412 C64.7300281,50.9544071 64.7222862,50.9442795 64.7106735,50.9455454 L63.108111,51.1949389 C63.1029498,51.1962049 63.1003692,51.2012687 63.0952079,51.2025347 C63.0900467,51.2038006 63.0861758,51.1987368 63.0810145,51.2000028 L60.9545871,51.7177791 C60.9507161,51.7190451 60.9494258,51.7228429 60.9468452,51.7241089 C60.9429743,51.7241089 60.9391034,51.721577 60.9365227,51.7228429 L58.3959064,52.4874808 C58.3894549,52.4887468 58.3881646,52.4963425 58.3830033,52.4988744 C58.3752615,52.5014064 58.3701002,52.4963425 58.3636487,52.4988744 L57.841074,52.716619 L55.842387,53.5255654 C55.8385161,53.5268314 55.8372258,53.5331612 55.8333548,53.5344271 C55.8294839,53.536959 55.8243227,53.5331612 55.8217421,53.5356931 L53.4075759,54.7206287 C53.4024147,54.7244265 53.4011244,54.7320223 53.3946728,54.7358201 C53.3882213,54.739618 53.3804794,54.7358201 53.3740279,54.739618 L53.2785451,54.8016499 L51.1779238,56.0410216 C51.1727625,56.0435535 51.1740529,56.0498833 51.1688916,56.0536812 C51.1637304,56.0562131 51.1572789,56.0536812 51.1521176,56.057479 L49.2321394,57.4449677 C49.2256879,57.4500315 49.2269782,57.4588932 49.2205266,57.4639571 C49.2153654,57.4690209 49.2063332,57.466489 49.1998817,57.4715528 L47.7069954,58.872967 C47.7031245,58.8767649 47.7044148,58.8843606 47.7005439,58.8894244 C47.696673,58.8932223 47.6889311,58.8919563 47.6850602,58.8970202 L46.6863618,60.0490409 C46.67862,60.0591685 46.6824909,60.0718281 46.6760394,60.0819557 C46.6695878,60.0920834 46.6553944,60.0920834 46.6489429,60.103477 L46.4786223,60.4136364 C46.4295906,60.4402215 46.4024941,60.4807321 46.372817,60.5288385 C46.2695924,60.5870725 46.1908836,60.6769554 46.1973351,60.8010192 L46.1999157,60.8592532 L46.1250779,61.0364872 C46.117336,61.0554765 46.1289488,61.0731999 46.1250779,61.0921893 C46.1199166,61.1149765 46.0966911,61.1314339 46.0966911,61.1529552 C46.0966911,61.1719446 46.1147554,61.1833382 46.1186263,61.2010616 C46.121207,61.2225828 46.1186263,61.2403062 46.1250779,61.2605615 C46.13411,61.2884126 46.1586259,61.30487 46.1766902,61.3301892 C46.188303,61.3466466 46.1857224,61.3669019 46.1999157,61.3820934 C46.2063673,61.3909551 46.2205607,61.3871572 46.2283025,61.393487 L46.2760439,62.3442206 C46.2773342,62.3708057 46.3005598,62.3872631 46.3083016,62.4138482 C46.3147531,62.4366354 46.3044307,62.4606886 46.3160435,62.4834758 L46.6966843,63.153167 C46.7018455,63.1620287 46.7108777,63.1645606 46.7160389,63.1734223 C46.7199098,63.1784861 46.7160389,63.1848159 46.7199098,63.1898797 L47.625706,64.3735493 C47.6295769,64.3786132 47.6360285,64.3760812 47.6411897,64.3811451 C47.6463509,64.3862089 47.64248,64.3950706 47.6476412,64.4001344 L48.8385955,65.6458359 C48.845047,65.6521657 48.8553695,65.6496338 48.861821,65.6559636 C48.8682726,65.6622934 48.8669823,65.672421 48.8734338,65.6774848 L50.4927703,66.9396438 C50.4979315,66.9434417 50.5056733,66.9421757 50.5108346,66.9459736 C50.5147055,66.9497714 50.5147055,66.9561012 50.5198667,66.9586331 L52.3921036,68.1372389 L52.4308128,68.1764836 C52.4424256,68.1878772 52.4579093,68.1840793 52.4708123,68.194207 C52.4837154,68.2030687 52.4850057,68.2207921 52.4979088,68.2283878 L54.7520768,69.5209297 C54.7585283,69.5247276 54.7649799,69.5234616 54.7714314,69.5259935 C54.774012,69.5285255 54.7753023,69.5335893 54.7791732,69.5348552 L57.6049476,70.8273971 C57.6113992,70.8299291 57.619141,70.8299291 57.6255926,70.832461 C57.6294635,70.8337269 57.6294635,70.8375248 57.6333344,70.8387908 L61.3326473,72.1313327 C61.3365182,72.1325986 61.3416794,72.1325986 61.3455504,72.1338646 C61.3468407,72.1338646 61.348131,72.1363965 61.3507116,72.1376624 L65.3196988,73.2744917 C65.3261504,73.2757576 65.3313116,73.2757576 65.3364728,73.2770236 C65.3390534,73.2770236 65.3390534,73.2795555 65.3416341,73.2795555 L69.0719143,74.0897678 C69.0770755,74.0910338 69.0822368,74.0910338 69.087398,74.0910338 C69.0899786,74.0910338 69.0899786,74.0935657 69.0912689,74.0935657 L72.2189754,74.5923527 C72.2254269,74.5936187 72.2305882,74.5936187 72.2370397,74.5936187 C72.23833,74.5936187 72.23833,74.5948846 72.2396203,74.5948846 L75.3041017,74.8911185 C75.3131338,74.8923845 75.3208757,74.8923845 75.3286175,74.8923845 L75.3286175,74.8923845 L79.0756718,74.9708738 C79.0782524,74.9708738 79.080833,74.9708738 79.0834136,74.9708738 C79.0898652,74.9708738 79.0963167,74.9708738 79.1027683,74.9708738 L81.8175762,74.8151611 C81.8188665,74.8151611 81.8214471,74.8126292 81.8227374,74.8126292 C81.8343502,74.8113632 81.8472533,74.8113632 81.858866,74.8088313 L84.1930331,74.3720762 C84.1981943,74.3708103 84.2007749,74.3644805 84.2059362,74.3632145 C84.2240005,74.3594166 84.2407745,74.3606826 84.2562582,74.3530869 L86.162043,73.5745234 C86.1749461,73.5694596 86.1775267,73.5555341 86.1878492,73.5504702 C86.2020426,73.5428745 86.2175263,73.5454064 86.2317196,73.5352788 L87.6768645,72.4756729 C87.6923482,72.4642793 87.6923482,72.444024 87.703961,72.4300985 C87.7155738,72.4187049 87.7336381,72.4225027 87.7426702,72.4098432 L88.5710479,71.3059288 L88.6187893,71.2590884 C88.6252409,71.2527586 88.6226603,71.242631 88.6291118,71.2363012 C88.6394343,71.2236416 88.6536276,71.2185778 88.6613695,71.2059182 L88.7400783,71.0818545 C88.7878197,71.007163 88.8007228,70.9223439 88.7826584,70.8438546 L89.1581381,69.5854935 C89.1632993,69.5740999 89.1529768,69.5627063 89.1555574,69.5525786 C89.1581381,69.5399191 89.1710411,69.5323233 89.1710411,69.5196638 L89.2510402,68.4296749 C89.2510402,68.4182813 89.2407178,68.4106856 89.2407178,68.399292 C89.2394275,68.3777707 89.2497499,68.370175 89.2484596,68.3600473 Z M88.5297581,69.4335787 L88.1013758,70.8641099 L88.093634,70.8717056 C88.0871825,70.8780354 88.0897631,70.8868971 88.0846018,70.8932269 C88.0781503,70.8995567 88.0691181,70.8995567 88.0639569,70.9058865 L87.2497726,71.9895455 L85.8755946,72.9972471 L84.0369058,73.7492255 L81.7659639,74.174587 L79.0705106,74.3290337 L75.3582946,74.2505444 L72.3144582,73.9568424 L69.1996548,73.4605873 L65.4977613,72.6567047 L61.5352256,71.5211415 L57.8668802,70.2387272 L55.0682022,68.9575789 L52.8643563,67.694154 L52.8320986,67.6625051 C52.8217761,67.6523775 52.8062924,67.6561753 52.7972602,67.6473136 C52.7882281,67.6384519 52.7869378,67.6245264 52.775325,67.6181966 L50.8876045,66.4307291 L49.2992354,65.1913574 L48.1340873,63.9709751 L47.252807,62.8214863 L46.9186173,62.2328164 L46.8760371,61.3846253 L46.93023,60.923817 L47.2011947,60.4313598 L48.1689257,59.3160519 L49.6347155,57.9386909 L51.5301778,56.5701916 L53.6088639,55.3434794 L58.0888131,53.3014911 L58.092684,53.3002251 L58.092684,53.3002251 L58.0939743,53.2989592 C58.0952647,53.2989592 58.0952647,53.2989592 58.0952647,53.2989592 L58.6049363,53.0875444 L61.1158755,52.3317682 L63.2294,51.8228535 L64.784221,51.5810558 L68.358374,51.7038536 L69.8654537,52.0393321 L73.985407,53.2584485 L75.9944164,54.0749907 L76.7053761,54.4699692 L78.0550382,55.2181497 L80.1801754,56.5372767 L82.3749892,58.2589779 L83.0149819,58.902084 L84.4717396,60.5452959 L86.245913,62.8113586 L87.4252545,64.8647406 C87.4278351,64.8698044 87.4355769,64.8723363 87.4381576,64.8774001 L87.6471875,65.3622616 C87.6471875,65.3622616 87.6471875,65.3622616 87.6471875,65.3635276 L88.2149229,66.7079737 L88.5013713,67.5802179 L88.6058863,68.4068877 L88.5297581,69.4335787 Z" id="Shape"></path>
                        <path d="M100.464892,62.2171302 L100.3363,61.5230676 C100.322155,61.4540378 100.304152,61.3875183 100.27972,61.3209987 L99.0143766,57.9071644 C98.9860864,57.8293491 98.9475088,57.755299 98.9050736,57.6837591 L96.7524473,54.2247417 C96.7202994,54.172028 96.6830078,54.1218246 96.6431443,54.0741313 L93.9530045,50.9088041 C93.9157129,50.8648761 93.8732776,50.8222031 93.8295564,50.7820404 L90.9812487,48.2480215 C90.9375275,48.2103689 90.8925204,48.1739714 90.8436555,48.1413391 L87.8063179,46.1030792 C87.7690263,46.0779775 87.7304488,46.055386 87.6905853,46.0340495 L84.446215,44.3196018 C84.4166389,44.3020306 84.3857769,44.2882247 84.3536289,44.2744187 L84.0681552,44.1514203 L80.4804448,42.704306 C80.4508687,42.6905 80.4174349,42.6792042 80.3865728,42.6704186 L76.2870672,41.3726596 L73.0311236,40.4740179 L65.9894383,35.7009253 L65.9894383,19.8353814 L67.9980418,18.7572624 C68.4095354,18.5363672 68.6654331,18.1159134 68.6654331,17.6578069 L68.6654331,13.1470273 C68.6654331,12.7353591 68.4584003,12.3487925 68.1112025,12.1153465 L59.9777731,6.61806922 C59.9494829,6.59798785 59.9186209,6.58041664 59.8890448,6.56284543 L48.543393,0.168181543 C48.3440757,0.0564788764 48.1228979,0 47.9004341,0 C47.6779704,0 47.4567925,0.0564788764 47.2574753,0.168181543 L0.642958847,26.4383896 C0.244324362,26.66305 0,27.0772284 0,27.5252942 L0,32.0348187 C0,32.4828844 0.244324362,32.8983179 0.642958847,33.1217233 L2.7685808,34.3190755 L2.7685808,73.6233531 C2.7685808,74.0714188 3.01290516,74.4868523 3.41153964,74.7102577 L13.3002467,80.2853503 L21.2973689,85.030831 L21.2973689,92.5249504 C21.2973689,92.9604652 21.528834,93.3633479 21.9068938,93.5930287 L64.7073784,119.416426 C64.8552589,119.505537 65.0198564,119.564526 65.1908834,119.589628 L68.1022011,120.021378 C68.151066,120.028908 68.1986449,120.033928 68.2475098,120.035183 L71.2539854,120.144376 C71.2707023,120.145631 71.2848474,120.145631 71.3015643,120.145631 C71.3324264,120.145631 71.3658602,120.144376 71.3980082,120.141866 L74.3710499,119.924736 C74.4134851,119.922226 74.4559204,119.91595 74.4996416,119.90842 L77.3646663,119.413916 C77.416103,119.40513 77.4662538,119.393834 77.5138327,119.380029 L80.1731105,118.591834 C80.227119,118.575518 80.2811276,118.556692 80.3325643,118.532845 L82.6896514,117.483593 C82.7500896,117.455981 82.8105277,117.423349 82.8658222,117.388207 L84.8268466,116.12057 C84.8950003,116.076642 84.9592962,116.026438 85.0171625,115.971215 L86.5512623,114.504019 C86.6219877,114.437499 86.6824259,114.364704 86.7351485,114.283124 L87.7793137,112.69293 C87.8461814,112.593778 87.8963322,112.484585 87.931052,112.369117 L88.4364176,110.684792 C88.4711374,110.570579 88.4891402,110.451346 88.4891402,110.332113 L88.4891402,99.3902715 L88.6563095,99.3124562 C88.7026026,99.2898647 88.7488956,99.266018 88.7926168,99.237151 L91.1188419,97.8000774 C91.1587054,97.7762308 91.1972829,97.749874 91.2320027,97.7222621 L93.2406061,96.1634451 C93.2881851,96.1257925 93.3331922,96.0856297 93.3743416,96.0417017 L95.0190303,94.3423151 C95.0653233,94.2946218 95.1077586,94.2431633 95.1463361,94.1891946 L96.4116791,92.3818705 C96.4541144,92.3203713 96.491406,92.2563619 96.5222681,92.1898424 L97.3941203,90.3059581 C97.42884,90.2268876 97.4584161,90.1440519 97.476419,90.0599612 L97.9046296,88.1597608 C97.9110592,88.134659 97.9162028,88.1108124 97.9187747,88.0857107 L100.885387,69.761453 L100.950969,69.5066705 C100.975401,69.4125391 100.986974,69.3158974 100.98826,69.2180007 L101.020408,66.5308613 L101.020408,65.5117313 C101.020408,65.4401914 101.013979,65.3711617 101.002405,65.3008769 L100.464892,62.2171302 Z M70.7949128,40.8706251 L69.5115669,40.563129 C69.5077091,40.5618739 69.5051373,40.5656392 69.5012796,40.5643841 C69.4987077,40.5643841 69.4987077,40.5606188 69.4961359,40.5606188 L64.0837083,39.5414889 C64.0811365,39.5414889 64.0785646,39.542744 64.0772787,39.542744 C64.0747069,39.5414889 64.073421,39.5389787 64.0708491,39.5389787 L60.4612782,38.9867408 L64.68166,36.7263307 L70.7949128,40.8706251 Z M54.6810781,41.3864655 L34.77893,52.0634833 L34.528176,51.8865162 C34.5114591,51.8752204 34.4908844,51.8814958 34.4728816,51.8739653 C34.434304,51.855139 34.4008702,51.8488636 34.3584349,51.8476085 C34.3159996,51.8463534 34.2812798,51.8476085 34.2414164,51.8614145 C34.2234135,51.8676899 34.2028388,51.8576492 34.1861219,51.8676899 L30.6884258,53.7528293 C30.6639933,53.7666352 30.6588497,53.7942471 30.6395609,53.8130734 C30.6202721,53.8306446 30.591982,53.8318997 30.5765509,53.8532362 L30.4492451,54.0377338 C30.4363859,54.0565601 30.4453873,54.0778966 30.4363859,54.097978 C30.4273845,54.1180593 30.4068098,54.1255899 30.4016661,54.1469263 L30.3553731,54.3628011 C30.3540872,54.3703317 30.3605168,54.3766071 30.3592308,54.3841376 C30.3579449,54.3929232 30.3489435,54.3979435 30.3489435,54.4054741 L30.3450858,54.4531673 L20.6582678,59.6442036 L20.6582678,43.0933827 L64.3820412,19.6245269 L64.3820412,36.1740928 L59.4235426,38.829855 L58.7690105,38.7369787 C58.7355766,38.7319583 58.7072864,38.7545499 58.6751385,38.7608253 C58.6378469,38.7658457 58.5992693,38.7545499 58.5671214,38.7733762 L55.1015732,40.6572605 C55.0835704,40.6673012 55.0809985,40.6886376 55.0668534,40.7024436 C55.0488506,40.7149944 55.02699,40.7124843 55.0141308,40.7288004 L54.8379601,40.9296142 C54.8225291,40.9484405 54.8289587,40.9722871 54.8173854,40.9923685 C54.8058121,41.01496 54.7813797,41.0224905 54.7749501,41.0475923 L54.6797922,41.3714045 C54.6772204,41.3751697 54.682364,41.3801901 54.6810781,41.3864655 Z M54.6502161,42.1181807 L54.589778,43.9631574 L39.2449221,52.2153487 L37.1938834,53.1729795 L36.4776272,53.1729795 L35.371738,52.4613456 L54.6502161,42.1181807 Z M30.2885054,55.3304725 C30.2885054,55.3342378 30.2846476,55.336748 30.2846476,55.3405132 L30.2846476,56.9620845 C30.2846476,56.9758905 30.2975068,56.9846761 30.3000786,56.9972269 C30.3013646,57.0097778 30.2910772,57.0210736 30.293649,57.0336244 L30.3579449,57.2959374 C30.3592308,57.303468 30.3669464,57.3072332 30.3695182,57.3135087 C30.37209,57.3197841 30.3669464,57.3260595 30.3695182,57.3323349 L31.6502922,60.7599752 C31.6515781,60.7662506 31.6580077,60.7687608 31.6605796,60.7737811 C31.6618655,60.7788015 31.6592936,60.7825667 31.6605796,60.7875871 L32.6571658,62.8421631 C32.6597376,62.8471834 32.6661672,62.8496936 32.668739,62.854714 C32.6713109,62.8584792 32.668739,62.8634996 32.6700249,62.8672648 L33.7952029,64.734833 C33.7977748,64.7411084 33.8054903,64.7423635 33.8080621,64.748639 C33.8106339,64.7511491 33.8080621,64.7561695 33.8106339,64.7599347 L35.2019969,66.6450741 L35.6109187,67.212373 C35.6147765,67.2186485 35.6250638,67.2161383 35.6302075,67.2224137 C35.6353512,67.2286892 35.6327793,67.2399849 35.6392089,67.2462604 L36.7103783,68.3695625 L37.4536388,69.1866236 C37.4536388,69.1866236 37.4549247,69.1866236 37.4549247,69.1878786 C37.4549247,69.1878786 37.4549247,69.1891337 37.4549247,69.1891337 L37.6130926,69.3598254 C37.6130926,69.3598254 37.6130926,69.3598254 37.6143785,69.3610805 C37.6143785,69.3610805 37.6143785,69.3623356 37.6156644,69.3635907 L37.8214112,69.5794655 C37.825269,69.5844859 37.8329845,69.5819757 37.8381282,69.586996 C37.8419859,69.5907613 37.8407,69.5970367 37.8445577,69.600802 L40.0601939,71.5010024 C40.0653376,71.5060227 40.074339,71.5047677 40.0807686,71.5085329 C40.0859123,71.5135533 40.0859123,71.5223389 40.0923419,71.5261041 L42.9882285,73.4413656 C42.9933722,73.4451308 43.0010877,73.4438757 43.0062314,73.4463859 C43.0100891,73.4488961 43.0100891,73.4551715 43.0152328,73.4576817 L45.7478079,74.8985206 L44.9248206,74.6763703 L39.0378894,71.8787833 L34.6387649,68.2917471 C34.6323353,68.2867268 34.622048,68.289237 34.6156184,68.2842166 C34.6079029,68.2791963 34.6079029,68.2679005 34.6001874,68.2628802 L20.9784613,60.188911 L30.2923631,55.1974334 L30.2846476,55.3216869 C30.2833617,55.322942 30.2885054,55.3254522 30.2885054,55.3304725 Z M67.05675,17.4720542 L64.5492105,18.8175065 L20.5798268,42.4194014 L20.5798268,38.6139802 L67.0580359,13.6779288 L67.0580359,17.4720542 L67.05675,17.4720542 Z M47.9004341,1.61906112 L59.0827744,7.92084864 L66.7699904,13.1169053 L20.2660629,38.0680178 L12.7190119,33.6049314 C12.7190119,33.6049314 12.717726,33.6049314 12.7164401,33.6049314 C12.7151542,33.6036764 12.7151542,33.6024213 12.7138682,33.6011662 L1.93016246,27.5252942 L47.9004341,1.61906112 Z M1.60739712,31.8528312 L1.60739712,28.0687465 L12.3911029,34.1446185 C12.3911029,34.1446185 12.3911029,34.1446185 12.3923888,34.1446185 L19.935582,38.6051946 L19.935582,42.3804937 L14.1090889,38.9327721 L14.1090889,38.9327721 L12.717726,38.1144559 C12.717726,38.1144559 12.7164401,38.1144559 12.7151542,38.1144559 C12.7138682,38.1132009 12.7138682,38.1119458 12.7125823,38.1106907 L4.2152382,33.3237921 L1.60739712,31.8528312 Z M65.0622917,117.786069 L22.904766,92.3517485 L22.904766,84.8839859 L34.2491319,91.5811256 L38.6585437,95.1769474 C38.6701169,95.1869881 38.6855479,95.1832228 38.6971212,95.1907533 C38.7086944,95.1982838 38.7099804,95.2133449 38.7228395,95.2183652 L44.6727807,98.0749413 C44.6869258,98.0812167 44.7010709,98.0799616 44.715216,98.084982 C44.7216456,98.0874921 44.7242174,98.0950226 44.730647,98.0962777 L51.7877633,99.965101 C51.7967647,99.9676112 51.8057662,99.9663561 51.8134817,99.9688663 C51.8160535,99.9688663 51.8186253,99.9726315 51.8211972,99.9726315 L65.0635776,102.091217 L65.0635776,117.786069 L65.0622917,117.786069 Z M86.8817431,110.28944 L86.4020958,111.885909 L85.4029378,113.407074 L83.9138451,114.830341 L82.0029714,116.065346 L79.6870336,117.095772 L77.0650474,117.87267 L74.2347426,118.360899 L71.3015643,118.575518 L68.3246649,118.466326 L65.7078224,118.078504 L65.7078224,102.194134 L69.3996921,102.79532 C69.4176949,102.799086 69.4344118,102.800341 69.4524147,102.800341 C69.4575584,102.800341 69.462702,102.800341 69.4678457,102.800341 L72.9012459,102.645965 C72.9025319,102.645965 72.9025319,102.64471 72.9038178,102.64471 C72.9102474,102.64471 72.9179629,102.643455 72.9243925,102.643455 L76.2793517,102.256888 C76.2806376,102.256888 76.2806376,102.255633 76.2819236,102.255633 C76.2896391,102.254378 76.2973546,102.254378 76.3050701,102.253123 L79.5635855,101.62056 C79.5648714,101.62056 79.5661573,101.618049 79.5674433,101.618049 C79.5738729,101.616794 79.5803024,101.616794 79.586732,101.615539 L82.6729345,100.780907 C82.6755063,100.779652 82.6767923,100.775887 82.68065,100.774632 C82.6870796,100.772121 82.6935092,100.773376 82.7012247,100.770866 L85.5791085,99.7052982 C85.5816803,99.7040431 85.5829662,99.7002778 85.5855381,99.7002778 C85.5919677,99.6977677 85.5996832,99.6977677 85.6061128,99.6952575 L86.8856009,99.0940712 L86.8856009,110.28944 L86.8817431,110.28944 Z M96.3345241,87.8384587 L95.9166008,89.6947311 L95.070467,91.5246467 L93.8372719,93.2867876 L92.2221593,94.953542 L90.2457038,96.4872573 L87.9503407,97.9055046 L87.0656293,98.3134076 C87.0656293,98.3134076 87.0656293,98.3134076 87.0643434,98.3134076 L85.3257827,99.1304687 L82.492906,100.178466 L79.4169909,101.010588 L76.1854797,101.636876 L72.8665262,102.019677 L69.4639879,102.172798 L65.4377796,101.516387 C65.4377796,101.516387 65.4377796,101.515132 65.4352078,101.515132 L51.9343579,99.353874 L44.9299642,97.4988567 L39.0366035,94.6686375 L34.6387649,91.0828564 C34.6323353,91.0765809 34.622048,91.0803462 34.6143325,91.0753259 C34.606617,91.0703055 34.606617,91.0590097 34.5989015,91.0539894 L22.7491699,84.0593943 C22.7491699,84.0581392 22.7491699,84.0581392 22.7491699,84.0581392 L14.1090889,78.9311124 C14.107803,78.9298573 14.1065171,78.9311124 14.1052312,78.9298573 C14.1039453,78.9298573 14.1039453,78.9286022 14.1026594,78.9273471 L4.374692,73.4426207 L4.374692,34.1395981 L12.389817,38.6553981 C12.389817,38.6553981 12.3911029,38.6553981 12.3923888,38.6553981 L13.7747503,39.4686939 C13.7747503,39.469949 13.7747503,39.469949 13.7747503,39.469949 L20.0127371,43.1611573 L20.0127371,60.1725949 C20.0127371,60.1876559 20.0255963,60.1951864 20.0281681,60.2077373 C20.0320258,60.2340941 20.0371695,60.2554306 20.0487428,60.2805323 C20.0538864,60.2955933 20.0461709,60.3093993 20.0526005,60.3232052 C20.0628879,60.3420315 20.0821766,60.349562 20.0950358,60.3658781 C20.107895,60.3809392 20.1181823,60.392235 20.1348993,60.4047858 C20.1439007,60.4123163 20.1503303,60.4236121 20.1593317,60.4298875 C20.1631894,60.4323977 20.1631894,60.4386731 20.1670472,60.4411833 L34.2491319,68.7862511 L38.6559718,72.3808178 C38.6675451,72.3908585 38.6829761,72.3883483 38.6971212,72.3958788 C38.7074085,72.4034093 38.7099804,72.4172153 38.7215536,72.4222356 L44.6714948,75.2486896 C44.684354,75.254965 44.6984991,75.25371 44.7100723,75.2574752 C44.7165019,75.2599854 44.7190737,75.2675159 44.7255033,75.2700261 L49.4371058,76.5477038 L51.0265,77.2317257 C51.0342155,77.2342359 51.0406451,77.2342359 51.0470747,77.235491 C51.0522184,77.2367461 51.0522184,77.2417664 51.0560761,77.2430215 L51.7684745,77.4752124 C51.7710464,77.4764675 51.7736182,77.4752124 51.7761901,77.4764675 C51.777476,77.4764675 51.7787619,77.4789777 51.7787619,77.4789777 L52.0475187,77.556793 C52.0500905,77.556793 52.0500905,77.556793 52.0526624,77.556793 L56.2113202,78.9424081 C56.2190357,78.9449183 56.2254653,78.9436632 56.2318949,78.9461734 C56.2344667,78.9461734 56.2370385,78.9499386 56.2396104,78.9511937 L61.9992357,80.3255131 C62.0069512,80.3280232 62.0146667,80.3267681 62.0236682,80.3280232 C62.0249541,80.3280232 62.0249541,80.3305334 62.02624,80.3305334 L67.6752764,81.1952878 C67.6829919,81.1965428 67.6907074,81.1965428 67.697137,81.1965428 C67.6984229,81.1965428 67.6984229,81.1977979 67.6984229,81.1977979 L69.7674645,81.3684896 C69.7687504,81.3684896 69.7687504,81.3684896 69.7687504,81.3684896 L72.8871008,81.6458637 C72.8948163,81.6471188 72.9012459,81.6471188 72.9089614,81.6471188 C72.9089614,81.6471188 72.9089614,81.6471188 72.9102474,81.6471188 L77.3080859,81.7399951 C77.3106577,81.7399951 77.3119436,81.7399951 77.3145155,81.7399951 C77.3209451,81.7399951 77.3286606,81.7399951 77.3338042,81.7399951 L79.4079895,81.6157416 L81.0835402,81.5241203 C81.0861121,81.5241203 81.0861121,81.5216101 81.0886839,81.5216101 C81.0989712,81.5216101 81.1105445,81.5216101 81.1208318,81.5191 L84.3304824,80.9781578 C84.3330542,80.9781578 84.3343402,80.9756477 84.336912,80.9743926 C84.3459134,80.9731375 84.3562008,80.9731375 84.3652022,80.9706273 L87.2302268,80.1661171 C87.2340846,80.164862 87.2340846,80.1610968 87.2379423,80.1598417 C87.2443719,80.1573315 87.2520874,80.1585866 87.2598029,80.1560764 L89.8869328,79.1520075 C89.8895046,79.1507524 89.8895046,79.1469872 89.8933624,79.144477 C89.8997919,79.1419668 89.9062215,79.1432219 89.9126511,79.1407117 L92.3327482,77.9672062 C92.336606,77.964696 92.336606,77.9609308 92.3404637,77.9584206 C92.3468933,77.9559104 92.352037,77.9571655 92.3584666,77.9534002 L94.5741028,76.624264 C94.5779605,76.6217539 94.5779605,76.6154784 94.5831042,76.6129682 C94.5882479,76.609203 94.5959634,76.6104581 94.601107,76.6066928 L96.5158385,75.1859353 C96.523554,75.1796599 96.5222681,75.1696192 96.5299836,75.1633438 C96.5364132,75.1570683 96.5454146,75.1595785 96.5531301,75.1533031 L98.1180919,73.57817 C98.1245215,73.5718945 98.1219497,73.5631089 98.1283793,73.5568335 C98.1386666,73.5442826 98.1540976,73.5380072 98.163099,73.5242013 L98.8253467,72.4674187 L96.3345241,87.8384587 Z M99.414297,66.5170553 L99.382149,69.1665422 L99.3139954,69.4326204 L98.8124875,71.2073122 L98.7211873,71.4256972 L97.6255854,73.1727771 L96.1056307,74.6989619 L94.2166176,76.1008931 L92.0292716,77.4124581 L89.6348929,78.5734128 L87.039911,79.5649309 L84.1993188,80.3631656 L81.0346754,80.8953222 L79.368126,80.9869435 L79.3668401,80.9869435 C79.3668401,80.9869435 79.3668401,80.9869435 79.3655542,80.9869435 L77.3003704,81.111197 L72.9333939,81.0183206 L69.8266167,80.7422017 C69.8253308,80.7422017 69.8253308,80.7422017 69.8253308,80.7422017 L69.8253308,80.7422017 L67.7665766,80.572765 L62.1445444,79.7105208 L56.3977782,78.3399668 L52.2442641,76.9568619 C52.2416923,76.9556068 52.2391204,76.9581169 52.2378345,76.9568619 C52.2339768,76.9568619 52.2339768,76.9530966 52.2314049,76.9518415 L51.9626481,76.8740262 L51.9613622,76.8740262 L51.2721103,76.6493657 L49.6737146,75.9615785 C49.6737146,75.9615785 49.6737146,75.9603235 49.6724287,75.9603235 L46.7842576,74.7278289 L43.3354263,72.907954 L40.4678298,71.0102637 L38.2881994,69.1414404 L38.0875962,68.930586 C38.0875962,68.930586 38.0863103,68.930586 38.0863103,68.9293309 L37.934572,68.7661697 L37.1913116,67.9491086 C37.1900256,67.9478535 37.1887397,67.9478535 37.1874538,67.9478535 C37.1874538,67.9465984 37.1874538,67.9453434 37.1861679,67.9440883 L36.1252858,66.8320819 L35.7253654,66.278589 C35.7253654,66.2773339 35.7240795,66.278589 35.7240795,66.2773339 C35.7240795,66.2760788 35.7240795,66.2760788 35.7240795,66.2748237 L34.3442898,64.4060004 L33.2345428,62.5622789 L32.246958,60.5277843 L30.9777573,57.1315212 L30.9263206,56.9244319 L30.9263206,55.351809 L30.9738995,54.6677871 L30.9893305,54.4707385 L31.0176207,54.3364443 L31.0664856,54.2649044 L34.3172855,52.5128042 L34.5474648,52.6747103 C34.5513225,52.6772204 34.5564662,52.6759654 34.560324,52.6784755 C34.5667535,52.6834959 34.5654676,52.6935366 34.5731831,52.6985569 L36.2037268,53.749064 C36.2577353,53.7829513 36.3194594,53.8005225 36.3811834,53.8005225 L37.2671807,53.8005225 C37.3134737,53.8005225 37.3610527,53.7904819 37.4060598,53.7704005 L39.5252522,52.7813926 C39.527824,52.7801375 39.527824,52.7763723 39.5303958,52.7751172 C39.5329677,52.7738621 39.5381114,52.7751172 39.5406832,52.772607 L55.1864438,44.3572544 L55.1877297,44.3572544 L55.7728222,44.0485032 C55.77668,44.0472481 55.77668,44.0422278 55.7792518,44.0397176 C55.7843955,44.0372074 55.7895392,44.0384625 55.7946828,44.0359524 L57.3133516,43.0783216 C57.4625181,42.9841902 57.5049534,42.7909069 57.4085096,42.6440618 C57.3120657,42.4972168 57.1140344,42.4583091 56.963582,42.5511855 L55.4552006,43.5025408 L55.2417382,43.6142434 L55.308606,41.5897895 C55.308606,41.5872793 55.30732,41.5860242 55.30732,41.5847691 C55.30732,41.582259 55.308606,41.582259 55.308606,41.5797488 L55.308606,41.5019334 L55.3716159,41.2848035 L55.464202,41.1781212 L58.7831556,39.3733073 L59.4286863,39.4636735 C59.4299722,39.4649286 59.4299722,39.4649286 59.4312581,39.4649286 L63.9718335,40.1602464 C63.9718335,40.1602464 63.9731194,40.1602464 63.9744053,40.1602464 L69.3559709,41.1731009 C69.3572568,41.1731009 69.3572568,41.174356 69.3572568,41.174356 L71.6834819,41.7303591 L71.6834819,41.7303591 L72.3830211,41.9274076 C72.384307,41.9274076 72.3855929,41.9274076 72.3868789,41.9274076 L75.7894171,42.864957 C75.790703,42.864957 75.790703,42.8662121 75.790703,42.8662121 L79.8773494,44.1602059 L83.4264823,45.5922592 C83.4277682,45.5922592 83.4290541,45.5922592 83.43034,45.5935143 L83.6888095,45.7039618 L86.9100333,47.4058587 L89.9165089,49.4240372 L92.7313827,51.927934 L95.3880887,55.0543536 L97.5137106,58.4732082 L98.7584789,61.8280535 L98.8806411,62.4832085 L99.414297,65.5431085 L99.414297,66.5170553 L99.414297,66.5170553 Z" id="Shape"></path>
                    </g>
                </g>
            </g>
        </g>
    </g>
</svg>