<svg width="99" height="121" xmlns="http://www.w3.org/2000/svg"><g class="toilet-logo" fill="none"><path d="M26.922 19.902l.127.72c.004.028.027.04.036.066.007.02 0 .04.01.058l.41.686c.013.025.037.036.054.055.008.007.007.021.015.028l.695.6c.012.011.027.007.04.016.01.008.013.023.024.029l.915.464c.015.007.029.005.043.01.006.002.008.01.014.012l1.059.291c.014.004.028.004.042.006.003.001.004.004.007.004l1.167.12.03.001h.017L32.795 23c.002 0 .002-.003.005-.003a.31.31 0 00.05-.007l1.09-.274c.006-.002.007-.009.012-.01.013-.004.027-.003.039-.008l.947-.43c.01-.005.013-.019.023-.025.014-.008.03-.005.044-.016l.725-.582c.015-.013.014-.034.027-.048.01-.012.027-.007.037-.02l.474-.67c.01-.014.003-.033.012-.05.013-.024.035-.037.041-.065l.19-.72c.004-.018-.007-.032-.005-.05.003-.018.018-.03.018-.046v-.41c0-.013-.01-.02-.011-.031-.002-.011.007-.021.006-.032l-.127-.737c-.004-.027-.027-.036-.036-.06-.008-.024 0-.049-.013-.071l-.426-.685c-.01-.017-.03-.017-.04-.03-.012-.015-.011-.036-.027-.048l-.678-.584c-.01-.008-.025-.004-.036-.01-.01-.01-.013-.025-.025-.03l-.916-.48c-.012-.005-.023.004-.035-.002-.01-.004-.015-.018-.027-.02l-1.074-.293c-.01-.003-.018.005-.027.004-.009-.002-.014-.013-.024-.014l-1.153-.102c-.008-.001-.014.009-.022.007-.009 0-.013-.008-.022-.008l-1.167.068c-.012.001-.017.013-.027.015-.01.002-.018-.008-.029-.005l-1.09.274c-.008.003-.01.013-.02.015-.009.003-.018-.004-.027 0l-.947.411c-.014.007-.018.025-.03.031-.012.008-.026.001-.038.011l-.743.584c-.014.01-.013.029-.024.041-.013.014-.031.013-.043.028l-.473.667c-.014.021-.008.046-.017.07-.01.022-.033.032-.04.057l-.173.737c-.004.015.008.03.005.043-.001.017-.015.027-.015.042v.41c0 .013.01.02.011.031.001.011-.005.02-.002.032zm4.874-2.268l.804.08.714.207.607.314.452.372.234.386.07.388-.093.403-.014.02-.193-.278c-.005-.007-.015-.005-.02-.014-.006-.007-.003-.016-.01-.023l-.283-.31c-.004-.005-.012-.002-.017-.008-.004-.004-.002-.011-.007-.015l-.348-.31c-.004-.004-.01 0-.016-.005-.005-.004-.004-.011-.009-.015l-.378-.275c-.007-.005-.016 0-.022-.004-.007-.005-.007-.014-.014-.018l-.443-.24c-.004-.002-.009.002-.013 0-.005-.002-.005-.01-.01-.012l-.474-.205c-.002-.001-.005.002-.009 0-.002-.001-.002-.004-.005-.005l-.504-.187c-.005-.003-.012.003-.017.002-.005-.002-.008-.01-.014-.012l-.536-.137h-.007c-.001 0-.002-.003-.005-.003l-.225-.049.805-.047zm-1.237.664l.527.114.512.132.478.179.467.203.402.217.357.26.314.28.26.282.214.308.025.05-.274.219-.655.282-.735.194-.82.047-.799-.08-.727-.208-.599-.295-.437-.385-.252-.397-.068-.383.093-.4.291-.382.41-.328.445.027.57.064zm-2.856.547l.406-.572.668-.527.896-.387.072-.018-.42.187c-.015.007-.017.023-.03.03-.012.009-.027.002-.039.012l-.538.429c-.011.01-.011.027-.021.037-.01.011-.027.01-.038.022l-.362.48c-.015.02-.009.047-.02.07-.012.026-.037.037-.044.066l-.127.55c-.004.015.008.03.007.043-.002.016-.016.025-.016.04v.137c0 .013.01.02.012.03.001.012-.008.023-.007.034l.094.532c.005.03.028.046.04.073.008.02 0 .041.011.06l.316.495c.013.021.032.03.048.046.007.007.005.021.014.028l.507.446c.013.011.03.008.045.018.01.007.012.024.025.03l.664.324c.01.005.022.004.032.008.005.001.006.008.011.01l.774.24c.02.008.04.008.06.01.002 0 .002.003.005.003l.853.068a.129.129 0 00.023.002h.018l.869-.052.005-.002c.016-.002.03-.002.046-.006l.79-.188c.005-.001.007-.008.012-.01.015-.004.03-.003.044-.01l.711-.325c.012-.006.013-.021.024-.027.013-.008.029-.005.042-.015l.536-.43c.008-.005.006-.016.013-.023.013-.012.022-.02.032-.033.004-.006.012-.003.017-.009l.347-.479c.012-.016.006-.037.015-.055.014-.028.038-.044.044-.076l.128-.55c.003-.015-.008-.029-.007-.043.001-.015.016-.025.016-.04v-.137c0-.012-.012-.02-.012-.03-.001-.014.009-.024.006-.035l-.095-.532c-.003-.025-.027-.036-.036-.059-.007-.022 0-.044-.011-.065l-.3-.496c-.01-.018-.031-.02-.045-.033-.014-.014-.013-.04-.029-.053l-.52-.43c-.01-.008-.024-.002-.034-.01-.01-.006-.012-.021-.023-.027l-.564-.291.283.077.857.448.615.527.36.579.1.585-.152.578-.408.575-.662.532-.88.398-1.043.245-1.111.083-1.125-.116-1.003-.276-.855-.432-.624-.538-.348-.581-.101-.577.137-.592zm59.76 49.515l-.11-.887c0-.012-.013-.017-.016-.027-.002-.01.008-.02.003-.03l-.294-.92c-.002-.006-.007-.007-.01-.01-.001-.006.003-.011 0-.016l-.56-1.355v-.002l-.218-.514c-.006-.014-.022-.018-.029-.03-.002-.006 0-.012-.002-.017l-1.167-2.074c-.004-.007-.014-.007-.02-.015-.004-.006 0-.016-.006-.023l-1.757-2.29c-.003-.002-.008-.002-.01-.005-.002-.004 0-.007-.003-.01l-1.448-1.666c-.002-.002-.005-.001-.007-.004-.003-.002-.003-.007-.005-.01l-.631-.65-.07-.08c-.021-.026-.054-.026-.08-.042l-2.065-1.653c-.005-.004-.012-.002-.017-.005-.007-.004-.005-.012-.012-.016l-2.115-1.339-.008-.001c-.002-.002-.002-.007-.006-.008l-1.323-.748-.715-.405c-.007-.004-.014.001-.02-.003-.008-.003-.008-.012-.016-.015l-1.991-.825c-.007-.003-.012.002-.018 0-.006-.002-.006-.01-.013-.01l-4.077-1.23c-.003-.002-.007.002-.01 0-.006 0-.007-.006-.012-.007l-1.509-.343c-.01-.003-.02.006-.029.005-.011-.002-.018-.013-.028-.013l-3.563-.125c-.011.001-.02.01-.028.011-.013.001-.02-.009-.032-.007l-1.57.249c-.005.001-.008.006-.013.008-.005 0-.009-.004-.014-.003l-2.084.518c-.003.001-.005.005-.007.006-.004 0-.008-.002-.01-.001l-2.49.764c-.006.002-.008.01-.013.012-.007.002-.012-.003-.019 0l-.512.218-1.958.809c-.004 0-.006.007-.01.008-.003.003-.008 0-.01.002l-2.367 1.185c-.005.003-.006.011-.012.015-.007.004-.014 0-.02.004l-.094.062-2.059 1.239c-.005.003-.003.009-.008.013-.006.002-.012 0-.017.003l-1.882 1.388c-.006.005-.005.014-.01.019-.006.005-.015.002-.021.008l-1.463 1.401c-.004.004-.003.011-.006.016-.004.004-.012.003-.016.008l-.978 1.152c-.008.01-.004.023-.01.033-.007.01-.02.01-.027.021l-.167.31a.286.286 0 00-.104.116c-.1.058-.178.148-.172.272l.003.058-.073.177c-.008.02.003.037 0 .056-.005.023-.028.04-.028.061 0 .019.017.03.021.048.003.022 0 .04.007.06.008.027.032.044.05.07.012.016.009.036.023.051.006.009.02.005.028.011l.047.951c0 .027.024.043.031.07.006.023-.004.047.008.07l.373.67c.005.008.014.01.019.02.004.004 0 .01.004.016l.887 1.184c.004.005.01.002.015.007.005.005.002.014.007.02l1.167 1.245c.006.006.016.004.023.01.006.006.005.016.011.021l1.587 1.263c.005.003.013.002.018.006.003.004.003.01.008.013l1.835 1.178.038.04c.012.01.027.007.04.017.012.01.013.027.026.034l2.209 1.293c.006.004.013.002.019.005.003.003.004.008.008.009l2.769 1.292c.006.003.014.003.02.005.004.002.004.006.008.007l3.625 1.292c.004.002.009.002.013.003l.005.004 3.89 1.136.016.003c.002 0 .002.003.005.003l3.655.81.016.001c.002 0 .002.003.003.003l3.066.498c.006.002.011.002.017.002h.003l3.003.297.024.001 3.672.079h.027l2.66-.156.005-.002.036-.004 2.287-.437c.005-.001.008-.008.013-.009.018-.004.034-.002.05-.01l1.867-.778c.012-.006.015-.02.025-.025.014-.007.03-.005.043-.015l1.416-1.06c.016-.01.016-.031.027-.045.011-.011.029-.007.038-.02l.812-1.104.046-.047c.007-.006.004-.016.01-.023.01-.012.025-.017.032-.03l.077-.124a.315.315 0 00.042-.238l.368-1.259c.005-.01-.005-.022-.003-.032.003-.013.016-.02.016-.033l.078-1.09c0-.012-.01-.02-.01-.03-.001-.022.009-.03.007-.04zm-.704 1.074l-.42 1.43-.007.008c-.007.006-.004.015-.01.021-.005.007-.014.007-.02.013l-.797 1.084-1.347 1.007-1.802.752-2.225.426-2.642.154-3.638-.078-2.983-.294-3.052-.496-3.628-.804-3.883-1.136-3.595-1.282-2.743-1.281-2.16-1.264-.032-.031c-.01-.01-.025-.007-.034-.016-.009-.009-.01-.022-.021-.029l-1.85-1.187-1.557-1.24-1.142-1.22-.863-1.15-.328-.588-.041-.848.053-.461.265-.493.949-1.115 1.436-1.377L50.5 56.57l2.037-1.227 4.39-2.042h.004l.001-.002h.001l.5-.211 2.46-.756 2.072-.51 1.524-.24 3.502.122 1.477.335 4.038 1.22 1.969.816.696.395 1.323.748 2.083 1.32 2.15 1.721.628.643 1.427 1.643 1.739 2.266 1.156 2.054c.002.005.01.007.012.012l.205.485v.002l.557 1.344.28.872.103.827-.075 1.027z"/><path d="M98.456 62.217l-.126-.694a1.411 1.411 0 00-.056-.202l-1.24-3.414a1.348 1.348 0 00-.107-.223l-2.11-3.46a1.257 1.257 0 00-.107-.15l-2.636-3.165a1.431 1.431 0 00-.121-.127l-2.791-2.534a1.396 1.396 0 00-.135-.107l-2.977-2.038a1.299 1.299 0 00-.113-.069l-3.18-1.714a.763.763 0 00-.09-.046l-.28-.123-3.516-1.447a.623.623 0 00-.092-.034l-4.018-1.297-3.19-.899-6.901-4.773V19.835l1.968-1.078c.403-.22.654-.641.654-1.1v-4.51c0-.412-.203-.798-.543-1.032l-7.97-5.497a1.411 1.411 0 00-.088-.055L47.573.168a1.267 1.267 0 00-1.26 0L.63 26.438c-.39.225-.63.64-.63 1.087v4.51c0 .448.24.863.63 1.087l2.083 1.197v39.304c0 .448.24.864.63 1.087l9.691 5.575 7.837 4.746v7.494c0 .435.227.838.598 1.068l41.944 25.823c.145.09.306.149.474.174l2.853.431a.99.99 0 00.143.014l2.946.11h.047c.03 0 .063 0 .094-.003l2.914-.217c.041-.003.083-.01.126-.017l2.807-.494c.05-.009.1-.02.147-.034l2.606-.788a.984.984 0 00.156-.06l2.31-1.048c.06-.028.118-.06.173-.096l1.921-1.267c.067-.044.13-.095.187-.15l1.503-1.467c.07-.067.129-.14.18-.22l1.024-1.591a1.2 1.2 0 00.148-.324l.496-1.684a1.24 1.24 0 00.051-.353V99.39l.164-.078a1.17 1.17 0 00.134-.075l2.28-1.437a.986.986 0 00.11-.078l1.969-1.559c.046-.037.09-.077.13-.121l1.613-1.7a1.22 1.22 0 00.124-.153l1.24-1.807c.042-.062.079-.126.109-.192l.854-1.884c.034-.08.063-.162.08-.246l.42-1.9a.51.51 0 00.014-.074l2.908-18.325.064-.254c.024-.094.035-.191.036-.289L99 66.531v-1.02c0-.07-.006-.14-.018-.21l-.526-3.084zM69.379 40.871l-1.258-.308c-.003-.001-.006.003-.01.001-.002 0-.002-.003-.005-.003l-5.304-1.02-.006.002c-.003-.002-.004-.004-.007-.004l-3.537-.552 4.136-2.26 5.991 4.144zm-15.792.515L34.083 52.063l-.245-.176c-.017-.012-.037-.006-.055-.013a.25.25 0 00-.112-.026.294.294 0 00-.114.013c-.018.007-.038-.003-.055.007l-3.427 1.885c-.024.014-.03.041-.048.06-.02.018-.047.019-.062.04l-.125.185c-.012.019-.004.04-.012.06-.01.02-.03.028-.034.049l-.046.216c-.001.007.005.014.004.021-.001.009-.01.014-.01.021l-.004.048-9.493 5.191v-16.55l42.85-23.47v16.55l-4.86 2.656-.641-.093c-.033-.005-.06.018-.092.024-.037.005-.075-.006-.106.012L54 40.657c-.018.01-.02.032-.034.045-.018.013-.04.01-.052.027l-.173.2c-.015.02-.009.043-.02.063-.011.023-.035.03-.042.056l-.093.323c-.002.004.003.01.001.015zm-.03.732l-.059 1.845-15.038 8.252-2.01.958h-.702l-1.084-.712 18.893-10.343zM29.683 55.33c0 .004-.004.007-.004.01v1.622c0 .014.013.023.015.035.001.013-.009.024-.006.037l.063.262c.001.007.009.011.011.018.003.006-.002.012 0 .018l1.255 3.428c.002.006.008.009.01.014.002.005 0 .009 0 .014l.977 2.054c.003.005.009.008.011.013.003.003 0 .008.002.012l1.102 1.868c.003.006.01.007.013.014.002.002 0 .007.002.01l1.364 1.886.4.567c.004.007.015.004.02.01.005.007.002.018.008.024l1.05 1.124.729.817v.002l.156.17.001.002.001.003.202.215c.004.005.011.003.016.008.004.004.003.01.007.014l2.171 1.9c.005.005.014.004.02.008.005.005.005.013.011.017l2.838 1.915c.006.004.013.003.018.005.004.003.004.01.009.012l2.678 1.44-.807-.222-5.769-2.797-4.311-3.587c-.006-.005-.016-.003-.023-.008-.007-.005-.007-.016-.015-.021l-13.35-8.074 9.129-4.992-.008.125c-.001 0 .004.003.004.008zm36.033-37.858l-2.458 1.346-43.09 23.601v-3.805l45.549-24.936v3.794h-.001zM46.942 1.62l10.96 6.302 7.533 5.196-45.575 24.95-7.396-4.463h-.003l-.002-.004-10.568-6.076L46.942 1.62zM1.575 31.853v-3.784l10.568 6.076h.002l7.392 4.46v3.775l-5.71-3.447-1.364-.819h-.002l-.003-.003-8.327-4.787-2.556-1.471zm62.186 85.933L22.447 92.352v-7.468l11.117 6.697 4.321 3.596c.012.01.027.006.038.014.012.007.013.022.025.027l5.831 2.857c.014.006.028.005.042.01.006.002.009.01.015.011l6.916 1.87c.009.002.018 0 .025.003.003 0 .005.004.008.004l12.977 2.118v15.695h-.001zm21.383-7.497l-.47 1.597-.98 1.521-1.458 1.423-1.873 1.235-2.27 1.03-2.57.778-2.773.488-2.874.215-2.918-.11-2.564-.387v-15.885l3.618.601a.24.24 0 00.051.005h.015l3.365-.154.003-.001.02-.002 3.288-.386.002-.001.023-.003 3.193-.632c.002 0 .003-.003.004-.003l.019-.002 3.024-.835c.003-.001.004-.005.008-.006.006-.003.013-.002.02-.004l2.82-1.066c.003-.001.004-.005.007-.005.006-.002.014-.002.02-.005l1.254-.6v11.194h-.004zm9.264-22.45l-.41 1.856-.829 1.83-1.208 1.762-1.583 1.667-1.937 1.533-2.25 1.419-.867.407-1.705.817-2.776 1.048-3.014.833-3.167.626-3.253.383-3.334.153-3.946-.657h-.002l-13.231-2.162-6.865-1.855-5.775-2.83-4.31-3.586c-.006-.006-.016-.003-.024-.008s-.008-.016-.015-.021l-11.613-6.995-8.467-5.128-.004-.001-.002-.003-9.534-5.484V34.14l7.855 4.515h.003l1.354.814 6.113 3.692v17.012c0 .015.013.022.016.035a.25.25 0 00.02.073c.005.015-.003.028.004.042.01.019.029.027.041.043a.229.229 0 00.04.039c.008.007.014.019.023.025.004.002.004.009.008.011l13.8 8.345 4.319 3.595c.011.01.026.007.04.015.01.007.013.021.024.026l5.831 2.827c.013.006.027.005.038.008.006.003.009.01.015.013l4.617 1.278 1.558.684.02.003c.005.002.005.007.009.008l.698.232.008.001.002.003.264.078h.005l4.075 1.385c.008.003.014.002.02.004.003 0 .005.004.008.005l5.644 1.375c.008.002.015 0 .024.002.001 0 .001.003.003.003l5.536.864c.007.002.015.002.021.002h.001l2.028.171h.001l3.056.278a.123.123 0 00.022.001h.001l4.31.093h.026l2.032-.124 1.642-.092c.002 0 .002-.002.005-.002.01 0 .021 0 .031-.003l3.146-.54c.002 0 .004-.003.006-.005.009 0 .02 0 .028-.003l2.808-.805c.003-.001.003-.005.007-.006.006-.003.014-.001.022-.004l2.574-1.004c.003-.001.003-.005.006-.008.007-.002.013 0 .02-.003l2.371-1.174c.004-.002.004-.006.008-.009.006-.002.011 0 .017-.005l2.172-1.329c.003-.002.003-.009.008-.011.005-.004.013-.003.018-.006l1.877-1.421c.007-.006.006-.016.013-.023.007-.006.016-.003.023-.01l1.534-1.575c.006-.006.004-.015.01-.021.01-.013.025-.019.034-.033l.649-1.057-2.441 15.371zm3.018-21.322l-.031 2.65-.067.266-.492 1.774-.09.219-1.073 1.747-1.49 1.526-1.85 1.402-2.144 1.311-2.347 1.161-2.543.992-2.784.798-3.101.532-1.633.092h-.003l-2.024.124-4.28-.093-3.044-.276h-.001l-2.018-.17-5.51-.861-5.631-1.371-4.07-1.383h-.007c-.004 0-.004-.004-.006-.005l-.264-.078-.676-.225-1.567-.687-.001-.002-2.83-1.232-3.38-1.82-2.81-1.898-2.137-1.869-.196-.21-.001-.002-.15-.163-.728-.817-.003-.001c0-.001 0-.003-.002-.004l-1.04-1.112-.391-.553-.001-.002v-.002l-1.353-1.869-1.087-1.844-.968-2.034-1.244-3.396-.05-.208v-1.572l.046-.684.016-.197.027-.135.048-.071 3.186-1.752.226.162c.003.002.008.001.012.003.006.005.005.016.013.02l1.598 1.051a.323.323 0 00.174.052h.868a.33.33 0 00.136-.03l2.077-.99c.002 0 .002-.005.005-.006.002-.001.007 0 .01-.002l15.333-8.416h.001l.573-.308c.004-.002.004-.007.007-.01.005-.002.01 0 .015-.003l1.488-.958a.313.313 0 00.093-.434.316.316 0 00-.436-.093l-1.478.952-.21.111.066-2.024v-.088l.062-.217.09-.107 3.253-1.805.633.09c.001.002.001.002.003.002l4.45.695h.002l5.274 1.013.001.001 2.28.556.685.197h.004l3.335.938v.001l4.006 1.294 3.478 1.432.004.002.253.11 3.157 1.702 2.946 2.018 2.759 2.504 2.603 3.126 2.083 3.42 1.22 3.354.12.655.523 3.06v.974z"/></g></svg>45.7222866,60.0920834 45.715964,60.103477 L45.5490498,60.4136364 C45.5009987,60.4402215 45.4744442,60.4807321 45.4453607,60.5288385 C45.3442005,60.5870725 45.2670659,60.6769554 45.2733884,60.8010192 L45.2759174,60.8592532 L45.2025763,61.0364872 C45.1949893,61.0554765 45.2063698,61.0731999 45.2025763,61.0921893 C45.1975183,61.1149765 45.1747573,61.1314339 45.1747573,61.1529552 C45.1747573,61.1719446 45.1924603,61.1833382 45.1962538,61.2010616 C45.1987828,61.2225828 45.1962538,61.2403062 45.2025763,61.2605615 C45.2114278,61.2884126 45.2354534,61.30487 45.2531564,61.3301892 C45.2645369,61.3466466 45.2620079,61.3669019 45.2759174,61.3820934 C45.2822399,61.3909551 45.2961495,61.3871572 45.3037365,61.393487 L45.350523,62.3442206 C45.3517875,62.3708057 45.3745486,62.3872631 45.3821356,62.4138482 C45.3884581,62.4366354 45.3783421,62.4606886 45.3897226,62.4834758 L45.7627506,63.153167 C45.7678086,63.1620287 45.7766601,63.1645606 45.7817181,63.1734223 C45.7855116,63.1784861 45.7817181,63.1848159 45.7855116,63.1898797 L46.6731919,64.3735493 C46.6769854,64.3786132 46.6833079,64.3760812 46.6883659,64.3811451 C46.6934239,64.3862089 46.6896304,64.3950706 46.6946884,64.4001344 L47.8618236,65.6458359 C47.8681461,65.6521657 47.8782621,65.6496338 47.8845846,65.6559636 C47.8909071,65.6622934 47.8896426,65.672421 47.8959651,65.6774848 L49.4829149,66.9396438 C49.4879729,66.9434417 49.4955599,66.9421757 49.5006179,66.9459736 C49.5044114,66.9497714 49.5044114,66.9561012 49.5094694,66.9586331 L51.3442615,68.1372389 L51.3821965,68.1764836 C51.3935771,68.1878772 51.4087511,68.1840793 51.4213961,68.194207 C51.4340411,68.2030687 51.4353056,68.2207921 51.4479506,68.2283878 L53.6570352,69.5209297 C53.6633578,69.5247276 53.6696803,69.5234616 53.6760028,69.5259935 C53.6785318,69.5285255 53.6797963,69.5335893 53.6835898,69.5348552 L56.4528487,70.8273971 C56.4591712,70.8299291 56.4667582,70.8299291 56.4730807,70.832461 C56.4768742,70.8337269 56.4768742,70.8375248 56.4806677,70.8387908 L60.1059943,72.1313327 C60.1097878,72.1325986 60.1148458,72.1325986 60.1186394,72.1338646 C60.1199039,72.1338646 60.1211684,72.1363965 60.1236974,72.1376624 L64.0133048,73.2744917 C64.0196274,73.2757576 64.0246854,73.2757576 64.0297434,73.2770236 C64.0322724,73.2770236 64.0322724,73.2795555 64.0348014,73.2795555 L67.690476,74.0897678 C67.695534,74.0910338 67.700592,74.0910338 67.7056501,74.0910338 C67.7081791,74.0910338 67.7081791,74.0935657 67.7094436,74.0935657 L70.7745959,74.5923527 C70.7809184,74.5936187 70.7859764,74.5936187 70.7922989,74.5936187 C70.7935634,74.5936187 70.7935634,74.5948846 70.7948279,74.5948846 L73.7980196,74.8911185 C73.8068712,74.8923845 73.8144582,74.8923845 73.8220452,74.8923845 L73.8220452,74.8923845 L77.4941584,74.9708738 C77.4966874,74.9708738 77.4992164,74.9708738 77.5017454,74.9708738 C77.5080679,74.9708738 77.5143904,74.9708738 77.5207129,74.9708738 L80.1812246,74.8151611 C80.1824891,74.8151611 80.1850182,74.8126292 80.1862827,74.8126292 C80.1976632,74.8113632 80.2103082,74.8113632 80.2216887,74.8088313 L82.5091724,74.3720762 C82.5142304,74.3708103 82.5167594,74.3644805 82.5218174,74.3632145 C82.5395205,74.3594166 82.555959,74.3606826 82.571133,74.3530869 L84.4388021,73.5745234 C84.4514472,73.5694596 84.4539762,73.5555341 84.4640922,73.5504702 C84.4780017,73.5428745 84.4931757,73.5454064 84.5070852,73.5352788 L85.9233272,72.4756729 C85.9385013,72.4642793 85.9385013,72.444024 85.9498818,72.4300985 C85.9612623,72.4187049 85.9789653,72.4225027 85.9878168,72.4098432 L86.799627,71.3059288 L86.8464135,71.2590884 C86.8527361,71.2527586 86.850207,71.242631 86.8565296,71.2363012 C86.8666456,71.2236416 86.8805551,71.2185778 86.8881421,71.2059182 L86.9652767,71.0818545 C87.0120633,71.007163 87.0247083,70.9223439 87.0070053,70.8438546 L87.3749753,69.5854935 C87.3800333,69.5740999 87.3699173,69.5627063 87.3724463,69.5525786 C87.3749753,69.5399191 87.3876203,69.5323233 87.3876203,69.5196638 L87.4660194,68.4296749 C87.4660194,68.4182813 87.4559034,68.4106856 87.4559034,68.399292 C87.4546389,68.3777707 87.4647549,68.370175 87.4634904,68.3600473 Z M86.7591629,69.4335787 L86.3393483,70.8641099 L86.3317613,70.8717056 C86.3254388,70.8780354 86.3279678,70.8868971 86.3229098,70.8932269 C86.3165873,70.8995567 86.3077358,70.8995567 86.3026778,70.9058865 L85.5047772,71.9895455 L84.1580828,72.9972471 L82.3561677,73.7492255 L80.1306446,74.174587 L77.4891003,74.3290337 L73.8511287,74.2505444 L70.868169,73.9568424 L67.8156617,73.4605873 L64.1878061,72.6567047 L60.3045211,71.5211415 L56.7095425,70.2387272 L53.9668382,68.9575789 L51.8070691,67.694154 L51.7754566,67.6625051 C51.7653406,67.6523775 51.7501666,67.6561753 51.741315,67.6473136 C51.7324635,67.6384519 51.731199,67.6245264 51.7198185,67.6181966 L49.8698524,66.4307291 L48.3132507,65.1913574 L47.1714056,63.9709751 L46.3077509,62.8214863 L45.9802449,62.2328164 L45.9385164,61.3846253 L45.9916254,60.923817 L46.2571708,60.4313598 L47.2055471,59.3160519 L48.6420212,57.9386909 L50.4995743,56.5701916 L52.5366867,55.3434794 L56.9270369,53.3014911 L56.9308304,53.3002251 L56.9308304,53.3002251 L56.9320949,53.2989592 C56.9333594,53.2989592 56.9333594,53.2989592 56.9333594,53.2989592 L57.4328376,53.0875444 L59.893558,52.3317682 L61.964812,51.8228535 L63.4885366,51.5810558 L66.9912065,51.7038536 L68.4681446,52.0393321 L72.5056988,53.2584485 L74.4745281,54.0749907 L75.1712686,54.4699692 L76.4939374,55.2181497 L78.5765719,56.5372767 L80.7274894,58.2589779 L81.3546823,58.902084 L82.7823048,60.5452959 L84.5209948,62.8113586 L85.6767494,64.8647406 C85.6792784,64.8698044 85.6868654,64.8723363 85.6893944,64.8774001 L85.8942437,65.3622616 C85.8942437,65.3622616 85.8942437,65.3622616 85.8942437,65.3635276 L86.4506245,66.7079737 L86.7313439,67.5802179 L86.8337685,68.4068877 L86.7591629,69.4335787 Z" id="toilet-hole"></path>
                        <path d="M98.4555939,62.2171302 L98.329574,61.5230676 C98.3157118,61.4540378 98.298069,61.3875183 98.2741252,61.3209987 L97.034089,57.9071644 C97.0063646,57.8293491 96.9685587,57.755299 96.9269721,57.6837591 L94.8173984,54.2247417 C94.7858934,54.172028 94.7493476,54.1218246 94.7102814,54.0741313 L92.0739444,50.9088041 C92.0373986,50.8648761 91.9958121,50.8222031 91.9529653,50.7820404 L89.1616237,48.2480215 C89.118777,48.2103689 89.07467,48.1739714 89.0267824,48.1413391 L86.0501916,46.1030792 C86.0136458,46.0779775 85.9758398,46.055386 85.9367736,46.0340495 L82.7572907,44.3196018 C82.7283061,44.3020306 82.6980613,44.2882247 82.6665563,44.2744187 L82.3867921,44.1514203 L78.8708359,42.704306 C78.8418513,42.6905 78.8090862,42.6792042 78.7788414,42.6704186 L74.7613259,41.3726596 L71.5705012,40.4740179 L64.6696496,35.7009253 L64.6696496,19.8353814 L66.6380809,18.7572624 C67.0413447,18.5363672 67.2921244,18.1159134 67.2921244,17.6578069 L67.2921244,13.1470273 C67.2921244,12.7353591 67.0892323,12.3487925 66.7489785,12.1153465 L58.7782176,6.61806922 C58.7504933,6.59798785 58.7202485,6.58041664 58.6912639,6.56284543 L47.5725251,0.168181543 C47.3771942,0.0564788764 47.1604399,0 46.9424254,0 C46.724411,0 46.5076567,0.0564788764 46.3123258,0.168181543 L0.63009967,26.4383896 C0.239437875,26.66305 0,27.0772284 0,27.5252942 L0,32.0348187 C0,32.4828844 0.239437875,32.8983179 0.63009967,33.1217233 L2.71320918,34.3190755 L2.71320918,73.6233531 C2.71320918,74.0714188 2.95264706,74.4868523 3.34330885,74.7102577 L13.0342418,80.2853503 L20.8714215,85.030831 L20.8714215,92.5249504 C20.8714215,92.9604652 21.0982574,93.3633479 21.468756,93.5930287 L63.4132308,119.416426 C63.5581537,119.505537 63.7194593,119.564526 63.8870658,119.589628 L66.7401571,120.021378 C66.7880447,120.028908 66.834672,120.033928 66.8825596,120.035183 L69.8289057,120.144376 C69.8452883,120.145631 69.8591504,120.145631 69.875533,120.145631 C69.9057778,120.145631 69.938543,120.144376 69.970048,120.141866 L72.8836289,119.924736 C72.9252154,119.922226 72.966802,119.91595 73.0096488,119.90842 L75.8173729,119.413916 C75.8677809,119.40513 75.9169287,119.393834 75.9635561,119.380029 L78.5696483,118.591834 C78.6225767,118.575518 78.675505,118.556692 78.725913,118.532845 L81.0358584,117.483593 C81.0950878,117.455981 81.1543171,117.423349 81.2085057,117.388207 L83.1303097,116.12057 C83.1971003,116.076642 83.2601102,116.026438 83.3168192,115.971215 L84.820237,114.504019 C84.889548,114.437499 84.9487774,114.364704 85.0004455,114.283124 L86.0237274,112.69293 C86.0892578,112.593778 86.1384055,112.484585 86.1724309,112.369117 L86.6676893,110.684792 C86.7017146,110.570579 86.7193574,110.451346 86.7193574,110.332113 L86.7193574,99.3902715 L86.8831833,99.3124562 C86.9285505,99.2898647 86.9739177,99.266018 87.0167645,99.237151 L89.2964651,97.8000774 C89.3355313,97.7762308 89.3733372,97.749874 89.4073626,97.7222621 L91.375794,96.1634451 C91.4224214,96.1257925 91.4665283,96.0856297 91.5068547,96.0417017 L93.1186497,94.3423151 C93.1640169,94.2946218 93.2056034,94.2431633 93.2434094,94.1891946 L94.4834456,92.3818705 C94.5250321,92.3203713 94.5615779,92.2563619 94.5918227,92.1898424 L95.4462379,90.3059581 C95.4802632,90.2268876 95.5092478,90.1440519 95.5268906,90.0599612 L95.946537,88.1597608 C95.952838,88.134659 95.9578788,88.1108124 95.9603992,88.0857107 L98.8676791,69.761453 L98.9319492,69.5066705 C98.955893,69.4125391 98.9672348,69.3158974 98.968495,69.2180007 L99,66.5308613 L99,65.5117313 C99,65.4401914 98.993699,65.3711617 98.9823572,65.3008769 L98.4555939,62.2171302 Z M69.3790145,40.8706251 L68.1213356,40.563129 C68.117555,40.5618739 68.1150346,40.5656392 68.111254,40.5643841 C68.1087336,40.5643841 68.1087336,40.5606188 68.1062132,40.5606188 L62.8020341,39.5414889 C62.7995137,39.5414889 62.7969933,39.542744 62.7957331,39.542744 C62.7932127,39.5414889 62.7919525,39.5389787 62.7894321,39.5389787 L59.2520526,38.9867408 L63.3880268,36.7263307 L69.3790145,40.8706251 Z M53.5874566,41.3864655 L34.0833514,52.0634833 L33.8376125,51.8865162 C33.8212299,51.8752204 33.8010667,51.8814958 33.7834239,51.8739653 C33.7456179,51.855139 33.7128528,51.8488636 33.6712662,51.8476085 C33.6296796,51.8463534 33.5956542,51.8476085 33.556588,51.8614145 C33.5389453,51.8676899 33.5187821,51.8576492 33.5023995,51.8676899 L30.0746573,53.7528293 C30.0507135,53.7666352 30.0456727,53.7942471 30.0267697,53.8130734 C30.0078667,53.8306446 29.9801423,53.8318997 29.9650199,53.8532362 L29.8402602,54.0377338 C29.8276582,54.0565601 29.8364796,54.0778966 29.8276582,54.097978 C29.8188368,54.1180593 29.7986736,54.1255899 29.7936328,54.1469263 L29.7482656,54.3628011 C29.7470054,54.3703317 29.7533064,54.3766071 29.7520462,54.3841376 C29.750786,54.3929232 29.7419646,54.3979435 29.7419646,54.4054741 L29.738184,54.4531673 L20.2451024,59.6442036 L20.2451024,43.0933827 L63.0944004,19.6245269 L63.0944004,36.1740928 L58.2350717,38.829855 L57.5936303,38.7369787 C57.5608651,38.7319583 57.5331407,38.7545499 57.5016357,38.7608253 C57.4650899,38.7658457 57.427284,38.7545499 57.395779,38.7733762 L53.9995417,40.6572605 C53.981899,40.6673012 53.9793786,40.6886376 53.9655164,40.7024436 C53.9478736,40.7149944 53.9264502,40.7124843 53.9138482,40.7288004 L53.7412009,40.9296142 C53.7260785,40.9484405 53.7323795,40.9722871 53.7210377,40.9923685 C53.7096959,41.01496 53.6857521,41.0224905 53.6794511,41.0475923 L53.5861964,41.3714045 C53.583676,41.3751697 53.5887168,41.3801901 53.5874566,41.3864655 Z M53.5572118,42.1181807 L53.4979824,43.9631574 L38.4600237,52.2153487 L36.4500057,53.1729795 L35.7480747,53.1729795 L34.6643033,52.4613456 L53.5572118,42.1181807 Z M29.6827353,55.3304725 C29.6827353,55.3342378 29.6789547,55.336748 29.6789547,55.3405132 L29.6789547,56.9620845 C29.6789547,56.9758905 29.6915567,56.9846761 29.6940771,56.9972269 C29.6953373,57.0097778 29.6852557,57.0210736 29.6877761,57.0336244 L29.750786,57.2959374 C29.7520462,57.303468 29.7596074,57.3072332 29.7621278,57.3135087 C29.7646482,57.3197841 29.7596074,57.3260595 29.7621278,57.3323349 L31.0172864,60.7599752 C31.0185466,60.7662506 31.0248476,60.7687608 31.027368,60.7737811 C31.0286282,60.7788015 31.0261078,60.7825667 31.027368,60.7875871 L32.0040225,62.8421631 C32.0065429,62.8471834 32.0128438,62.8496936 32.0153642,62.854714 C32.0178846,62.8584792 32.0153642,62.8634996 32.0166244,62.8672648 L33.1192989,64.734833 C33.1218193,64.7411084 33.1293805,64.7423635 33.1319009,64.748639 C33.1344213,64.7511491 33.1319009,64.7561695 33.1344213,64.7599347 L34.4979569,66.6450741 L34.8987003,67.212373 C34.9024809,67.2186485 34.9125625,67.2161383 34.9176033,67.2224137 C34.9226441,67.2286892 34.9201237,67.2399849 34.9264247,67.2462604 L35.9761708,68.3695625 L36.704566,69.1866236 C36.704566,69.1866236 36.7058262,69.1866236 36.7058262,69.1878786 C36.7058262,69.1878786 36.7058262,69.1891337 36.7058262,69.1891337 L36.8608307,69.3598254 C36.8608307,69.3598254 36.8608307,69.3598254 36.8620909,69.3610805 C36.8620909,69.3610805 36.8620909,69.3623356 36.8633511,69.3635907 L37.064983,69.5794655 C37.0687636,69.5844859 37.0763248,69.5819757 37.0813656,69.586996 C37.0851462,69.5907613 37.083886,69.5970367 37.0876666,69.600802 L39.2589901,71.5010024 C39.2640309,71.5060227 39.2728523,71.5047677 39.2791532,71.5085329 C39.284194,71.5135533 39.284194,71.5223389 39.290495,71.5261041 L42.128464,73.4413656 C42.1335048,73.4451308 42.141066,73.4438757 42.1461067,73.4463859 C42.1498873,73.4488961 42.1498873,73.4551715 42.1549281,73.4576817 L44.8328517,74.8985206 L44.0263242,74.6763703 L38.2571316,71.8787833 L33.9459896,68.2917471 C33.9396886,68.2867268 33.929607,68.289237 33.9233061,68.2842166 C33.9157449,68.2791963 33.9157449,68.2679005 33.9081837,68.2628802 L20.558892,60.188911 L29.6865159,55.1974334 L29.6789547,55.3216869 C29.6776945,55.322942 29.6827353,55.3254522 29.6827353,55.3304725 Z M65.715615,17.4720542 L63.2582263,18.8175065 L20.1682302,42.4194014 L20.1682302,38.6139802 L65.7168752,13.6779288 L65.7168752,17.4720542 L65.715615,17.4720542 Z M46.9424254,1.61906112 L57.9011189,7.92084864 L65.4345906,13.1169053 L19.8607416,38.0680178 L12.4646317,33.6049314 C12.4646317,33.6049314 12.4633715,33.6049314 12.4621113,33.6049314 C12.4608511,33.6036764 12.4608511,33.6024213 12.4595909,33.6011662 L1.89155921,27.5252942 L46.9424254,1.61906112 Z M1.57524918,31.8528312 L1.57524918,28.0687465 L12.1432808,34.1446185 C12.1432808,34.1446185 12.1432808,34.1446185 12.144541,34.1446185 L19.5368704,38.6051946 L19.5368704,42.3804937 L13.8269072,38.9327721 L13.8269072,38.9327721 L12.4633715,38.1144559 C12.4633715,38.1144559 12.4621113,38.1144559 12.4608511,38.1144559 C12.4595909,38.1132009 12.4595909,38.1119458 12.4583307,38.1106907 L4.13093344,33.3237921 L1.57524918,31.8528312 Z M63.7610458,117.786069 L22.4466707,92.3517485 L22.4466707,84.8839859 L33.5641492,91.5811256 L37.8853728,95.1769474 C37.8967146,95.1869881 37.911837,95.1832228 37.9231788,95.1907533 C37.9345206,95.1982838 37.9357808,95.2133449 37.9483827,95.2183652 L43.7793251,98.0749413 C43.7931873,98.0812167 43.8070495,98.0799616 43.8209117,98.084982 C43.8272127,98.0874921 43.8297331,98.0950226 43.8360341,98.0962777 L50.752008,99.965101 C50.7608294,99.9676112 50.7696508,99.9663561 50.777212,99.9688663 C50.7797324,99.9688663 50.7822528,99.9726315 50.7847732,99.9726315 L63.762306,102.091217 L63.762306,117.786069 L63.7610458,117.786069 Z M85.1441082,110.28944 L84.6740539,111.885909 L83.694879,113.407074 L82.2355682,114.830341 L80.362912,116.065346 L78.0932929,117.095772 L75.5237465,117.87267 L72.7500477,118.360899 L69.875533,118.575518 L66.9581716,118.466326 L64.3936659,118.078504 L64.3936659,102.194134 L68.0116982,102.79532 C68.029341,102.799086 68.0457236,102.800341 68.0633664,102.800341 C68.0684072,102.800341 68.073448,102.800341 68.0784888,102.800341 L71.443221,102.645965 C71.4444812,102.645965 71.4444812,102.64471 71.4457414,102.64471 C71.4520424,102.64471 71.4596036,102.643455 71.4659046,102.643455 L74.7537647,102.256888 C74.7550249,102.256888 74.7550249,102.255633 74.7562851,102.255633 C74.7638463,102.254378 74.7714075,102.254378 74.7789687,102.253123 L77.9723138,101.62056 C77.973574,101.62056 77.9748342,101.618049 77.9760944,101.618049 C77.9823954,101.616794 77.9886964,101.616794 77.9949974,101.615539 L81.0194758,100.780907 C81.0219962,100.779652 81.0232564,100.775887 81.027037,100.774632 C81.033338,100.772121 81.039639,100.773376 81.0472002,100.770866 L83.8675263,99.7052982 C83.8700467,99.7040431 83.8713069,99.7002778 83.8738273,99.7002778 C83.8801283,99.6977677 83.8876895,99.6977677 83.8939905,99.6952575 L85.1478888,99.0940712 L85.1478888,110.28944 L85.1441082,110.28944 Z M94.4078336,87.8384587 L93.9982688,89.6947311 L93.1690577,91.5246467 L91.9605265,93.2867876 L90.3777161,94.953542 L88.4407897,96.4872573 L86.1913339,97.9055046 L85.3243168,98.3134076 C85.3243168,98.3134076 85.3243168,98.3134076 85.3230566,98.3134076 L83.619267,99.1304687 L80.8430479,100.178466 L77.8286511,101.010588 L74.6617701,101.636876 L71.4091956,102.019677 L68.0747082,102.172798 L64.129024,101.516387 C64.129024,101.516387 64.129024,101.515132 64.1265036,101.515132 L50.8956708,99.353874 L44.031365,97.4988567 L38.2558714,94.6686375 L33.9459896,91.0828564 C33.9396886,91.0765809 33.929607,91.0803462 33.9220459,91.0753259 C33.9144847,91.0703055 33.9144847,91.0590097 33.9069235,91.0539894 L22.2941865,84.0593943 C22.2941865,84.0581392 22.2941865,84.0581392 22.2941865,84.0581392 L13.8269072,78.9311124 C13.825647,78.9298573 13.8243868,78.9311124 13.8231266,78.9298573 C13.8218664,78.9298573 13.8218664,78.9286022 13.8206062,78.9273471 L4.28719816,73.4426207 L4.28719816,34.1395981 L12.1420206,38.6553981 C12.1420206,38.6553981 12.1432808,38.6553981 12.144541,38.6553981 L13.4992553,39.4686939 C13.4992553,39.469949 13.4992553,39.469949 13.4992553,39.469949 L19.6124823,43.1611573 L19.6124823,60.1725949 C19.6124823,60.1876559 19.6250843,60.1951864 19.6276047,60.2077373 C19.6313853,60.2340941 19.6364261,60.2554306 19.6477679,60.2805323 C19.6528087,60.2955933 19.6452475,60.3093993 19.6515485,60.3232052 C19.6616301,60.3420315 19.6805331,60.349562 19.6931351,60.3658781 C19.7057371,60.3809392 19.7158187,60.392235 19.7322013,60.4047858 C19.7410227,60.4123163 19.7473237,60.4236121 19.7561451,60.4298875 C19.7599257,60.4323977 19.7599257,60.4386731 19.7637063,60.4411833 L33.5641492,68.7862511 L37.8828524,72.3808178 C37.8941942,72.3908585 37.9093166,72.3883483 37.9231788,72.3958788 C37.9332604,72.4034093 37.9357808,72.4172153 37.9471225,72.4222356 L43.7780649,75.2486896 C43.7906669,75.254965 43.8045291,75.25371 43.8158709,75.2574752 C43.8221719,75.2599854 43.8246923,75.2675159 43.8309933,75.2700261 L48.4483637,76.5477038 L50.00597,77.2317257 C50.0135312,77.2342359 50.0198322,77.2342359 50.0261332,77.235491 C50.031174,77.2367461 50.031174,77.2417664 50.0349546,77.2430215 L50.7331051,77.4752124 C50.7356255,77.4764675 50.7381459,77.4752124 50.7406663,77.4764675 C50.7419265,77.4764675 50.7431866,77.4789777 50.7431866,77.4789777 L51.0065683,77.556793 C51.0090887,77.556793 51.0090887,77.556793 51.0116091,77.556793 L55.0870938,78.9424081 C55.094655,78.9449183 55.100956,78.9436632 55.107257,78.9461734 C55.1097774,78.9461734 55.1122978,78.9499386 55.1148182,78.9511937 L60.759251,80.3255131 C60.7668122,80.3280232 60.7743734,80.3267681 60.7831948,80.3280232 C60.784455,80.3280232 60.784455,80.3305334 60.7857152,80.3305334 L66.3217709,81.1952878 C66.3293321,81.1965428 66.3368933,81.1965428 66.3431943,81.1965428 C66.3444545,81.1965428 66.3444545,81.1977979 66.3444545,81.1977979 L68.3721152,81.3684896 C68.3733754,81.3684896 68.3733754,81.3684896 68.3733754,81.3684896 L71.4293588,81.6458637 C71.43692,81.6471188 71.443221,81.6471188 71.4507822,81.6471188 C71.4507822,81.6471188 71.4507822,81.6471188 71.4520424,81.6471188 L75.7619242,81.7399951 C75.7644446,81.7399951 75.7657048,81.7399951 75.7682252,81.7399951 C75.7745262,81.7399951 75.7820873,81.7399951 75.7871281,81.7399951 L77.8198297,81.6157416 L79.4618694,81.5241203 C79.4643898,81.5241203 79.4643898,81.5216101 79.4669102,81.5216101 C79.4769918,81.5216101 79.4883336,81.5216101 79.4984152,81.5191 L82.6438728,80.9781578 C82.6463932,80.9781578 82.6476534,80.9756477 82.6501738,80.9743926 C82.6589952,80.9731375 82.6690767,80.9731375 82.6778981,80.9706273 L85.4856223,80.1661171 C85.4894029,80.164862 85.4894029,80.1610968 85.4931835,80.1598417 C85.4994845,80.1573315 85.5070457,80.1585866 85.5146069,80.1560764 L88.0891941,79.1520075 C88.0917145,79.1507524 88.0917145,79.1469872 88.0954951,79.144477 C88.1017961,79.1419668 88.1080971,79.1432219 88.1143981,79.1407117 L90.4860933,77.9672062 C90.4898739,77.964696 90.4898739,77.9609308 90.4936545,77.9584206 C90.4999554,77.9559104 90.5049962,77.9571655 90.5112972,77.9534002 L92.6826207,76.624264 C92.6864013,76.6217539 92.6864013,76.6154784 92.6914421,76.6129682 C92.6964829,76.609203 92.7040441,76.6104581 92.7090849,76.6066928 L94.5855217,75.1859353 C94.5930829,75.1796599 94.5918227,75.1696192 94.5993839,75.1633438 C94.6056849,75.1570683 94.6145063,75.1595785 94.6220675,75.1533031 L96.1557301,73.57817 C96.1620311,73.5718945 96.1595107,73.5631089 96.1658117,73.5568335 C96.1758933,73.5442826 96.1910157,73.5380072 96.1998371,73.5242013 L96.8488397,72.4674187 L94.4078336,87.8384587 Z M97.426011,66.5170553 L97.394506,69.1665422 L97.3277155,69.4326204 L96.8362377,71.2073122 L96.7467636,71.4256972 L95.6730737,73.1727771 L94.1835181,74.6989619 L92.3322853,76.1008931 L90.1886862,77.4124581 L87.842195,78.5734128 L85.2991128,79.5649309 L82.5153324,80.3631656 L79.4139818,80.8953222 L77.7807635,80.9869435 L77.7795033,80.9869435 C77.7795033,80.9869435 77.7795033,80.9869435 77.7782431,80.9869435 L75.754363,81.111197 L71.474726,81.0183206 L68.4300844,80.7422017 C68.4288242,80.7422017 68.4288242,80.7422017 68.4288242,80.7422017 L68.4288242,80.7422017 L66.4112451,80.572765 L60.9016535,79.7105208 L55.2698227,78.3399668 L51.1993788,76.9568619 C51.1968584,76.9556068 51.194338,76.9581169 51.1930778,76.9568619 C51.1892972,76.9568619 51.1892972,76.9530966 51.1867768,76.9518415 L50.9233952,76.8740262 L50.922135,76.8740262 L50.2466681,76.6493657 L48.6802403,75.9615785 C48.6802403,75.9615785 48.6802403,75.9603235 48.6789801,75.9603235 L45.8485724,74.7278289 L42.4687178,72.907954 L39.6584732,71.0102637 L37.5224354,69.1414404 L37.3258443,68.930586 C37.3258443,68.930586 37.3245841,68.930586 37.3245841,68.9293309 L37.1758805,68.7661697 L36.4474853,67.9491086 C36.4462251,67.9478535 36.4449649,67.9478535 36.4437047,67.9478535 C36.4437047,67.9465984 36.4437047,67.9453434 36.4424445,67.9440883 L35.4027801,66.8320819 L35.0108581,66.278589 C35.0108581,66.2773339 35.0095979,66.278589 35.0095979,66.2773339 C35.0095979,66.2760788 35.0095979,66.2760788 35.0095979,66.2748237 L33.657404,64.4060004 L32.569852,62.5622789 L31.6020189,60.5277843 L30.3582021,57.1315212 L30.3077941,56.9244319 L30.3077941,55.351809 L30.3544215,54.6677871 L30.3695439,54.4707385 L30.3972683,54.3364443 L30.4451559,54.2649044 L33.6309398,52.5128042 L33.8565155,52.6747103 C33.8602961,52.6772204 33.8653369,52.6759654 33.8691175,52.6784755 C33.8754185,52.6834959 33.8741583,52.6935366 33.8817195,52.6985569 L35.4796522,53.749064 C35.5325806,53.7829513 35.5930702,53.8005225 35.6535597,53.8005225 L36.5218371,53.8005225 C36.5672043,53.8005225 36.6138316,53.7904819 36.6579386,53.7704005 L38.7347471,52.7813926 C38.7372675,52.7801375 38.7372675,52.7763723 38.7397879,52.7751172 C38.7423083,52.7738621 38.7473491,52.7751172 38.7498695,52.772607 L54.0827149,44.3572544 L54.0839751,44.3572544 L54.6573658,44.0485032 C54.6611464,44.0472481 54.6611464,44.0422278 54.6636668,44.0397176 C54.6687076,44.0372074 54.6737484,44.0384625 54.6787892,44.0359524 L56.1670846,43.0783216 C56.3132677,42.9841902 56.3548543,42.7909069 56.2603394,42.6440618 C56.1658244,42.4972168 55.9717537,42.4583091 55.8243104,42.5511855 L54.3460966,43.5025408 L54.1369035,43.6142434 L54.2024338,41.5897895 C54.2024338,41.5872793 54.2011736,41.5860242 54.2011736,41.5847691 C54.2011736,41.582259 54.2024338,41.582259 54.2024338,41.5797488 L54.2024338,41.5019334 L54.2641836,41.2848035 L54.354918,41.1781212 L57.6074925,39.3733073 L58.2401125,39.4636735 C58.2413727,39.4649286 58.2413727,39.4649286 58.2426329,39.4649286 L62.6923968,40.1602464 C62.6923968,40.1602464 62.693657,40.1602464 62.6949172,40.1602464 L67.9688514,41.1731009 C67.9701116,41.1731009 67.9701116,41.174356 67.9701116,41.174356 L70.2498122,41.7303591 L70.2498122,41.7303591 L70.9353607,41.9274076 C70.9366209,41.9274076 70.9378811,41.9274076 70.9391413,41.9274076 L74.2736287,42.864957 C74.2748889,42.864957 74.2748889,42.8662121 74.2748889,42.8662121 L78.2798024,44.1602059 L81.7579526,45.5922592 C81.7592128,45.5922592 81.760473,45.5922592 81.7617332,45.5935143 L82.0150333,45.7039618 L85.1718326,47.4058587 L88.1181787,49.4240372 L90.8767551,51.927934 L93.4803269,55.0543536 L95.5634364,58.4732082 L96.7833094,61.8280535 L96.9030283,62.4832085 L97.426011,65.5431085 L97.426011,66.5170553 L97.426011,66.5170553 Z" id="toilet-base"></path>
                    </g>
                </g>
            </g>
        </g>
    </g>
</svg>