<?xml version="1.0" encoding="utf-8"?><!DOCTYPE svg PUBLIC "-//W3C//DTD SVG 1.1//EN" "http://www.w3.org/Graphics/SVG/1.1/DTD/svg11.dtd"><svg xmlns="http://www.w3.org/2000/svg" xmlns:xlink="http://www.w3.org/1999/xlink"><symbol viewBox="0 0 32 31.085" id="icon-bird" xmlns="http://www.w3.org/2000/svg"><path d="M31.947 6.35c-.687-.42-5.126-1.472-5.131-1.473C26.551 3.127 25.603 0 22.2 0c-4.021 0-4.457 2.447-5.681 4.981C15.417 7.264 8.554 12.023 0 11.274c0 0 2.605 6.616 8.016 9.183-.004-2.937 2.349-5.646 5.712-6.331 3.409-.693 6.676.938 7.774 3.711 2.983-2.492 4.328-5.567 4.934-7.956l-.002.025c0 .001 6.201-3.135 5.513-3.556zm-7.945.002c-.402 1.211-1.547 1.92-2.553 1.584-1.009-.336-1.498-1.589-1.096-2.8.404-1.211 1.548-1.92 2.557-1.584 1.007.336 1.497 1.59 1.092 2.8z"/><path d="M21.143 18.134c-1.35-2.309-4.325-3.587-7.415-2.959-2.974.604-5.155 2.795-5.619 5.325 1.16.537 2.449.885 3.866.944l.729 6.669-2.331.934v.582l2.331-.467 1.224 1.924.699-.524-.699-1.34 1.923.35.233-.815-2.215-.467-1.177-6.836a11.76 11.76 0 002.975-.484l1.278 4.064-2.104 1.366.113.571 2.195-.91 1.574 1.647.584-.65-.946-1.18 1.954-.03.068-.847-2.262-.024-1.641-4.272c.214-.078.432-.162.648-.252 1.581-.655 2.904-1.446 4.015-2.319z"/></symbol><symbol viewBox="0 0 32 24.855" id="icon-github" xmlns="http://www.w3.org/2000/svg"><ellipse cx="13.446" cy="12.653" rx=".769" ry="1.306"/><ellipse cx="17.749" cy="12.653" rx=".769" ry="1.306"/><path d="M17.199 17.888c.041-.012.08-.021.121-.034 4.117-1.248 6.802-4.409 5.996-7.06-.803-2.65-4.791-3.786-8.907-2.538-4.115 1.249-6.8 4.41-5.996 7.061.574 1.894 2.774 3.014 5.483 3.043-1.163.505-2.106 1.354-2.835 2.264-.979.062-1.861.091-2.102.021-.61-.179-2.957-2.157-3.32-2.282-.363-.124-.491.384-.44.722.051.338 2.304 3.392 2.701 3.54.168.062.969.101 1.84.125-.383.812-.557 1.462-.52 1.662.12.652 9.78.538 10.379 0 .547-.494 2.587-6.1-2.4-6.524zm-4.679-1.961c-1.276-.397-1.868-2.143-1.321-3.898.547-1.755 2.024-2.856 3.301-2.46.523.163.929.556 1.19 1.079.514-.748 1.296-1.211 2.153-1.167 1.438.073 2.53 1.542 2.441 3.28s-1.326 3.088-2.765 3.014c-.884-.045-1.637-.618-2.064-1.457-.69 1.241-1.881 1.937-2.935 1.609z"/><path d="M31.984 12.544l.016-.52c-1.959-.151-4.076-.071-5.521.023.504-1.148.68-2.364.445-3.57a5.797 5.797 0 00-1.152-2.491c.265-2.014.59-5.479-.211-5.935-.724-.414-2.793 1.726-4.068 3.168-1.95-.604-4.251-.74-6.626-.281a14.629 14.629 0 00-3.449 1.117C9.98 2.706 8.146 1.18 7.451 1.472c-.805.34-.28 3.55.1 5.417-1.466 1.671-2.181 3.66-1.821 5.625-1.432.19-3.699.55-5.73 1.137l.12.507s3.249-.874 5.698-1.253c.092.356.215.7.372 1.028-1.295.332-3.876 1.05-6.108 2.025l.186.485s3.694-1.533 6.11-2.155a6.605 6.605 0 001.382 1.688 3.557 3.557 0 01-.155-.416c-.92-3.03 2.034-6.608 6.596-7.994 4.562-1.384 9.008-.049 9.927 2.981.743 2.448-1.042 5.253-4.16 6.971 2.269-.806 4.146-2.107 5.392-3.652 2.004-.012 5.55.682 5.55.682l.032-.514c-1.993-.438-4.207-.534-5.284-.556.237-.33.446-.669.625-1.016 2.458-.109 5.701.082 5.701.082z"/></symbol><symbol viewBox="0 0 32 28.641" id="icon-inbox" xmlns="http://www.w3.org/2000/svg"><path d="M31.934 14.267h.002s-.004-.013-.008-.019a.673.673 0 00-.089-.21C31.085 12.275 26.018.517 24.86.054 23.605-.447 5.823 2.684 4.822 3.561 3.915 4.354.693 17.15.096 19.548c-.011.015-.027.029-.033.042a.937.937 0 00-.06.331.2.2 0 00-.003.014l.003-.002c-.064 1.812 2.253 8.084 3.065 8.549.876.501 25.046-.251 25.922-1.253.812-.928 3.464-11.004 2.944-12.962zm-9.479-.779c-.296 1.979-.801 4.75-1.354 5.226-.875.752-11.146 2.755-12.021 2.188-.542-.351-1.755-4.069-1.755-4.069l-4.512.853S4.861 5.854 5.526 5.272c.937-.82 17.583-3.752 18.756-3.283.792.317 4.872 10.443 4.872 10.443s-3.679.679-6.699 1.056z"/><path d="M4.383 15.395l19.79-2.946v-2.066l-19.79 3.561zM4.759 12.057l21.1-3.365V6.627l-21.1 3.979zM22.982 3.245L5.886 6.807v1.449l17.096-2.944z"/></symbol><symbol viewBox="0 0 18.585 32" id="icon-info" xmlns="http://www.w3.org/2000/svg"><path d="M10.938 22.809c-1.562-1.005-1.785-5.748 1.897-13.114L9.822 7.908S8.482 11.703 0 15.609l1.674 3.906 4.465-2.688S0 29.448 5.246 31.681c5.246 2.232 12.725-8.036 12.725-8.036L16.52 19.18c0 .001-4.019 4.632-5.582 3.629z"/><ellipse transform="rotate(-26.237 14.621 3.387)" cx="14.621" cy="3.387" rx="4.13" ry="3.181"/></symbol><symbol viewBox="0 0 20.252 32" id="icon-lightbulb" xmlns="http://www.w3.org/2000/svg"><path d="M11.539.024C.915.945.064 12.349.064 12.349c-.637 6.161 3.612 8.146 4.816 9.42 1.204 1.273 2.267 3.823 2.267 3.823 4.038 1.771 6.657-1.133 6.657-1.133.426-2.338 3.967-8.783 3.967-8.783C24.783 2.149 15.065-.281 11.539.024zm-3.143 6.54c-1.404 1.333-3.081 1.848-3.744 1.15-.663-.699-.062-2.347 1.342-3.68 1.404-1.333 3.08-1.847 3.743-1.148.664.699.063 2.345-1.341 3.678zM7.37 27.051c.377 2.729 2.953 2.225 2.953 2.225 3.459-.354 3.128-3.258 3.128-3.258-2.408 2.159-6.081 1.033-6.081 1.033zM7.975 30.003c.271 2.282 2.738 1.983 2.738 1.983 3.028-.31 2.524-3.065 2.524-3.065-2.336 2.515-5.262 1.082-5.262 1.082z"/></symbol><symbol viewBox="0 0 32 21.458" id="icon-mail" xmlns="http://www.w3.org/2000/svg"><path d="M0 2.706l.513 18.005L9.05 10.263zM31.348 0L.934.561l14.74 11.568z"/><path d="M15.58 15.721l-5.695-4.84-6.917 10.222 27.166.355-7.837-11.941zM23.322 8.724L32 19.219l-.652-18.006z"/></symbol><symbol viewBox="0 0 31.311 31.92" id="icon-pencil" xmlns="http://www.w3.org/2000/svg"><path d="M2.209 26.569S1.131 29.889 0 31.049c0 0 .338.357 1.209.869 0 0 2.238-2.312 3.439-3.133 0 .002-.347-2.701-2.439-2.216zM30.305 4.062C26.391-3.411 19.98 1.715 19.98 1.715c8.543 2.505 7.371 13.036 7.371 13.036 6.6-3.913 2.954-10.689 2.954-10.689z"/><path d="M14.096 19.202c2.027-2.604 12.12-8.984 12.133-8.992-.438-1.187-.945-2.162-1.489-2.966-2.796 1.178-13.249 9.877-13.249 9.877 3.717-4.964 12.103-11.259 12.117-11.27-2.716-2.761-5.761-2.262-5.761-2.262C12.734 8.257 6.18 16.194 3.714 19.244c-.311.356-.644.771-1.001 1.247 0 0 2.854-2.358 3.785-1.207.934 1.152.658 3.457.658 3.457s1.865-2.358 2.963-1.152c1.097 1.206.383 2.854 0 3.291 0 0 1.59-1.591 1.92-.986.328.603.054 1.975-.934 3.235 0 0 .182-.21.436-.537 7.552-9.265 15.812-11.841 15.812-11.841a26.13 26.13 0 00-.621-2.972c-3.767 1.547-12.636 7.423-12.636 7.423z"/><path d="M11.408 24.88c-.056-.438-1.289 0-1.289 0 .191-.438-.083-1.617-.604-2.275-.521-.658-2.359.138-2.359.138 0-.55-.74-1.947-1.563-2.524-.821-.574-2.88.274-2.88.274.357 3.1-.504 6.077-.504 6.077 4.367-1.648 2.439 2.219 2.439 2.219 2.881-1.698 6.457-1.658 6.457-1.658.824-1.402.303-2.251.303-2.251z"/></symbol><symbol viewBox="0 0 32 29.654" id="icon-stars" xmlns="http://www.w3.org/2000/svg"><path d="M8.972 11.92c.556-.2 6.364 2.275 7.056 1.319.313-.437-3.79-4.869-3.79-4.869s3.153-4.545 2.758-4.841c-.646-.482-5.361 1.579-5.361 1.579s-3.382-5.34-4.01-5.1c-.63.24-.718 7.094-.718 7.094S.062 8.653.001 9.17c-.062.518 4.514 1.827 4.514 1.827s-1.088 6.109-.641 6.344c1.193.623 4.543-5.222 5.098-5.421zM27.993 12.879S29.751 8.57 29.372 8.4c-.619-.277-4.112 2.276-4.112 2.276s-3.753-3.767-4.226-3.454c-.474.312.709 5.954.709 5.954s-3.695 2.161-3.65 2.596c.044.438 4.041.677 4.041.677s.224 5.215.634 5.324c1.094.293 2.773-5.118 3.193-5.384.419-.266 5.643.705 6.033-.206.179-.415-4.001-3.304-4.001-3.304zM13.548 22.863s-1.104-4.104-1.557-4.074c-.451.027-1.876 4.411-1.876 4.411s-3.423.029-3.564.349c-.143.32 2.534 2.075 2.534 2.075s-1.919 3.706-1.678 3.944c.642.64 3.959-2.445 4.355-2.464.396-.017 3.633 2.733 4.268 2.257.288-.218-1.462-3.884-1.462-3.884s2.933-2.288 2.737-2.557c-.319-.439-3.757-.057-3.757-.057z"/></symbol></svg>