<svg height='300px' width='300px'  fill="#000000" xmlns="http://www.w3.org/2000/svg" xmlns:xlink="http://www.w3.org/1999/xlink" version="1.1" x="0px" y="0px" viewBox="0 0 100 100" style="enable-background:new 0 0 100 100;" xml:space="preserve"><path d="M50.7788887,43.8067055c1.7419014,0.1314659,2.3745689,1.6926003,2.5820389,2.4649506  c0.101902,0.379364,0.2052269,0.7655182,0.3348961,1.1363068c7.1226463,20.3674431,16.8421555,18.5331459,20.352211,18.4847069  c3.5110245-0.0484467,9.5092316,0,13.759903-3.7686348c3.7358398-3.3121834,5.33918-15.6958961,5.6727753-18.6471176  c0.0447311-0.3957481,0.302803-0.7282715,0.6725845-0.8761826l0.1301498-0.052063  c0.4824753-0.1929893,0.7988358-0.6602745,0.7988358-1.1799088v-4.0914192c0-0.5953026-0.4079208-1.1089134-0.9887695-1.239315  c-2.7552795-0.618557-10.7904282-2.2446327-17.985878-1.9596634c-8.8519135,0.3505707-16.7835808,2.0157814-20.5960388,3.0674934  c-2.0596046,0.7449646-5.2879524,0.6134987-5.2879524,0.6134987h-0.3650017c0,0-3.2283516,0.1314659-5.2879562-0.6134987  c-3.812458-1.051712-11.7441254-2.7169228-20.5960388-3.0674934c-7.1954498-0.2849693-15.2306013,1.3411064-17.9858799,1.9596634  c-0.5808458,0.1304016-0.98877,0.6440125-0.98877,1.239315v4.0914192c0,0.5196342,0.3163671,0.9869194,0.7988377,1.1799088  l0.1301541,0.052063c0.3697801,0.1479111,0.627852,0.4804344,0.672585,0.8761826  c0.3335881,2.9512215,1.9369354,15.3349342,5.6727695,18.6471176c4.2506714,3.7686348,10.2488842,3.7201881,13.7599068,3.7686348  c3.5100498,0.048439,13.2295628,1.8827362,20.3522091-18.4847069c0.1296692-0.3707886,0.2329941-0.7569427,0.3348961-1.1363068  c0.2074699-0.7723503,0.8401375-2.3334846,2.5820389-2.4649506H50.7788887z"></path></svg>