<svg width="253px" height="211px" viewBox="0 0 253 211" version="1.1" xmlns="http://www.w3.org/2000/svg" xmlns:xlink="http://www.w3.org/1999/xlink">
    <title>symbol-actions</title>
    <defs>
        <path d="M207.474161,211 C259.928543,211 252.657423,132.305276 252.657423,61.3173918 C252.657423,-9.67049237 147.431443,0.505164691 94.9770605,0.505164691 C42.5226784,0.505164691 0,58.052215 0,129.040099 C0,200.027983 155.019779,211 207.474161,211 Z" id="path-1"></path>
    </defs>
    <g id="Home" stroke="none" stroke-width="1" fill="none" fill-rule="evenodd">
        <g id="4" transform="translate(-496.000000, -1315.000000)">
            <g id="Module-3" transform="translate(474.000000, 1274.000000)">
                <g id="symbol-actions" transform="translate(22.000000, 41.000000)">
                    <mask id="mask-2" fill="white">
                        <use xlink:href="#path-1"></use>
                    </mask>
                    <use id="Oval" fill="#FD5A1E" xlink:href="#path-1"></use>
                    <g id="bulb" mask="url(#mask-2)" fill-rule="nonzero">
                        <g transform="translate(131.000000, 108.000000)">
                            <circle id="Oval" fill="#F8E71C" cx="70" cy="70" r="70"></circle>
                            <path d="M102.440387,59.5845997 C94.8373184,43.9808845 79.2967806,38.6842105 69.5627821,38.6842105 C59.8259853,38.6842105 44.2504683,43.979481 36.6487989,59.5817927 C29.0443312,75.1869114 35.1684812,89.655224 42.588259,99.3012335 C50.0052385,108.94584 50.7915698,113.202547 51.2560929,115.567384 C51.7192169,117.932221 50.2333025,121.619122 53.0666139,124.172023 C55.9013244,126.726328 69.5627821,127.105263 69.5627821,127.105263 C69.5627821,127.105263 83.1822648,126.726328 86.0155762,124.172023 C88.8502867,121.620525 87.3419856,117.930818 87.8065088,115.567384 C88.2696327,113.202547 89.0447708,108.94584 96.4645485,99.3012335 C103.884326,89.6566274 110.042056,75.1883148 102.440387,59.5845997 L102.440387,59.5845997 Z" id="Path" fill="#EFC75E"></path>
                            <path d="M82.4717763,71.0474671 C82.0672368,70.973023 81.6527961,70.9210526 81.2270395,70.9210526 L81.0983224,70.9350987 L79.9342105,71.0530855 C76.6823355,71.6683026 74.2197368,74.5393158 74.2197368,78.004477 L74.2197368,82.1691316 L63.0072039,82.1691316 L63.0072039,78.004477 C63.0072039,74.542125 60.5488487,71.6711118 57.3026316,71.0530855 L56.1286184,70.9350987 L56.0013158,70.9210526 C55.5699013,70.9210526 55.1554605,70.973023 54.7466776,71.0474671 C51.3873026,71.5938586 48.8157895,74.4648717 48.8157895,77.9553158 C48.8157895,81.8348355 51.9813816,84.9783421 55.8881579,84.9783421 L60.1315789,84.9783421 L60.1315789,127.105263 L62.9605263,127.105263 L62.9605263,84.9783421 L74.2763158,84.9783421 L74.2763158,127.105263 L77.1052632,127.105263 L77.1052632,84.9783421 L81.3486842,84.9783421 C85.2554605,84.9783421 88.4210526,81.8348355 88.4210526,77.9553158 C88.4210526,74.4606579 85.8410526,71.5840263 82.4717763,71.0474671 L82.4717763,71.0474671 Z M51.6447368,77.9553158 C51.6447368,75.6714276 53.4793092,73.8229671 55.7636842,73.7555461 L56.0013158,73.7555461 C58.3238816,73.7555461 60.2065461,76.9271447 60.2065461,80.8389704 L60.2206908,82.1691316 L55.8881579,82.1691316 C53.5457895,82.1691316 51.6447368,80.2813421 51.6447368,77.9553158 L51.6447368,77.9553158 Z M81.3486842,82.1691316 L77.0090789,82.1691316 L77.0232237,80.8389704 C77.0232237,76.9271447 78.9044737,73.7555461 81.2284539,73.7555461 L81.4745724,73.7555461 C83.7575329,73.8215625 85.5921053,75.6728322 85.5921053,77.9553158 C85.5921053,80.2813421 83.6924671,82.1691316 81.3486842,82.1691316 Z" id="Shape" fill="#DDB857"></path>
                            <path d="M69.540172,11.0526316 C67.9983582,11.0526316 66.747031,12.3092317 66.747031,13.8575426 L66.747031,25.0771866 C66.747031,26.6254974 67.9983582,27.8820976 69.540172,27.8820976 C71.0819858,27.8820976 72.3333129,26.6254974 72.3333129,25.0771866 L72.3333129,13.8575426 C72.3333129,12.3092317 71.0819858,11.0526316 69.540172,11.0526316 Z M94.3628157,16.8573949 C92.9494864,16.285193 91.3308612,16.9429447 90.7456982,18.3285707 L86.5112965,28.3519202 C85.9261335,29.7361437 86.5978839,31.3223209 88.0098166,31.8945228 C89.4217494,32.4667246 91.0417711,31.808973 91.6269342,30.4247494 L95.8613359,20.4013999 C96.4478955,19.0185788 95.7761451,17.4309992 94.3628157,16.8573949 Z M48.3332492,18.3285707 C47.7480861,16.9429447 46.129461,16.285193 44.7161316,16.8573949 C43.3028023,17.4309992 42.6324485,19.0185788 43.2176115,20.4013999 L47.4520132,30.4247494 C48.0371762,31.808973 49.6558014,32.4667246 51.0691308,31.8945228 C52.4824601,31.3223209 53.1528139,29.7361437 52.5676509,28.3519202 L48.3332492,18.3285707 Z M113.446951,31.4317124 C112.430248,30.4107248 110.782295,30.4107248 109.765592,31.4317124 L102.402872,38.8254578 C101.384772,39.8464454 101.384772,41.5013429 102.402872,42.523733 C103.420972,43.5447206 105.067529,43.5447206 106.085628,42.523733 L113.446951,35.1299876 C114.465051,34.1075975 114.465051,32.4541025 113.446951,31.4317124 Z M29.3133558,31.4317124 C28.2966524,30.4107248 26.6486993,30.4107248 25.631996,31.4317124 C24.6138961,32.4541025 24.6138961,34.1075975 25.631996,35.1299876 L32.993319,42.523733 C34.0114189,43.5447206 35.659372,43.5447206 36.6760753,42.523733 C37.6941752,41.5013429 37.6941752,39.8464454 36.6760753,38.8254578 L29.3133558,31.4317124 Z" id="Shape" fill="#EFC75E"></path>
                            <path d="M84.3138816,71.0474671 C83.9093421,70.973023 83.4949013,70.9210526 83.0691447,70.9210526 L82.9404276,70.9350987 L81.7763158,71.0530855 C78.5244408,71.6683026 76.0618421,74.5393158 76.0618421,78.004477 L76.0618421,82.1691316 L64.8493092,82.1691316 L64.8493092,78.004477 C64.8493092,74.542125 62.3909539,71.6711118 59.1447368,71.0530855 L57.9707237,70.9350987 L57.8434211,70.9210526 C57.4120066,70.9210526 56.9975658,70.973023 56.5887829,71.0474671 C53.2294079,71.5938586 50.6578947,74.4648717 50.6578947,77.9553158 C50.6578947,81.8348355 53.8234868,84.9783421 57.7302632,84.9783421 L61.9736842,84.9783421 L61.9736842,127.105263 L64.8026316,127.105263 L64.8026316,84.9783421 L76.1184211,84.9783421 L76.1184211,127.105263 L78.9473684,127.105263 L78.9473684,84.9783421 L83.1907895,84.9783421 C87.0975658,84.9783421 90.2631579,81.8348355 90.2631579,77.9553158 C90.2631579,74.4606579 87.6831579,71.5840263 84.3138816,71.0474671 L84.3138816,71.0474671 Z M53.4868421,77.9553158 C53.4868421,75.6714276 55.3214145,73.8229671 57.6057895,73.7555461 L57.8434211,73.7555461 C60.1659868,73.7555461 62.0486513,76.9271447 62.0486513,80.8389704 L62.0627961,82.1691316 L57.7302632,82.1691316 C55.3878947,82.1691316 53.4868421,80.2813421 53.4868421,77.9553158 L53.4868421,77.9553158 Z M83.1907895,82.1691316 L78.8511842,82.1691316 L78.8653289,80.8389704 C78.8653289,76.9271447 80.7465789,73.7555461 83.0705592,73.7555461 L83.3166776,73.7555461 C85.5996382,73.8215625 87.4342105,75.6728322 87.4342105,77.9553158 C87.4342105,80.2813421 85.5345724,82.1691316 83.1907895,82.1691316 Z" id="Shape" fill="#FFFFFF"></path>
                        </g>
                    </g>
                    <g id="tactics" mask="url(#mask-2)">
                        <g transform="translate(92.000000, -43.000000)">
                            <path d="M69.9993,0 C108.659913,0 140,31.3400866 140,69.9993 C140,108.659913 108.659913,140 69.9993,140 C31.3400866,140 0,108.659913 0,69.9993 C0,31.3400866 31.3400866,0 69.9993,0 Z" id="Path" fill="#F8E71C" fill-rule="nonzero"></path>
                            <g id="Group" stroke-width="1" fill="none" fill-rule="evenodd" transform="translate(27.403596, 23.254299)">
                                <path d="M30.6366568,18.7758763 C35.6034104,19.7414904 40.3805933,16.5106132 41.3045752,11.5632447 C42.2285571,6.61587632 38.9496852,1.82429738 33.9829316,0.858683342 C29.0161779,-0.105527184 24.2403992,3.12535001 23.3150131,8.07271843 C22.3910312,13.0186833 25.6699031,17.8116658 30.6366568,18.7758763 L30.6366568,18.7758763 Z M27.4602935,8.87692896 C27.9573901,6.21026229 30.5201058,4.4685079 33.1839259,4.98780615 C35.8491503,5.50710439 37.6086477,8.08956054 37.1129553,10.7576307 C36.6186671,13.4228939 34.0545472,15.1646483 31.3893228,14.6467535 C28.7226943,14.1260518 26.9660053,11.5435956 27.4602935,8.87692896 Z M11.2920148,53.282543 L15.5566546,49.0214904 C16.3458306,48.2313149 16.3458306,46.9527184 15.5566546,46.1639465 C14.7674786,45.3751746 13.4882271,45.3751746 12.6990511,46.1639465 L8.43441128,50.4278061 L4.1697715,46.1639465 C3.38059549,45.3751746 2.10134398,45.3751746 1.31357219,46.1639465 C0.524396181,46.9527184 0.524396181,48.2313149 1.31357219,49.0214904 L5.57680774,53.282543 L1.27144536,57.5857009 C0.482269347,58.3744728 0.482269347,59.6544728 1.27144536,60.4418412 C2.06062137,61.2306132 3.33987288,61.2306132 4.1290489,60.4418412 L8.43441128,56.1372798 L12.7411779,60.4418412 C13.5303539,61.2306132 14.8096054,61.2306132 15.5973772,60.4418412 C16.3865532,59.6530693 16.3865532,58.3744728 15.5973772,57.5857009 L11.2920148,53.282543 L11.2920148,53.282543 Z M83.0031192,40.7449991 L78.6963526,36.4404377 L82.9609924,32.1779816 C83.7501684,31.3892097 83.7501684,30.1120167 82.9609924,29.3218412 C82.1718164,28.5330693 80.8925649,28.5330693 80.1033888,29.3218412 L75.8401533,33.5842974 L71.5741093,29.3218412 C70.7863375,28.5330693 69.5056818,28.5330693 68.7193142,29.3218412 C67.9301382,30.1120167 67.9301382,31.3892097 68.7193142,32.1779816 L72.9811455,36.4404377 L68.6771874,40.7449991 C67.8880114,41.5337711 67.8880114,42.8123676 68.6771874,43.6011395 C69.4649592,44.3899114 70.7442107,44.3899114 71.5333867,43.6011395 L75.8401533,39.2965781 L80.1455157,43.6011395 C80.9346917,44.3899114 82.2139432,44.3899114 83.0031192,43.6011395 C83.7894868,42.810964 83.7894868,41.5337711 83.0031192,40.7449991 L83.0031192,40.7449991 Z M68.8667581,81.3527184 L73.1285895,77.0902623 C73.9191697,76.3014904 73.9191697,75.0228939 73.1285895,74.2355254 C72.3408177,73.4467535 71.0601619,73.4467535 70.2737944,74.2355254 L66.0077504,78.4965781 L61.7445148,74.2355254 C60.9553388,73.4467535 59.6746831,73.4467535 58.8869113,74.2355254 C58.0977353,75.0242974 58.0977353,76.3014904 58.8869113,77.0902623 L63.1515511,81.3527184 L58.8447844,85.6558763 C58.0570127,86.4446483 58.0570127,87.7232447 58.8447844,88.5120167 C59.6339605,89.3007886 60.913212,89.3007886 61.7037922,88.5120167 L66.0077504,84.2088588 L70.3131127,88.5120167 C71.103693,89.3007886 72.3829445,89.3007886 73.1707163,88.5120167 C73.9598923,87.7232447 73.9598923,86.4446483 73.1707163,85.6558763 L68.8667581,81.3527184 L68.8667581,81.3527184 Z M54.8090338,35.836929 L38.2349333,27.52535 L35.5065187,36.5527184 L33.1979682,44.2776307 C33.178309,44.4165781 33.1095019,44.6313149 33.1179272,44.7758763 C33.1937555,45.7990342 33.9815273,46.5330693 35.0052094,46.6621921 L35.4489454,46.6734202 C36.5344134,46.5934202 37.2421442,45.850964 37.6212857,44.7295605 L39.8989432,37.5267535 C46.6532788,50.408157 43.4867452,66.6074553 31.4848103,76.1035956 C28.615973,78.3730693 24.4636714,80.6692097 20.5627266,82.1849991 C20.5627266,82.1849991 16.5522521,83.2558763 16.668803,85.6516658 C16.8667991,89.682543 22.4963483,87.1744728 23.4821162,86.808157 C27.4462512,85.3302623 30.8795882,83.3920167 34.8914669,80.2200869 C48.7427698,69.2558763 52.5285679,50.6593851 45.0299915,35.6923676 L51.5779057,38.9667535 C52.3853366,39.3176307 53.2152353,39.7035956 54.0816438,39.6207886 C55.0477525,39.528157 55.7456537,38.6299114 55.7456537,37.4846483 C55.7456537,36.7913149 55.3622995,36.1835956 54.8090338,35.836929 Z" id="Shape" fill="#2085AA" fill-rule="nonzero"></path>
                            </g>
                            <g id="Group" stroke-width="1" fill="none" fill-rule="evenodd" transform="translate(28.324648, 21.412194)">
                                <path d="M30.6366568,18.7758763 C35.6034104,19.7414904 40.3805933,16.5106132 41.3045752,11.5632447 C42.2285571,6.61587632 38.9496852,1.82429738 33.9829316,0.858683342 C29.0161779,-0.105527184 24.2403992,3.12535001 23.3150131,8.07271843 C22.3910312,13.0186833 25.6699031,17.8116658 30.6366568,18.7758763 L30.6366568,18.7758763 Z M27.4602935,8.87692896 C27.9573901,6.21026229 30.5201058,4.4685079 33.1839259,4.98780615 C35.8491503,5.50710439 37.6086477,8.08956054 37.1129553,10.7576307 C36.6186671,13.4228939 34.0545472,15.1646483 31.3893228,14.6467535 C28.7226943,14.1260518 26.9660053,11.5435956 27.4602935,8.87692896 Z M11.2920148,53.282543 L15.5566546,49.0214904 C16.3458306,48.2313149 16.3458306,46.9527184 15.5566546,46.1639465 C14.7674786,45.3751746 13.4882271,45.3751746 12.6990511,46.1639465 L8.43441128,50.4278061 L4.1697715,46.1639465 C3.38059549,45.3751746 2.10134398,45.3751746 1.31357219,46.1639465 C0.524396181,46.9527184 0.524396181,48.2313149 1.31357219,49.0214904 L5.57680774,53.282543 L1.27144536,57.5857009 C0.482269347,58.3744728 0.482269347,59.6544728 1.27144536,60.4418412 C2.06062137,61.2306132 3.33987288,61.2306132 4.1290489,60.4418412 L8.43441128,56.1372798 L12.7411779,60.4418412 C13.5303539,61.2306132 14.8096054,61.2306132 15.5973772,60.4418412 C16.3865532,59.6530693 16.3865532,58.3744728 15.5973772,57.5857009 L11.2920148,53.282543 L11.2920148,53.282543 Z M83.0031192,40.7449991 L78.6963526,36.4404377 L82.9609924,32.1779816 C83.7501684,31.3892097 83.7501684,30.1120167 82.9609924,29.3218412 C82.1718164,28.5330693 80.8925649,28.5330693 80.1033888,29.3218412 L75.8401533,33.5842974 L71.5741093,29.3218412 C70.7863375,28.5330693 69.5056818,28.5330693 68.7193142,29.3218412 C67.9301382,30.1120167 67.9301382,31.3892097 68.7193142,32.1779816 L72.9811455,36.4404377 L68.6771874,40.7449991 C67.8880114,41.5337711 67.8880114,42.8123676 68.6771874,43.6011395 C69.4649592,44.3899114 70.7442107,44.3899114 71.5333867,43.6011395 L75.8401533,39.2965781 L80.1455157,43.6011395 C80.9346917,44.3899114 82.2139432,44.3899114 83.0031192,43.6011395 C83.7894868,42.810964 83.7894868,41.5337711 83.0031192,40.7449991 L83.0031192,40.7449991 Z M68.8667581,81.3527184 L73.1285895,77.0902623 C73.9191697,76.3014904 73.9191697,75.0228939 73.1285895,74.2355254 C72.3408177,73.4467535 71.0601619,73.4467535 70.2737944,74.2355254 L66.0077504,78.4965781 L61.7445148,74.2355254 C60.9553388,73.4467535 59.6746831,73.4467535 58.8869113,74.2355254 C58.0977353,75.0242974 58.0977353,76.3014904 58.8869113,77.0902623 L63.1515511,81.3527184 L58.8447844,85.6558763 C58.0570127,86.4446483 58.0570127,87.7232447 58.8447844,88.5120167 C59.6339605,89.3007886 60.913212,89.3007886 61.7037922,88.5120167 L66.0077504,84.2088588 L70.3131127,88.5120167 C71.103693,89.3007886 72.3829445,89.3007886 73.1707163,88.5120167 C73.9598923,87.7232447 73.9598923,86.4446483 73.1707163,85.6558763 L68.8667581,81.3527184 Z M54.8090338,35.836929 L38.2349333,27.52535 L35.5065187,36.5527184 L33.1979682,44.2776307 C33.178309,44.4165781 33.1095019,44.6313149 33.1179272,44.7758763 C33.1937555,45.7990342 33.9815273,46.5330693 35.0052094,46.6621921 L35.4489454,46.6734202 C36.5344134,46.5934202 37.2421442,45.850964 37.6212857,44.7295605 L39.8989432,37.5267535 C46.6532788,50.408157 43.4867452,66.6074553 31.4848103,76.1035956 C28.615973,78.3730693 24.4636714,80.6692097 20.5627266,82.1849991 C20.5627266,82.1849991 16.5522521,83.2558763 16.668803,85.6516658 C16.8667991,89.682543 22.4963483,87.1744728 23.4821162,86.808157 C27.4462512,85.3302623 30.8795882,83.3920167 34.8914669,80.2200869 C48.7427698,69.2558763 52.5285679,50.6593851 45.0299915,35.6923676 L51.5779057,38.9667535 C52.3853366,39.3176307 53.2152353,39.7035956 54.0816438,39.6207886 C55.0477525,39.528157 55.7456537,38.6299114 55.7456537,37.4846483 C55.7456537,36.7913149 55.3622995,36.1835956 54.8090338,35.836929 L54.8090338,35.836929 Z" id="Shape" fill="#FFFFFF" fill-rule="nonzero"></path>
                            </g>
                        </g>
                    </g>
                    <g id="pencil" mask="url(#mask-2)" fill-rule="nonzero">
                        <g transform="translate(43.000000, 140.500000) scale(-1, 1) translate(-43.000000, -140.500000) translate(-27.000000, 70.000000)" id="Path">
                            <path d="M70,0 C31.3404,0 0,31.56426 0,70.5 C0,109.43433 31.3404,141 70,141 C108.6596,141 140,109.43433 140,70.5 C140,31.56285 108.661,0 70,0 Z" fill="#F8E71C"></path>
                            <path d="M130.789474,34.3130952 C124.995481,24.4538323 116.904569,16.1416195 107.254434,10.1372549 C87.789301,29.8388112 54.4490431,63.5840192 53.8119414,64.227445 C51.916005,66.1464094 45.8467731,94.3411861 47.1573024,95.6676331 C48.4999663,97.0280191 75.6801775,90.0917476 77.5216249,88.2251058 L130.789474,34.3130952 L130.789474,34.3130952 Z" fill="#BF392B"></path>
                            <path d="M65.5591007,76.3903418 C64.1743487,74.9942805 63.9963886,68.8675897 62.6005142,67.4617167 C61.20603,66.0530404 53.7803672,64.5112056 53.774806,64.5098039 C51.9632279,66.3361773 46.3282884,92.1563033 47.0345676,95.3773363 L47.4447099,95.79223 C50.6174047,96.476244 75.6082845,90.072023 77.3684211,88.2961096 C77.3684211,88.2961096 75.7751221,80.7425209 74.4112249,79.3688862 C73.0473276,77.9924483 66.9466333,77.7878048 65.5591007,76.3903418 Z" fill="#FFCABA"></path>
                            <path d="M46.9736842,95.1656741 L47.0098618,95.3720872 L47.4217297,95.7919823 C50.6025742,96.4804971 75.606851,90.0223127 77.3684211,88.2310431 C77.3684211,88.2310431 75.835048,80.6757591 74.4394281,79.254902 C51.1758498,92.7014413 47.5427854,94.8291925 46.9736842,95.1656741 L46.9736842,95.1656741 Z" fill="#E5B5A7"></path>
                            <path d="M46.9906976,94.9215686 C47.4155323,94.1920657 49.7500338,90.126098 62.6315789,67.4473435 C61.2331067,66.0455262 53.7880528,64.5098039 53.7880528,64.5098039 C52.0232477,66.2756753 46.6327222,90.6366105 46.9906976,94.9215686 L46.9906976,94.9215686 Z" fill="#FFDCD2"></path>
                            <path d="M51.6749498,90.2727407 C50.7468669,89.3078528 49.1541306,88.5869919 47.6748717,88.4705882 C47.0453424,92.3581886 46.7629998,95.2668767 47.1507142,95.6693807 C47.5276213,96.0620676 50.0268258,95.7563328 53.4149365,95.0817528 C53.4973427,93.380577 52.7381249,91.3764714 51.6749498,90.2727407 L51.6749498,90.2727407 Z" fill="#BF392B"></path>
                            <path d="M53.4210526,64.2929029 C53.4210526,64.2929029 60.9367756,65.8530703 62.3485223,67.2745098 C62.3274305,67.3084715 114.210526,15.1009091 114.210526,15.1009091 C111.97901,13.3113886 109.646254,11.6478707 107.208038,10.1372549 L53.4210526,64.2929029 Z" fill="#C9574B"></path>
                            <path d="M125.986654,27.6470588 C125.986654,27.6470588 74.5717617,79.5438114 74.6052632,79.5254957 C76.0074404,80.9414381 77.545069,88.4705882 77.545069,88.4705882 L130.789474,34.7563574 C129.332846,32.2823328 127.723993,29.9125666 125.986654,27.6470588 Z" fill="#AC3327"></path>
                        </g>
                    </g>
                </g>
            </g>
        </g>
    </g>
</svg>