<?xml version="1.0" encoding="utf-8"?>
<!-- Generator: Adobe Illustrator 15.1.0, SVG Export Plug-In . SVG Version: 6.00 Build 0)  -->
<!DOCTYPE svg PUBLIC "-//W3C//DTD SVG 1.1//EN" "http://www.w3.org/Graphics/SVG/1.1/DTD/svg11.dtd">
<svg version="1.1" id="Layer_1" xmlns="http://www.w3.org/2000/svg" xmlns:xlink="http://www.w3.org/1999/xlink" x="0px" y="0px"
	 width="500px" height="300px" viewBox="0 0 500 300" enable-background="new 0 0 500 300" xml:space="preserve">
<path fill="#787878" d="M1.635,2.721C0.64,4.549,0.827,6.79,2.105,8.424l97.627,124.964c0.971,1.252,2.456,1.98,4.034,2.001
	c0.907,0.02,1.789-0.205,2.567-0.628c0.577-0.315,1.096-0.734,1.52-1.257l34.75-41.905l18.138,10.689
	c1.579,0.926,3.535,0.964,5.14,0.091l0.05-0.027c1.613-0.9,2.635-2.592,2.671-4.443l0.82-38.651l28.039-33.829
	c1.239-1.487,1.545-3.542,0.801-5.328c-0.741-1.789-2.419-3.02-4.345-3.189L6.683,0.023c-1.054-0.1-2.075,0.13-2.959,0.612
	C2.856,1.107,2.123,1.818,1.635,2.721 M161.385,52.603c-0.347,0.421-0.531,0.939-0.809,1.403L38.462,13.356l144.645,13.05
	L161.385,52.603z M158.375,88.321L21.73,13.285l137.271,45.692c0,0.023-0.009,0.041-0.009,0.062L158.375,88.321z M26.106,22.208
	l111.031,60.633c-0.928,0.574-1.827,1.225-2.561,2.1l-30.615,36.922L26.106,22.208z"/>
<g>
	<path fill="none" stroke="#999999" stroke-width="5" stroke-miterlimit="10" stroke-dasharray="12,4" d="M174.38,106.536
		c15.747,50.031,88.449,71.643,162.552,48.321"/>
	<path fill="none" stroke="#999999" stroke-width="5" stroke-miterlimit="10" stroke-dasharray="12,4" d="M498.162,203.595
		c-15.746-50.032-88.45-71.644-162.553-48.321"/>
</g>
</svg>
