<?xml version="1.0" encoding="utf-8"?>
<!-- Generator: Adobe Illustrator 15.1.0, SVG Export Plug-In . SVG Version: 6.00 Build 0)  -->
<!DOCTYPE svg PUBLIC "-//W3C//DTD SVG 1.1//EN" "http://www.w3.org/Graphics/SVG/1.1/DTD/svg11.dtd">
<svg version="1.1" id="Layer_1" xmlns="http://www.w3.org/2000/svg" xmlns:xlink="http://www.w3.org/1999/xlink" x="0px" y="0px"
	 width="800px" height="800px" viewBox="0 0 800 800" enable-background="new 0 0 800 800" xml:space="preserve">
<g>
	<circle fill="#FFFFFF" cx="400" cy="393.999" r="391"/>
	<circle fill="none" stroke="#C46C28" stroke-width="2" stroke-miterlimit="10" cx="400" cy="393.999" r="391"/>
</g>
<path fill="#FFFFFF" stroke="#000000" stroke-width="10" stroke-miterlimit="10" d="M168.975,711.464"/>
<path fill="#F9EDE8" stroke="#FBC7B1" stroke-miterlimit="10" d="M571.796,318.585c-0.985,18.225,1.252,41.232,4.534,58.531
	c4.943,26.05,5.186,35.777,0.06,60.941c-9.077,44.543-9.307,70.906-2.234,114.844c14.339,89.109-56.455,99.396-103.699,97.629
	c-30.097-1.124-61.276-14.646-82.488-31.729c-20.914-16.845-43.775-29.438-61.859-48.756
	c-20.628-22.025-35.876-42.924-55.922-63.275c-49.727,34.625-68.952-28.578-70.816-72.51c-3.154-74.315,15.32-143.696,54.96-202.931
	c39.055-58.357,96.133-99.678,169.342-93.487c72.319,6.113,131.705,47.913,156.967,119.598c6.876,19.511,16.229,55.715,0.587,73.349
	"/>
<path fill="#FBF19E" stroke="#B19430" stroke-miterlimit="10" d="M347.9,184.341c-29.06,33.245-14.763,98.665-32.995,139.125
	c-32.995,73.222-9.426-31.729-32.874-2.44c-9.389,11.726-4.3,11.625-9.304,26.975c-3.483,10.681-11.959,17.479-14.438,29.714
	c-2.75,13.568-0.1,31.298,0.212,45.206c-9.665-12.222-6.281-27.938-18.884-36.342c-8.66,6.021-31.6,41.749-33.164,51.597
	c-1.842,11.62,3.86,52.131,11.525,58.46c-4.861,14.584-19.135,28.397-34.698,26.655c0.419-7.428-1.319-15.825-0.558-23.287
	c-9.318,3.916-19.44,5.093-29.427,3.829c5.925-12.836,5.953-29.191,11.185-43.258c12.443-4.319,10.353-17.713,6.941-29.229
	c2.143-2.87,2.847-4.831,4.269-7.446c-12.81-0.659-26.29,0.034-39.027-0.737c44.469-34.656,45.038-126.206,52.816-179.516
	c11.212-76.85,54.507-117.574,132.265-120.812c54.774-2.28,98.631-2.511,151.767,5.496c33.065,4.98,65.78,3.413,84.706,34.53
	c7.947,13.065,8.083,21.449,19.153,34.169c16.238,18.663,14.405,15.278,17.993,38.625c3.193,20.793,10.312,44.127,18.271,63.948
	c4.738,11.795,5.929,24.554,21.327,21.841c-13.701,9.385-41.118,12.126-57.613,13.569c22.273,14.164,33.633,19.042,29.5,49.199
	c-31.051-2.596-37.976-57.072-42.067-80.138c-6.356-35.829-27.325-69.87-47.191-99.783c-22.636-34.083-56.711-57.228-102.21-41.908
	c-4.019,1.354-13.354,7.532-14.99,7.974c-4.298,1.161-15.673,2.478-22.367,4.707c-12.111,4.039-23.823,10.804-34.836,16.598"/>
</svg>
