<svg width="96px" height="100px" viewBox="0 0 96 100" version="1.1" xmlns="http://www.w3.org/2000/svg" xmlns:xlink="http://www.w3.org/1999/xlink">
    <title>CSS-Tricks Logo</title>
    <g stroke="none" stroke-width="1" fill="none" fill-rule="evenodd">
        <g transform="translate(-743.000000, -1401.000000)" fill="#FF9800" fill-rule="nonzero">
            <g transform="translate(428.000000, 1392.000000)">
                <g id="css-tricks" transform="translate(240.000000, 9.000000)">
                    <g id="star" transform="translate(75.510204, -0.000000)">
                        <path d="M40.9771178,61.0662242 L17.8689335,77.6103164 C15.0975216,79.4141973 12.9384896,80.6176363 10.1670777,80.6176363 C4.62163686,80.6176363 0,75.8038804 0,70.3973477 C0,65.8774251 3.69783289,62.5686067 7.08685879,61.0662242 L34.199066,49.6348315 L7.08685879,37.9019402 C3.40211094,36.3995578 0,33.0907393 0,28.5784819 C0,23.1642841 4.93044386,18.6520266 10.4680337,18.6520266 C13.2420626,18.6520266 15.0896705,19.5539671 17.8610824,21.6593466 L40.9692668,38.2034387 L37.8968989,11.4313928 C36.9730949,5.11014429 41.2859248,0 47.4489796,0 C53.6120344,0 57.9170133,4.81375592 57.0010603,11.1298943 L53.9103734,38.2034387 L77.0185577,21.6593466 C79.8004376,19.5539671 81.9568526,18.6520266 84.7308815,18.6520266 C90.3252748,18.7005806 94.8482283,23.1164902 94.8979592,28.5784819 C94.8979592,33.3922378 91.5089333,36.3995578 87.8111004,37.9044952 L60.6962762,49.6348315 L87.8111004,61.0662242 C91.5089333,62.5686067 94.8979592,65.8774251 94.8979592,70.691181 C94.8979592,76.1053789 89.9675153,80.6176363 84.4299255,80.6176363 C81.9647036,80.6176363 79.8082887,79.4141973 77.0342597,77.6103164 L53.9103734,61.0662242 L56.9905923,87.8382702 C57.9143962,94.1544085 53.6015664,99.2696629 47.4385116,99.2696629 C41.2754567,99.2696629 36.9704779,94.455907 37.8864308,88.1397687 L40.9771178,61.0662242 Z"></path>
                    </g>
                </g>
            </g>
        </g>
    </g>
</svg>