<svg width="331px" height="270px" viewBox="0 0 331 270" version="1.1" xmlns="http://www.w3.org/2000/svg" xmlns:xlink="http://www.w3.org/1999/xlink">
	<title>Geoff Graham</title>
	<defs>
		<path d="M112.29713,5.42407708 C65.1945648,-14.741083 -2.68854406,22.1124854 0.0821950738,102.773126 C2.85293421,183.433766 26.4042169,209.857079 72.1214126,209.857079 C102.599543,209.857079 124.534561,193.864021 137.926467,161.877905 C143.929735,189.228352 160.09238,205.22141 186.414402,209.857079 C225.897435,216.810583 273,193.168305 273,107.640578 C273,87.4754182 243.907239,81.9126154 257.06825,66.6149077 C273,47.145098 265.863952,19.9855958 240.443815,10.2915295 C219.278435,2.2200308 197.776657,3.06258559 189.185141,5.42407708 C170.275005,10.6217773 147.624054,24.8938868 112.29713,5.42407708 Z" id="path-1"></path>
</defs>
<g id="Home" stroke="none" stroke-width="1" fill="none" fill-rule="evenodd">
		<g id="4" transform="translate(-62.000000, -126.000000)">
				<g id="logo" transform="translate(91.000000, 155.000000)">
						<path d="M76.105449,196 C82.1292306,196 87.9120609,195.037838 92.2491836,192.872973 C99.9596239,189.024324 105.983405,182.048649 112.007187,176.035135 C120.922384,166.894595 125.741409,154.386486 129.114727,139.954054 C129.83758,137.067568 131.042337,134.662162 131.524239,131.775676 C132.006142,129.610811 132.247093,126.724324 132.247093,124.078378 C132.247093,122.394595 132.006142,120.951351 132.006142,119.508108 C131.76519,107.481081 130.319483,100.505405 125.500458,93.0486486 C122.609043,90.6432432 118.994774,89.9216216 115.139553,89.9216216 C109.115772,89.9216216 102.369137,91.8459459 95.6225012,92.327027 C92.2491836,92.8081081 88.3939634,93.7702703 84.7796945,94.2513514 C77.3102053,95.2135135 71.7683263,95.4540541 67.6721549,99.0621622 C67.4312036,100.264865 67.1902524,101.708108 67.1902524,102.910811 C67.1902524,104.835135 67.6721549,106.518919 69.1178624,107.481081 C70.0816675,111.089189 71.7683263,112.291892 76.8283028,114.697297 C79.3525541,115.613642 81.0026059,115.657278 83.4436001,115.659356 L87.4301583,115.659459 C91.5263298,115.9 98.0320139,115.418919 99.2367702,119.267568 C99.7186727,120.47027 99.9596239,121.913514 99.9596239,123.597297 C99.9596239,126.483784 99.4777214,129.610811 99.4777214,131.294595 C98.9958189,135.383784 98.5139164,138.991892 97.7910626,142.118919 C95.8634525,153.183784 93.4539399,163.286486 87.9120609,171.224324 C86.225402,173.62973 82.6111331,177.718919 79.9606692,177.959459 C79.2378154,177.959459 78.2740104,177.478378 76.8283028,176.997297 C72.7321314,176.275676 69.1178624,175.554054 66.9493011,173.87027 C63.8169347,171.945946 60.6845683,166.654054 58.7569582,162.564865 C57.5522019,159.918919 56.8293481,156.551351 56.1064943,153.183784 C54.901738,149.816216 53.6969817,146.448649 53.4560304,143.562162 C52.7331766,140.194595 53.2150792,136.827027 52.7331766,133.7 C52.4922254,131.775676 51.7693716,129.610811 51.5284203,127.927027 L51.5284203,125.281081 C51.5284203,119.989189 52.0103229,115.178378 52.2512741,109.886486 L52.2512741,107.240541 C52.2512741,103.632432 52.0103229,100.024324 52.0103229,96.1756757 C52.0103229,94.4918919 52.0103229,92.8081081 52.2512741,91.1243243 C53.4560304,71.8810811 59.2388607,60.8162162 70.8045213,44.4594595 C72.9730826,41.0918919 83.0930356,32.1918919 87.4301583,31.4702703 L88.6349146,31.4702703 C90.3215735,31.4702703 91.2853785,31.9513514 92.7310861,32.9135135 C94.1767937,33.8756757 95.6225012,38.6864865 96.5863063,42.0540541 C96.5863063,42.2945946 96.8272575,42.5351351 96.8272575,42.7756757 C97.7910626,47.1054054 98.5139164,51.9162162 98.5139164,56.2459459 C98.5139164,58.6513514 98.2729651,61.0567568 97.7910626,63.2216216 C98.7548676,63.4621622 99.9596239,63.7027027 101.405332,63.7027027 C108.874821,63.7027027 121.163335,60.0945946 123.572848,53.1189189 C124.536653,50.7135135 125.500458,47.1054054 125.500458,43.9783784 L125.500458,43.0162162 C125.018555,38.6864865 123.090945,35.3189189 121.163335,32.4324324 L120.681432,31.7108108 C115.380505,22.8108108 105.742454,18 94.1767937,18 L92.4901348,18 C88.1530121,18.4810811 83.0930356,18.9621622 78.2740104,18.9621622 L77.1178144,18.9627779 C72.6885674,18.9698595 68.3082662,19.0583784 64.5397885,20.1648649 C32.0113681,29.0648649 25.0237815,59.8540541 20.4457076,87.2756757 C19.4819025,93.7702703 19,101.227027 19,108.202703 L19,109.645946 C19,112.291892 19.4819025,115.178378 19.4819025,118.305405 L19.4819025,119.748649 C19.4819025,122.154054 19.2409513,124.318919 19.2409513,126.483784 C19.2409513,128.167568 19.4819025,129.851351 19.7228538,131.294595 C22.1323664,148.854054 27.6742454,163.767568 36.1075396,175.313514 C38.9989547,179.402703 43.0951262,184.454054 46.9503464,187.821622 C51.5284203,191.67027 57.5522019,193.594595 63.3350322,194.556757 C67.1902524,195.518919 71.5273751,196 76.105449,196 Z M201.858356,196 C207.882138,196 213.664968,195.037838 218.002091,192.872973 C225.712531,189.024324 231.736312,182.048649 237.760094,176.035135 C246.675291,166.894595 251.494316,154.386486 254.867634,139.954054 C255.590487,137.067568 256.795244,134.662162 257.277146,131.775676 C257.759049,129.610811 258,126.724324 258,124.078378 C258,122.394595 257.759049,120.951351 257.759049,119.508108 C257.518097,107.481081 256.07239,100.505405 251.253365,93.0486486 C248.36195,90.6432432 244.747681,89.9216216 240.89246,89.9216216 C234.868679,89.9216216 228.122044,91.8459459 221.375408,92.327027 C218.002091,92.8081081 214.14687,93.7702703 210.532601,94.2513514 C203.063112,95.2135135 197.521233,95.4540541 193.425062,99.0621622 C193.184111,100.264865 192.943159,101.708108 192.943159,102.910811 C192.943159,104.835135 193.425062,106.518919 194.870769,107.481081 C195.834574,111.089189 197.521233,112.291892 202.58121,114.697297 C205.105461,115.613642 206.755513,115.657278 209.196507,115.659356 L213.183065,115.659459 C217.279237,115.9 223.784921,115.418919 224.989677,119.267568 C225.47158,120.47027 225.712531,121.913514 225.712531,123.597297 C225.712531,126.483784 225.230628,129.610811 225.230628,131.294595 C224.748726,135.383784 224.266823,138.991892 223.54397,142.118919 C221.616359,153.183784 219.206847,163.286486 213.664968,171.224324 C211.978309,173.62973 208.36404,177.718919 205.713576,177.959459 C204.990722,177.959459 204.026917,177.478378 202.58121,176.997297 C198.485038,176.275676 194.870769,175.554054 192.702208,173.87027 C189.569842,171.945946 186.437475,166.654054 184.509865,162.564865 C183.305109,159.918919 182.582255,156.551351 181.859401,153.183784 C180.654645,149.816216 179.449889,146.448649 179.208937,143.562162 C178.486084,140.194595 178.967986,136.827027 178.486084,133.7 C178.245132,131.775676 177.522279,129.610811 177.281327,127.927027 L177.281327,125.281081 C177.281327,119.989189 177.76323,115.178378 178.004181,109.886486 L178.004181,107.240541 C178.004181,103.632432 177.76323,100.024324 177.76323,96.1756757 C177.76323,94.4918919 177.76323,92.8081081 178.004181,91.1243243 C179.208937,71.8810811 184.991768,60.8162162 196.557428,44.4594595 C198.72599,41.0918919 208.845943,32.1918919 213.183065,31.4702703 L214.387822,31.4702703 C216.07448,31.4702703 217.038286,31.9513514 218.483993,32.9135135 C219.929701,33.8756757 221.375408,38.6864865 222.339213,42.0540541 C222.339213,42.2945946 222.580165,42.5351351 222.580165,42.7756757 C223.54397,47.1054054 224.266823,51.9162162 224.266823,56.2459459 C224.266823,58.6513514 224.025872,61.0567568 223.54397,63.2216216 C224.507775,63.4621622 225.712531,63.7027027 227.158238,63.7027027 C234.627728,63.7027027 246.916242,60.0945946 249.325755,53.1189189 C250.28956,50.7135135 251.253365,47.1054054 251.253365,43.9783784 L251.253365,43.0162162 C250.771462,38.6864865 248.843852,35.3189189 246.916242,32.4324324 L246.434339,31.7108108 C241.133412,22.8108108 231.495361,18 219.929701,18 L218.243042,18 C213.905919,18.4810811 208.845943,18.9621622 204.026917,18.9621622 L202.870721,18.9627779 C198.441474,18.9698595 194.061173,19.0583784 190.292695,20.1648649 C157.764275,29.0648649 150.776689,59.8540541 146.198615,87.2756757 C145.23481,93.7702703 144.752907,101.227027 144.752907,108.202703 L144.752907,109.645946 C144.752907,112.291892 145.23481,115.178378 145.23481,118.305405 L145.23481,119.748649 C145.23481,122.154054 144.993858,124.318919 144.993858,126.483784 C144.993858,128.167568 145.23481,129.851351 145.475761,131.294595 C147.885273,148.854054 153.427152,163.767568 161.860447,175.313514 C164.751862,179.402703 168.848033,184.454054 172.703253,187.821622 C177.281327,191.67027 183.305109,193.594595 189.087939,194.556757 C192.943159,195.518919 197.280282,196 201.858356,196 Z" id="initials" fill="#0F1031" fill-rule="nonzero"></path>
						<g id="blob">
								<path stroke="#FD5A1E" stroke-width="29" d="M68.7991354,-12.9648918 C85.5921935,-16.0931298 102.707241,-14.4543722 118.003782,-7.90574357 C118.252127,-7.79942428 118.499866,-7.69186488 118.744254,-7.58179166 C118.926975,-7.47926755 119.110883,-7.3769948 119.295989,-7.27497686 C143.558212,6.09671829 160.53553,-0.261804792 174.470746,-5.06518064 C178.242327,-6.36521952 181.85243,-7.59819437 185.342151,-8.55739005 C195.417734,-11.3267971 220.675686,-12.7657178 245.610497,-3.25673247 C263.045146,3.39203757 273.897996,16.2039786 278.07969,30.3715055 C282.323401,44.7491462 279.834871,60.9158895 269.254497,74.5877747 C270.095604,75.2731823 271.176682,75.8966148 271.960705,76.6948015 C279.902225,84.7797927 287.5,94.3479623 287.5,107.640578 C287.5,150.355418 276.36654,178.930734 260.935372,197.147619 C239.998429,221.864213 210.570804,228.834502 183.899457,224.137312 C167.497778,221.248752 154.392174,214.627271 144.352069,204.692513 C141.199156,201.572681 138.337692,198.110859 135.782401,194.300605 C130.990949,200.31568 125.708547,205.397472 119.973843,209.578707 C106.622945,219.312991 90.7130467,224.357079 72.1214126,224.357079 C42.9517524,224.357079 21.603107,214.975384 6.91805209,193.146527 C-5.41349834,174.816079 -12.9339841,146.218489 -14.4092578,103.270916 C-15.8743374,60.6201093 0.368170909,28.9822471 23.019067,9.33207145 C36.5713204,-2.42482148 52.5309832,-9.93443412 68.7991354,-12.9648918 Z"></path>
								<use stroke="#FFE417" stroke-width="20" xlink:href="#path-1"></use>
							</g>
					</g>
			</g>
    </g>
</svg>