<?xml version="1.0" encoding="UTF-8"?>
<svg width="99px" height="121px" viewBox="0 0 99 121" version="1.1" xmlns="http://www.w3.org/2000/svg" xmlns:xlink="http://www.w3.org/1999/xlink">
    <!-- Generator: Sketch 61.2 (89653) - https://sketch.com -->
    <title>Toilet</title>
    <desc>Where I do my best brainstorming</desc>
    <g stroke="none" stroke-width="1" fill="none" fill-rule="evenodd">
        <g id="2" transform="translate(-1198.000000, -804.000000)" fill="#000000" fill-rule="nonzero">
            <g transform="translate(0.000000, 734.000000)">
                <g transform="translate(1101.000000, 70.000000)">
                    <g class="toilet-logo" transform="translate(97.000000, 0.000000)">
                        <path d="M26.9216054,19.9023439 L27.0486656,20.6223721 C27.0525159,20.6502262 27.0756177,20.6627605 27.0846018,20.6878292 C27.0923024,20.7073271 27.0846018,20.7282176 27.0948692,20.7463228 L27.5042852,21.4315334 C27.518403,21.4566021 27.5415049,21.4677437 27.559473,21.4872416 C27.5671736,21.4942051 27.5658902,21.5081321 27.5735908,21.5150957 L28.269213,22.1153513 C28.2807639,22.1264929 28.2961651,22.1223148 28.3089995,22.1306711 C28.319267,22.1390273 28.3218338,22.154347 28.3333848,22.1599178 L29.2484745,22.6236884 C29.2625923,22.630652 29.27671,22.6292593 29.2908278,22.6348301 C29.297245,22.6362228 29.2985285,22.644579 29.3049456,22.6459717 L30.3637801,22.9370469 C30.3778979,22.9412251 30.3920157,22.9412251 30.4061335,22.9426178 C30.4087004,22.9440105 30.4099838,22.9467959 30.4125507,22.9467959 L31.5804773,23.0665685 C31.5907447,23.0679612 31.5997288,23.0679612 31.6099963,23.0679612 C31.61513,23.0679612 31.6215472,23.0679612 31.6266809,23.0679612 L32.7946075,22.9997186 C32.7971744,22.9997186 32.7971744,22.9969332 32.7997412,22.9969332 C32.8164259,22.9955405 32.8331106,22.9941478 32.8497952,22.9899697 L33.9407156,22.7156069 C33.9458494,22.7142142 33.9471328,22.7072507 33.9522666,22.705858 C33.9651009,22.7016799 33.9792187,22.7030726 33.9907696,22.6975018 L34.9379452,22.2685488 C34.9482127,22.262978 34.9507796,22.2490509 34.9610471,22.2434801 C34.9751649,22.2351239 34.9918495,22.2379093 35.0046839,22.2267677 L35.7298251,21.6446172 C35.7452263,21.6320828 35.7439429,21.6111923 35.7567773,21.5972652 C35.7670447,21.5847309 35.7837294,21.5903017 35.7939969,21.5763747 L36.2675847,20.9078765 C36.2778522,20.8925568 36.271435,20.8744516 36.280419,20.8577392 C36.2932534,20.8326705 36.3150718,20.8201361 36.321489,20.792282 L36.5114375,20.0722538 C36.5152878,20.0541487 36.5037369,20.0402216 36.5063037,20.0221165 C36.5088706,20.0040113 36.5242718,19.9928697 36.5242718,19.9761572 L36.5242718,19.5653094 C36.5242718,19.5527751 36.5140044,19.5458115 36.5127209,19.5346699 C36.5114375,19.5235283 36.5204215,19.5137793 36.5191381,19.5026377 L36.392078,18.765897 C36.3882277,18.7394356 36.3651258,18.7296867 36.3561418,18.7060107 C36.3484411,18.6823348 36.3561418,18.6572661 36.3433074,18.6349828 L35.9172067,17.9497722 C35.9069392,17.9330597 35.8876877,17.9330597 35.8761368,17.9205254 C35.8645859,17.9052057 35.8658693,17.8843151 35.8504681,17.8717808 L35.1715305,17.2882376 C35.1612631,17.2798813 35.1471453,17.2840595 35.1355943,17.2770959 C35.1253269,17.2687397 35.12276,17.25342 35.1112091,17.2478491 L34.1948359,16.7687588 C34.183285,16.763188 34.1717341,16.7715442 34.1601832,16.7659734 C34.1499157,16.7617953 34.1447819,16.7478682 34.133231,16.7450828 L33.0589953,16.4526149 C33.0487278,16.4498295 33.0410272,16.4581857 33.0320431,16.456793 C33.0230591,16.4554003 33.0179253,16.4442587 33.0076578,16.442866 L31.8551325,16.3411985 C31.8474319,16.3398058 31.8410147,16.3495548 31.8333141,16.3481621 C31.8243301,16.3481621 31.8204797,16.3398058 31.8114957,16.3398058 L30.6435691,16.4080483 C30.6320182,16.409441 30.6268845,16.4205827 30.616617,16.4233681 C30.6063495,16.4247608 30.5986489,16.4150119 30.5883814,16.4177973 L29.4987444,16.6921601 C29.4897604,16.6949455 29.4871935,16.7046944 29.4782095,16.7074798 C29.4692254,16.7102652 29.4602414,16.7033017 29.4512573,16.7074798 L28.5040817,17.1183276 C28.4899639,17.1252912 28.4861136,17.1433963 28.4745627,17.1489671 C28.4617283,17.1573234 28.4476105,17.1503598 28.4360596,17.1601088 L27.6929503,17.7436519 C27.6788325,17.7547936 27.6801159,17.7728987 27.668565,17.7854331 C27.6557307,17.7993601 27.6377626,17.7979674 27.6262116,17.8132872 L27.1526238,18.4803926 C27.1385061,18.5012832 27.1449232,18.5263519 27.1359392,18.5500278 C27.1256717,18.5723111 27.1025699,18.58206 27.0961527,18.6071287 L26.9228888,19.3438694 C26.9190385,19.3591891 26.9305895,19.3731162 26.9280226,19.3870432 C26.9267392,19.4037557 26.9126214,19.4135046 26.9126214,19.4288244 L26.9126214,19.8396722 C26.9126214,19.8522065 26.9228888,19.85917 26.9241723,19.8703117 C26.9254557,19.8814533 26.9190385,19.8898095 26.9216054,19.9023439 Z M31.7960945,17.6336283 L32.5995253,17.7144051 L33.314399,17.9205254 L33.9214641,18.2352766 L34.3732335,18.6071287 L34.6068188,18.9929079 L34.6761243,19.3814724 L34.583717,19.783964 L34.5695992,19.8034619 L34.3770838,19.5263137 C34.3719501,19.5193502 34.3616826,19.5207429 34.3565488,19.5123866 C34.3514151,19.5054231 34.353982,19.4956742 34.3475648,19.4887107 L34.0639255,19.1795303 C34.0600752,19.1739594 34.0523746,19.1767448 34.0472408,19.171174 C34.0433905,19.1669959 34.0446739,19.1600324 34.0395402,19.1558543 L33.6917291,18.8466739 C33.6878788,18.8424958 33.6814616,18.8452812 33.6763279,18.8411031 C33.6711941,18.836925 33.6724776,18.8299614 33.6673438,18.8257833 L33.2887303,18.5514205 C33.2823131,18.5458497 33.273329,18.5514205 33.2669119,18.5472424 C33.2604947,18.5416716 33.2604947,18.5333154 33.2527941,18.5291373 L32.8100087,18.2895921 C32.8061584,18.2868067 32.8010247,18.2909848 32.7971744,18.2881994 C32.7920406,18.2868067 32.7920406,18.2798432 32.7869069,18.2770578 L32.3133191,18.0723302 C32.3107522,18.0709375 32.3081853,18.0737229 32.304335,18.0723302 C32.3017682,18.0709375 32.3017682,18.0681521 32.2992013,18.0667594 L31.794811,17.880137 C31.7896773,17.8773516 31.7832601,17.8829224 31.7781264,17.8815297 C31.7729926,17.880137 31.7704258,17.8717808 31.7640086,17.870388 L31.2275324,17.7325103 C31.2249655,17.7325103 31.2236821,17.733903 31.2211152,17.733903 C31.2198318,17.7325103 31.2185484,17.7297249 31.2159815,17.7297249 L30.9913802,17.6809802 L31.7960945,17.6336283 Z M30.5588624,18.2979483 L31.0863545,18.4121501 L31.5984454,18.544457 L32.0758835,18.7227232 L32.5430541,18.926058 L32.9447695,19.1433199 L33.3015646,19.4037557 L33.6160064,19.6822966 L33.8765439,19.9650156 L34.0895942,20.2728033 L34.1152629,20.3229406 L33.8406076,20.5415952 L33.1860554,20.8243142 L32.4506467,21.0179002 L31.6305313,21.0652521 L30.8322342,20.9844753 L30.1045261,20.7769623 L29.5064451,20.4817089 L29.0687935,20.0973225 L28.81724,19.7004017 L28.7492179,19.317408 L28.8416253,18.9177018 L29.1329652,18.5347081 L29.5436647,18.2074225 L29.9877335,18.2338839 L30.5588624,18.2979483 Z M27.7032178,18.8452812 L28.1087835,18.2728796 L28.7774535,17.7464373 L29.6732917,17.3592655 L29.7451641,17.3411603 L29.3241972,17.5277827 C29.3100794,17.5347463 29.3075125,17.5514587 29.2946781,17.5584222 C29.2831272,17.5667785 29.267726,17.5598149 29.2561751,17.5695639 L28.7184155,17.9985169 C28.7068646,18.0082658 28.7068646,18.0263709 28.6965971,18.0361199 C28.6863296,18.0472615 28.6696449,18.0458688 28.6593774,18.0584032 L28.2974486,18.5374935 C28.2820473,18.5583841 28.2884645,18.5848454 28.2769136,18.6085214 C28.2653627,18.6335901 28.2396939,18.6447317 28.2332768,18.6739785 L28.1062166,19.2240968 C28.1023663,19.2394166 28.1139172,19.2533436 28.1126338,19.2672706 C28.1113504,19.2825904 28.0972326,19.2923393 28.0972326,19.3076591 L28.0972326,19.4441441 C28.0972326,19.4566785 28.1075001,19.463642 28.1087835,19.4747836 C28.1100669,19.4859252 28.1010829,19.4970669 28.1023663,19.5082085 L28.1960571,20.0402216 C28.2011909,20.0694684 28.2242927,20.0861809 28.2358436,20.1126423 C28.2435443,20.1321401 28.2358436,20.1544234 28.2473946,20.1725286 L28.5631198,20.6683313 C28.5759541,20.6892219 28.5952057,20.6975781 28.6106069,20.7142906 C28.6183075,20.7212541 28.6157406,20.7351812 28.6247247,20.7421447 L29.1316818,21.1878101 C29.1445162,21.1989518 29.1624843,21.1961663 29.1766021,21.2059153 C29.1868695,21.2128788 29.1894364,21.2295913 29.2022708,21.2351621 L29.8658071,21.5596622 C29.8760746,21.565233 29.8876255,21.5638403 29.897893,21.5680184 C29.9030267,21.5694111 29.9043101,21.5763747 29.9094439,21.5777674 L30.6833557,21.8187052 C30.7038906,21.8256688 30.7231422,21.8256688 30.7423937,21.8284542 C30.7449606,21.8284542 30.7449606,21.8312396 30.7475274,21.8312396 L31.6010122,21.8994821 C31.6087128,21.9008748 31.6164135,21.9008748 31.6241141,21.9008748 C31.6292478,21.9008748 31.635665,21.9008748 31.6420822,21.9008748 L32.5109682,21.8493447 C32.5122516,21.8493447 32.5135351,21.8465593 32.5161019,21.8465593 C32.5315032,21.8451666 32.5469044,21.8451666 32.5623056,21.8409885 L33.3516186,21.6529734 C33.3567524,21.6515807 33.3593192,21.6446172 33.364453,21.6432245 C33.3785708,21.6390464 33.393972,21.6404391 33.4080898,21.6334756 L34.1191132,21.3075827 C34.1306641,21.3020119 34.1319476,21.2866921 34.1434985,21.2811213 C34.1563328,21.2727651 34.1717341,21.2755505 34.1845684,21.2658016 L34.7210446,20.8368486 C34.7287452,20.8312778 34.7274618,20.8201361 34.7338789,20.8131726 C34.7467133,20.8006383 34.7556974,20.792282 34.7659648,20.7797477 C34.7698151,20.7741769 34.7775158,20.7769623 34.7826495,20.7713915 L35.1304606,20.2923011 C35.1420115,20.2755887 35.1355943,20.2546981 35.1445784,20.236593 C35.1586962,20.2087389 35.1830815,20.1934191 35.1894986,20.1613869 L35.3165588,19.6112686 C35.3204091,19.5959489 35.3088582,19.5820219 35.3101416,19.5680948 C35.311425,19.5527751 35.3255428,19.5430261 35.3255428,19.5277064 L35.3255428,19.3912213 C35.3255428,19.378687 35.3139919,19.3703308 35.3139919,19.3605818 C35.3127085,19.3466548 35.322976,19.3369059 35.3204091,19.3257642 L35.2254348,18.7937511 C35.2215845,18.7686824 35.1984827,18.7575408 35.1894986,18.7352575 C35.181798,18.7129743 35.1894986,18.690691 35.1779477,18.6698004 L34.8789072,18.1739976 C34.8673563,18.1558925 34.8468213,18.1544998 34.8327035,18.1405727 C34.8185857,18.1266457 34.8198691,18.101577 34.8044679,18.0876499 L34.283393,17.658697 C34.2731255,17.6503407 34.2602911,17.6559116 34.2500237,17.648948 C34.2397562,17.6419845 34.2384727,17.6266648 34.2269218,17.6210939 L33.6634935,17.3300187 L33.9458494,17.4066175 L34.8031845,17.8550683 L35.4179502,18.3815106 L35.7773122,18.9608757 L35.8787037,19.5458115 L35.7259748,20.1237839 L35.3178422,20.6989708 L34.6555894,21.230984 L33.7751524,21.6292974 L32.7330026,21.8744134 L31.6215472,21.956583 L30.4972575,21.8409885 L29.4936107,21.565233 L28.6388425,21.1334946 L28.0150927,20.594518 L27.6672816,20.0137602 L27.5658902,19.4371806 L27.7032178,18.8452812 Z" id="toilet-seat"></path>
                        <path d="M87.4634904,68.3600473 L87.3534788,67.4726116 C87.3522143,67.461218 87.3395692,67.4561542 87.3370402,67.4460265 C87.3345112,67.4358989 87.3446272,67.4257712 87.3395692,67.4156435 L87.0462048,66.4952929 C87.0436758,66.4902291 87.0386178,66.4889632 87.0360888,66.4851653 C87.0348243,66.4801015 87.0386178,66.4750376 87.0360888,66.4699738 L86.4759145,65.1154 C86.4759145,65.1154 86.4759145,65.1154 86.4759145,65.1141341 C86.4759145,65.1141341 86.4759145,65.1141341 86.4759145,65.1128681 L86.2584202,64.5988896 C86.2520977,64.5849641 86.2356592,64.5811662 86.2293367,64.5697726 C86.2268077,64.5634429 86.2293367,64.5571131 86.2268077,64.5520492 L85.0596725,62.478412 C85.055879,62.4708162 85.045763,62.4708162 85.040705,62.4632205 C85.035647,62.4568907 85.0394405,62.4467631 85.0343825,62.4404333 L83.276725,60.1503174 C83.274196,60.1477855 83.269138,60.1477855 83.266609,60.1452536 C83.2653445,60.1414557 83.266609,60.1376578 83.26408,60.1351259 L81.8162255,58.4691268 C81.8136964,58.4665949 81.8111674,58.4678608 81.8086384,58.4653289 C81.8061094,58.462797 81.8061094,58.4577332 81.8035804,58.4552012 L81.172594,57.8057654 L81.1030464,57.7247442 C81.0815499,57.699425 81.0486729,57.699425 81.0233828,57.6829676 L78.9584514,56.029628 C78.9533934,56.0258301 78.9458064,56.028362 78.9407484,56.0245642 C78.9344259,56.0207663 78.9356904,56.0131706 78.9293679,56.0093727 L76.8138564,54.6699904 C76.8113274,54.6687244 76.8087984,54.6699904 76.8062694,54.6687244 C76.8037404,54.6674585 76.8037404,54.6623946 76.7999469,54.6611287 L75.477278,53.9129482 L74.76157,53.507842 C74.7552475,53.5040442 74.7476605,53.509108 74.741338,53.5053101 C74.733751,53.5015122 74.733751,53.4926505 74.726164,53.4901186 L72.7345736,52.6647148 C72.7282511,52.6621829 72.7231931,52.6672467 72.7168706,52.6647148 C72.7105481,52.6634488 72.7105481,52.6558531 72.7042256,52.6545871 L68.6274719,51.4240771 C68.6236783,51.4228112 68.6198848,51.426609 68.6160913,51.4253431 C68.6110333,51.4240771 68.6097688,51.4190133 68.6047108,51.4177473 L67.0961602,51.074673 C67.0860442,51.0721411 67.0759282,51.0810028 67.0670767,51.0797369 C67.0556961,51.0784709 67.0493736,51.0670773 67.0392576,51.0670773 L63.4758916,50.9417476 C63.4645111,50.9430135 63.4569241,50.9518752 63.4480725,50.9531412 C63.4354275,50.9544071 63.4278405,50.9442795 63.41646,50.9455454 L61.8459488,51.1949389 C61.8408908,51.1962049 61.8383618,51.2012687 61.8333038,51.2025347 C61.8282458,51.2038006 61.8244523,51.1987368 61.8193943,51.2000028 L59.7354953,51.7177791 C59.7317018,51.7190451 59.7304373,51.7228429 59.7279083,51.7241089 C59.7241148,51.7241089 59.7203213,51.721577 59.7177923,51.7228429 L57.2279883,52.4874808 C57.2216658,52.4887468 57.2204013,52.4963425 57.2153433,52.4988744 C57.2077562,52.5014064 57.2026982,52.4963425 57.1963757,52.4988744 L56.6842525,52.716619 L54.7255392,53.5255654 C54.7217457,53.5268314 54.7204812,53.5331612 54.7166877,53.5344271 C54.7128942,53.536959 54.7078362,53.5331612 54.7053072,53.5356931 L52.3394244,54.7206287 C52.3343664,54.7244265 52.3331019,54.7320223 52.3267794,54.7358201 C52.3204569,54.739618 52.3128698,54.7358201 52.3065473,54.739618 L52.2129742,54.8016499 L50.1543653,56.0410216 C50.1493073,56.0435535 50.1505718,56.0498833 50.1455138,56.0536812 C50.1404558,56.0562131 50.1341333,56.0536812 50.1290753,56.057479 L48.2474966,57.4449677 C48.2411741,57.4500315 48.2424386,57.4588932 48.2361161,57.4639571 C48.2310581,57.4690209 48.2222066,57.466489 48.2158841,57.4715528 L46.7528555,58.872967 C46.749062,58.8767649 46.7503265,58.8843606 46.746533,58.8894244 C46.7427395,58.8932223 46.7351525,58.8919563 46.731359,58.8970202 L45.7526346,60.0490409 C45.7450476,60.0591685 45.7488411,60.0718281 45.7425186,60.0819557 C45.7361961,60.0920834 45.7222866,60.0920834 45.715964,60.103477 L45.5490498,60.4136364 C45.5009987,60.4402215 45.4744442,60.4807321 45.4453607,60.5288385 C45.3442005,60.5870725 45.2670659,60.6769554 45.2733884,60.8010192 L45.2759174,60.8592532 L45.2025763,61.0364872 C45.1949893,61.0554765 45.2063698,61.0731999 45.2025763,61.0921893 C45.1975183,61.1149765 45.1747573,61.1314339 45.1747573,61.1529552 C45.1747573,61.1719446 45.1924603,61.1833382 45.1962538,61.2010616 C45.1987828,61.2225828 45.1962538,61.2403062 45.2025763,61.2605615 C45.2114278,61.2884126 45.2354534,61.30487 45.2531564,61.3301892 C45.2645369,61.3466466 45.2620079,61.3669019 45.2759174,61.3820934 C45.2822399,61.3909551 45.2961495,61.3871572 45.3037365,61.393487 L45.350523,62.3442206 C45.3517875,62.3708057 45.3745486,62.3872631 45.3821356,62.4138482 C45.3884581,62.4366354 45.3783421,62.4606886 45.3897226,62.4834758 L45.7627506,63.153167 C45.7678086,63.1620287 45.7766601,63.1645606 45.7817181,63.1734223 C45.7855116,63.1784861 45.7817181,63.1848159 45.7855116,63.1898797 L46.6731919,64.3735493 C46.6769854,64.3786132 46.6833079,64.3760812 46.6883659,64.3811451 C46.6934239,64.3862089 46.6896304,64.3950706 46.6946884,64.4001344 L47.8618236,65.6458359 C47.8681461,65.6521657 47.8782621,65.6496338 47.8845846,65.6559636 C47.8909071,65.6622934 47.8896426,65.672421 47.8959651,65.6774848 L49.4829149,66.9396438 C49.4879729,66.9434417 49.4955599,66.9421757 49.5006179,66.9459736 C49.5044114,66.9497714 49.5044114,66.9561012 49.5094694,66.9586331 L51.3442615,68.1372389 L51.3821965,68.1764836 C51.3935771,68.1878772 51.4087511,68.1840793 51.4213961,68.194207 C51.4340411,68.2030687 51.4353056,68.2207921 51.4479506,68.2283878 L53.6570352,69.5209297 C53.6633578,69.5247276 53.6696803,69.5234616 53.6760028,69.5259935 C53.6785318,69.5285255 53.6797963,69.5335893 53.6835898,69.5348552 L56.4528487,70.8273971 C56.4591712,70.8299291 56.4667582,70.8299291 56.4730807,70.832461 C56.4768742,70.8337269 56.4768742,70.8375248 56.4806677,70.8387908 L60.1059943,72.1313327 C60.1097878,72.1325986 60.1148458,72.1325986 60.1186394,72.1338646 C60.1199039,72.1338646 60.1211684,72.1363965 60.1236974,72.1376624 L64.0133048,73.2744917 C64.0196274,73.2757576 64.0246854,73.2757576 64.0297434,73.2770236 C64.0322724,73.2770236 64.0322724,73.2795555 64.0348014,73.2795555 L67.690476,74.0897678 C67.695534,74.0910338 67.700592,74.0910338 67.7056501,74.0910338 C67.7081791,74.0910338 67.7081791,74.0935657 67.7094436,74.0935657 L70.7745959,74.5923527 C70.7809184,74.5936187 70.7859764,74.5936187 70.7922989,74.5936187 C70.7935634,74.5936187 70.7935634,74.5948846 70.7948279,74.5948846 L73.7980196,74.8911185 C73.8068712,74.8923845 73.8144582,74.8923845 73.8220452,74.8923845 L73.8220452,74.8923845 L77.4941584,74.9708738 C77.4966874,74.9708738 77.4992164,74.9708738 77.5017454,74.9708738 C77.5080679,74.9708738 77.5143904,74.9708738 77.5207129,74.9708738 L80.1812246,74.8151611 C80.1824891,74.8151611 80.1850182,74.8126292 80.1862827,74.8126292 C80.1976632,74.8113632 80.2103082,74.8113632 80.2216887,74.8088313 L82.5091724,74.3720762 C82.5142304,74.3708103 82.5167594,74.3644805 82.5218174,74.3632145 C82.5395205,74.3594166 82.555959,74.3606826 82.571133,74.3530869 L84.4388021,73.5745234 C84.4514472,73.5694596 84.4539762,73.5555341 84.4640922,73.5504702 C84.4780017,73.5428745 84.4931757,73.5454064 84.5070852,73.5352788 L85.9233272,72.4756729 C85.9385013,72.4642793 85.9385013,72.444024 85.9498818,72.4300985 C85.9612623,72.4187049 85.9789653,72.4225027 85.9878168,72.4098432 L86.799627,71.3059288 L86.8464135,71.2590884 C86.8527361,71.2527586 86.850207,71.242631 86.8565296,71.2363012 C86.8666456,71.2236416 86.8805551,71.2185778 86.8881421,71.2059182 L86.9652767,71.0818545 C87.0120633,71.007163 87.0247083,70.9223439 87.0070053,70.8438546 L87.3749753,69.5854935 C87.3800333,69.5740999 87.3699173,69.5627063 87.3724463,69.5525786 C87.3749753,69.5399191 87.3876203,69.5323233 87.3876203,69.5196638 L87.4660194,68.4296749 C87.4660194,68.4182813 87.4559034,68.4106856 87.4559034,68.399292 C87.4546389,68.3777707 87.4647549,68.370175 87.4634904,68.3600473 Z M86.7591629,69.4335787 L86.3393483,70.8641099 L86.3317613,70.8717056 C86.3254388,70.8780354 86.3279678,70.8868971 86.3229098,70.8932269 C86.3165873,70.8995567 86.3077358,70.8995567 86.3026778,70.9058865 L85.5047772,71.9895455 L84.1580828,72.9972471 L82.3561677,73.7492255 L80.1306446,74.174587 L77.4891003,74.3290337 L73.8511287,74.2505444 L70.868169,73.9568424 L67.8156617,73.4605873 L64.1878061,72.6567047 L60.3045211,71.5211415 L56.7095425,70.2387272 L53.9668382,68.9575789 L51.8070691,67.694154 L51.7754566,67.6625051 C51.7653406,67.6523775 51.7501666,67.6561753 51.741315,67.6473136 C51.7324635,67.6384519 51.731199,67.6245264 51.7198185,67.6181966 L49.8698524,66.4307291 L48.3132507,65.1913574 L47.1714056,63.9709751 L46.3077509,62.8214863 L45.9802449,62.2328164 L45.9385164,61.3846253 L45.9916254,60.923817 L46.2571708,60.4313598 L47.2055471,59.3160519 L48.6420212,57.9386909 L50.4995743,56.5701916 L52.5366867,55.3434794 L56.9270369,53.3014911 L56.9308304,53.3002251 L56.9308304,53.3002251 L56.9320949,53.2989592 C56.9333594,53.2989592 56.9333594,53.2989592 56.9333594,53.2989592 L57.4328376,53.0875444 L59.893558,52.3317682 L61.964812,51.8228535 L63.4885366,51.5810558 L66.9912065,51.7038536 L68.4681446,52.0393321 L72.5056988,53.2584485 L74.4745281,54.0749907 L75.1712686,54.4699692 L76.4939374,55.2181497 L78.5765719,56.5372767 L80.7274894,58.2589779 L81.3546823,58.902084 L82.7823048,60.5452959 L84.5209948,62.8113586 L85.6767494,64.8647406 C85.6792784,64.8698044 85.6868654,64.8723363 85.6893944,64.8774001 L85.8942437,65.3622616 C85.8942437,65.3622616 85.8942437,65.3622616 85.8942437,65.3635276 L86.4506245,66.7079737 L86.7313439,67.5802179 L86.8337685,68.4068877 L86.7591629,69.4335787 Z" id="toilet-hole"></path>
                        <path d="M98.4555939,62.2171302 L98.329574,61.5230676 C98.3157118,61.4540378 98.298069,61.3875183 98.2741252,61.3209987 L97.034089,57.9071644 C97.0063646,57.8293491 96.9685587,57.755299 96.9269721,57.6837591 L94.8173984,54.2247417 C94.7858934,54.172028 94.7493476,54.1218246 94.7102814,54.0741313 L92.0739444,50.9088041 C92.0373986,50.8648761 91.9958121,50.8222031 91.9529653,50.7820404 L89.1616237,48.2480215 C89.118777,48.2103689 89.07467,48.1739714 89.0267824,48.1413391 L86.0501916,46.1030792 C86.0136458,46.0779775 85.9758398,46.055386 85.9367736,46.0340495 L82.7572907,44.3196018 C82.7283061,44.3020306 82.6980613,44.2882247 82.6665563,44.2744187 L82.3867921,44.1514203 L78.8708359,42.704306 C78.8418513,42.6905 78.8090862,42.6792042 78.7788414,42.6704186 L74.7613259,41.3726596 L71.5705012,40.4740179 L64.6696496,35.7009253 L64.6696496,19.8353814 L66.6380809,18.7572624 C67.0413447,18.5363672 67.2921244,18.1159134 67.2921244,17.6578069 L67.2921244,13.1470273 C67.2921244,12.7353591 67.0892323,12.3487925 66.7489785,12.1153465 L58.7782176,6.61806922 C58.7504933,6.59798785 58.7202485,6.58041664 58.6912639,6.56284543 L47.5725251,0.168181543 C47.3771942,0.0564788764 47.1604399,0 46.9424254,0 C46.724411,0 46.5076567,0.0564788764 46.3123258,0.168181543 L0.63009967,26.4383896 C0.239437875,26.66305 0,27.0772284 0,27.5252942 L0,32.0348187 C0,32.4828844 0.239437875,32.8983179 0.63009967,33.1217233 L2.71320918,34.3190755 L2.71320918,73.6233531 C2.71320918,74.0714188 2.95264706,74.4868523 3.34330885,74.7102577 L13.0342418,80.2853503 L20.8714215,85.030831 L20.8714215,92.5249504 C20.8714215,92.9604652 21.0982574,93.3633479 21.468756,93.5930287 L63.4132308,119.416426 C63.5581537,119.505537 63.7194593,119.564526 63.8870658,119.589628 L66.7401571,120.021378 C66.7880447,120.028908 66.834672,120.033928 66.8825596,120.035183 L69.8289057,120.144376 C69.8452883,120.145631 69.8591504,120.145631 69.875533,120.145631 C69.9057778,120.145631 69.938543,120.144376 69.970048,120.141866 L72.8836289,119.924736 C72.9252154,119.922226 72.966802,119.91595 73.0096488,119.90842 L75.8173729,119.413916 C75.8677809,119.40513 75.9169287,119.393834 75.9635561,119.380029 L78.5696483,118.591834 C78.6225767,118.575518 78.675505,118.556692 78.725913,118.532845 L81.0358584,117.483593 C81.0950878,117.455981 81.1543171,117.423349 81.2085057,117.388207 L83.1303097,116.12057 C83.1971003,116.076642 83.2601102,116.026438 83.3168192,115.971215 L84.820237,114.504019 C84.889548,114.437499 84.9487774,114.364704 85.0004455,114.283124 L86.0237274,112.69293 C86.0892578,112.593778 86.1384055,112.484585 86.1724309,112.369117 L86.6676893,110.684792 C86.7017146,110.570579 86.7193574,110.451346 86.7193574,110.332113 L86.7193574,99.3902715 L86.8831833,99.3124562 C86.9285505,99.2898647 86.9739177,99.266018 87.0167645,99.237151 L89.2964651,97.8000774 C89.3355313,97.7762308 89.3733372,97.749874 89.4073626,97.7222621 L91.375794,96.1634451 C91.4224214,96.1257925 91.4665283,96.0856297 91.5068547,96.0417017 L93.1186497,94.3423151 C93.1640169,94.2946218 93.2056034,94.2431633 93.2434094,94.1891946 L94.4834456,92.3818705 C94.5250321,92.3203713 94.5615779,92.2563619 94.5918227,92.1898424 L95.4462379,90.3059581 C95.4802632,90.2268876 95.5092478,90.1440519 95.5268906,90.0599612 L95.946537,88.1597608 C95.952838,88.134659 95.9578788,88.1108124 95.9603992,88.0857107 L98.8676791,69.761453 L98.9319492,69.5066705 C98.955893,69.4125391 98.9672348,69.3158974 98.968495,69.2180007 L99,66.5308613 L99,65.5117313 C99,65.4401914 98.993699,65.3711617 98.9823572,65.3008769 L98.4555939,62.2171302 Z M69.3790145,40.8706251 L68.1213356,40.563129 C68.117555,40.5618739 68.1150346,40.5656392 68.111254,40.5643841 C68.1087336,40.5643841 68.1087336,40.5606188 68.1062132,40.5606188 L62.8020341,39.5414889 C62.7995137,39.5414889 62.7969933,39.542744 62.7957331,39.542744 C62.7932127,39.5414889 62.7919525,39.5389787 62.7894321,39.5389787 L59.2520526,38.9867408 L63.3880268,36.7263307 L69.3790145,40.8706251 Z M53.5874566,41.3864655 L34.0833514,52.0634833 L33.8376125,51.8865162 C33.8212299,51.8752204 33.8010667,51.8814958 33.7834239,51.8739653 C33.7456179,51.855139 33.7128528,51.8488636 33.6712662,51.8476085 C33.6296796,51.8463534 33.5956542,51.8476085 33.556588,51.8614145 C33.5389453,51.8676899 33.5187821,51.8576492 33.5023995,51.8676899 L30.0746573,53.7528293 C30.0507135,53.7666352 30.0456727,53.7942471 30.0267697,53.8130734 C30.0078667,53.8306446 29.9801423,53.8318997 29.9650199,53.8532362 L29.8402602,54.0377338 C29.8276582,54.0565601 29.8364796,54.0778966 29.8276582,54.097978 C29.8188368,54.1180593 29.7986736,54.1255899 29.7936328,54.1469263 L29.7482656,54.3628011 C29.7470054,54.3703317 29.7533064,54.3766071 29.7520462,54.3841376 C29.750786,54.3929232 29.7419646,54.3979435 29.7419646,54.4054741 L29.738184,54.4531673 L20.2451024,59.6442036 L20.2451024,43.0933827 L63.0944004,19.6245269 L63.0944004,36.1740928 L58.2350717,38.829855 L57.5936303,38.7369787 C57.5608651,38.7319583 57.5331407,38.7545499 57.5016357,38.7608253 C57.4650899,38.7658457 57.427284,38.7545499 57.395779,38.7733762 L53.9995417,40.6572605 C53.981899,40.6673012 53.9793786,40.6886376 53.9655164,40.7024436 C53.9478736,40.7149944 53.9264502,40.7124843 53.9138482,40.7288004 L53.7412009,40.9296142 C53.7260785,40.9484405 53.7323795,40.9722871 53.7210377,40.9923685 C53.7096959,41.01496 53.6857521,41.0224905 53.6794511,41.0475923 L53.5861964,41.3714045 C53.583676,41.3751697 53.5887168,41.3801901 53.5874566,41.3864655 Z M53.5572118,42.1181807 L53.4979824,43.9631574 L38.4600237,52.2153487 L36.4500057,53.1729795 L35.7480747,53.1729795 L34.6643033,52.4613456 L53.5572118,42.1181807 Z M29.6827353,55.3304725 C29.6827353,55.3342378 29.6789547,55.336748 29.6789547,55.3405132 L29.6789547,56.9620845 C29.6789547,56.9758905 29.6915567,56.9846761 29.6940771,56.9972269 C29.6953373,57.0097778 29.6852557,57.0210736 29.6877761,57.0336244 L29.750786,57.2959374 C29.7520462,57.303468 29.7596074,57.3072332 29.7621278,57.3135087 C29.7646482,57.3197841 29.7596074,57.3260595 29.7621278,57.3323349 L31.0172864,60.7599752 C31.0185466,60.7662506 31.0248476,60.7687608 31.027368,60.7737811 C31.0286282,60.7788015 31.0261078,60.7825667 31.027368,60.7875871 L32.0040225,62.8421631 C32.0065429,62.8471834 32.0128438,62.8496936 32.0153642,62.854714 C32.0178846,62.8584792 32.0153642,62.8634996 32.0166244,62.8672648 L33.1192989,64.734833 C33.1218193,64.7411084 33.1293805,64.7423635 33.1319009,64.748639 C33.1344213,64.7511491 33.1319009,64.7561695 33.1344213,64.7599347 L34.4979569,66.6450741 L34.8987003,67.212373 C34.9024809,67.2186485 34.9125625,67.2161383 34.9176033,67.2224137 C34.9226441,67.2286892 34.9201237,67.2399849 34.9264247,67.2462604 L35.9761708,68.3695625 L36.704566,69.1866236 C36.704566,69.1866236 36.7058262,69.1866236 36.7058262,69.1878786 C36.7058262,69.1878786 36.7058262,69.1891337 36.7058262,69.1891337 L36.8608307,69.3598254 C36.8608307,69.3598254 36.8608307,69.3598254 36.8620909,69.3610805 C36.8620909,69.3610805 36.8620909,69.3623356 36.8633511,69.3635907 L37.064983,69.5794655 C37.0687636,69.5844859 37.0763248,69.5819757 37.0813656,69.586996 C37.0851462,69.5907613 37.083886,69.5970367 37.0876666,69.600802 L39.2589901,71.5010024 C39.2640309,71.5060227 39.2728523,71.5047677 39.2791532,71.5085329 C39.284194,71.5135533 39.284194,71.5223389 39.290495,71.5261041 L42.128464,73.4413656 C42.1335048,73.4451308 42.141066,73.4438757 42.1461067,73.4463859 C42.1498873,73.4488961 42.1498873,73.4551715 42.1549281,73.4576817 L44.8328517,74.8985206 L44.0263242,74.6763703 L38.2571316,71.8787833 L33.9459896,68.2917471 C33.9396886,68.2867268 33.929607,68.289237 33.9233061,68.2842166 C33.9157449,68.2791963 33.9157449,68.2679005 33.9081837,68.2628802 L20.558892,60.188911 L29.6865159,55.1974334 L29.6789547,55.3216869 C29.6776945,55.322942 29.6827353,55.3254522 29.6827353,55.3304725 Z M65.715615,17.4720542 L63.2582263,18.8175065 L20.1682302,42.4194014 L20.1682302,38.6139802 L65.7168752,13.6779288 L65.7168752,17.4720542 L65.715615,17.4720542 Z M46.9424254,1.61906112 L57.9011189,7.92084864 L65.4345906,13.1169053 L19.8607416,38.0680178 L12.4646317,33.6049314 C12.4646317,33.6049314 12.4633715,33.6049314 12.4621113,33.6049314 C12.4608511,33.6036764 12.4608511,33.6024213 12.4595909,33.6011662 L1.89155921,27.5252942 L46.9424254,1.61906112 Z M1.57524918,31.8528312 L1.57524918,28.0687465 L12.1432808,34.1446185 C12.1432808,34.1446185 12.1432808,34.1446185 12.144541,34.1446185 L19.5368704,38.6051946 L19.5368704,42.3804937 L13.8269072,38.9327721 L13.8269072,38.9327721 L12.4633715,38.1144559 C12.4633715,38.1144559 12.4621113,38.1144559 12.4608511,38.1144559 C12.4595909,38.1132009 12.4595909,38.1119458 12.4583307,38.1106907 L4.13093344,33.3237921 L1.57524918,31.8528312 Z M63.7610458,117.786069 L22.4466707,92.3517485 L22.4466707,84.8839859 L33.5641492,91.5811256 L37.8853728,95.1769474 C37.8967146,95.1869881 37.911837,95.1832228 37.9231788,95.1907533 C37.9345206,95.1982838 37.9357808,95.2133449 37.9483827,95.2183652 L43.7793251,98.0749413 C43.7931873,98.0812167 43.8070495,98.0799616 43.8209117,98.084982 C43.8272127,98.0874921 43.8297331,98.0950226 43.8360341,98.0962777 L50.752008,99.965101 C50.7608294,99.9676112 50.7696508,99.9663561 50.777212,99.9688663 C50.7797324,99.9688663 50.7822528,99.9726315 50.7847732,99.9726315 L63.762306,102.091217 L63.762306,117.786069 L63.7610458,117.786069 Z M85.1441082,110.28944 L84.6740539,111.885909 L83.694879,113.407074 L82.2355682,114.830341 L80.362912,116.065346 L78.0932929,117.095772 L75.5237465,117.87267 L72.7500477,118.360899 L69.875533,118.575518 L66.9581716,118.466326 L64.3936659,118.078504 L64.3936659,102.194134 L68.0116982,102.79532 C68.029341,102.799086 68.0457236,102.800341 68.0633664,102.800341 C68.0684072,102.800341 68.073448,102.800341 68.0784888,102.800341 L71.443221,102.645965 C71.4444812,102.645965 71.4444812,102.64471 71.4457414,102.64471 C71.4520424,102.64471 71.4596036,102.643455 71.4659046,102.643455 L74.7537647,102.256888 C74.7550249,102.256888 74.7550249,102.255633 74.7562851,102.255633 C74.7638463,102.254378 74.7714075,102.254378 74.7789687,102.253123 L77.9723138,101.62056 C77.973574,101.62056 77.9748342,101.618049 77.9760944,101.618049 C77.9823954,101.616794 77.9886964,101.616794 77.9949974,101.615539 L81.0194758,100.780907 C81.0219962,100.779652 81.0232564,100.775887 81.027037,100.774632 C81.033338,100.772121 81.039639,100.773376 81.0472002,100.770866 L83.8675263,99.7052982 C83.8700467,99.7040431 83.8713069,99.7002778 83.8738273,99.7002778 C83.8801283,99.6977677 83.8876895,99.6977677 83.8939905,99.6952575 L85.1478888,99.0940712 L85.1478888,110.28944 L85.1441082,110.28944 Z M94.4078336,87.8384587 L93.9982688,89.6947311 L93.1690577,91.5246467 L91.9605265,93.2867876 L90.3777161,94.953542 L88.4407897,96.4872573 L86.1913339,97.9055046 L85.3243168,98.3134076 C85.3243168,98.3134076 85.3243168,98.3134076 85.3230566,98.3134076 L83.619267,99.1304687 L80.8430479,100.178466 L77.8286511,101.010588 L74.6617701,101.636876 L71.4091956,102.019677 L68.0747082,102.172798 L64.129024,101.516387 C64.129024,101.516387 64.129024,101.515132 64.1265036,101.515132 L50.8956708,99.353874 L44.031365,97.4988567 L38.2558714,94.6686375 L33.9459896,91.0828564 C33.9396886,91.0765809 33.929607,91.0803462 33.9220459,91.0753259 C33.9144847,91.0703055 33.9144847,91.0590097 33.9069235,91.0539894 L22.2941865,84.0593943 C22.2941865,84.0581392 22.2941865,84.0581392 22.2941865,84.0581392 L13.8269072,78.9311124 C13.825647,78.9298573 13.8243868,78.9311124 13.8231266,78.9298573 C13.8218664,78.9298573 13.8218664,78.9286022 13.8206062,78.9273471 L4.28719816,73.4426207 L4.28719816,34.1395981 L12.1420206,38.6553981 C12.1420206,38.6553981 12.1432808,38.6553981 12.144541,38.6553981 L13.4992553,39.4686939 C13.4992553,39.469949 13.4992553,39.469949 13.4992553,39.469949 L19.6124823,43.1611573 L19.6124823,60.1725949 C19.6124823,60.1876559 19.6250843,60.1951864 19.6276047,60.2077373 C19.6313853,60.2340941 19.6364261,60.2554306 19.6477679,60.2805323 C19.6528087,60.2955933 19.6452475,60.3093993 19.6515485,60.3232052 C19.6616301,60.3420315 19.6805331,60.349562 19.6931351,60.3658781 C19.7057371,60.3809392 19.7158187,60.392235 19.7322013,60.4047858 C19.7410227,60.4123163 19.7473237,60.4236121 19.7561451,60.4298875 C19.7599257,60.4323977 19.7599257,60.4386731 19.7637063,60.4411833 L33.5641492,68.7862511 L37.8828524,72.3808178 C37.8941942,72.3908585 37.9093166,72.3883483 37.9231788,72.3958788 C37.9332604,72.4034093 37.9357808,72.4172153 37.9471225,72.4222356 L43.7780649,75.2486896 C43.7906669,75.254965 43.8045291,75.25371 43.8158709,75.2574752 C43.8221719,75.2599854 43.8246923,75.2675159 43.8309933,75.2700261 L48.4483637,76.5477038 L50.00597,77.2317257 C50.0135312,77.2342359 50.0198322,77.2342359 50.0261332,77.235491 C50.031174,77.2367461 50.031174,77.2417664 50.0349546,77.2430215 L50.7331051,77.4752124 C50.7356255,77.4764675 50.7381459,77.4752124 50.7406663,77.4764675 C50.7419265,77.4764675 50.7431866,77.4789777 50.7431866,77.4789777 L51.0065683,77.556793 C51.0090887,77.556793 51.0090887,77.556793 51.0116091,77.556793 L55.0870938,78.9424081 C55.094655,78.9449183 55.100956,78.9436632 55.107257,78.9461734 C55.1097774,78.9461734 55.1122978,78.9499386 55.1148182,78.9511937 L60.759251,80.3255131 C60.7668122,80.3280232 60.7743734,80.3267681 60.7831948,80.3280232 C60.784455,80.3280232 60.784455,80.3305334 60.7857152,80.3305334 L66.3217709,81.1952878 C66.3293321,81.1965428 66.3368933,81.1965428 66.3431943,81.1965428 C66.3444545,81.1965428 66.3444545,81.1977979 66.3444545,81.1977979 L68.3721152,81.3684896 C68.3733754,81.3684896 68.3733754,81.3684896 68.3733754,81.3684896 L71.4293588,81.6458637 C71.43692,81.6471188 71.443221,81.6471188 71.4507822,81.6471188 C71.4507822,81.6471188 71.4507822,81.6471188 71.4520424,81.6471188 L75.7619242,81.7399951 C75.7644446,81.7399951 75.7657048,81.7399951 75.7682252,81.7399951 C75.7745262,81.7399951 75.7820873,81.7399951 75.7871281,81.7399951 L77.8198297,81.6157416 L79.4618694,81.5241203 C79.4643898,81.5241203 79.4643898,81.5216101 79.4669102,81.5216101 C79.4769918,81.5216101 79.4883336,81.5216101 79.4984152,81.5191 L82.6438728,80.9781578 C82.6463932,80.9781578 82.6476534,80.9756477 82.6501738,80.9743926 C82.6589952,80.9731375 82.6690767,80.9731375 82.6778981,80.9706273 L85.4856223,80.1661171 C85.4894029,80.164862 85.4894029,80.1610968 85.4931835,80.1598417 C85.4994845,80.1573315 85.5070457,80.1585866 85.5146069,80.1560764 L88.0891941,79.1520075 C88.0917145,79.1507524 88.0917145,79.1469872 88.0954951,79.144477 C88.1017961,79.1419668 88.1080971,79.1432219 88.1143981,79.1407117 L90.4860933,77.9672062 C90.4898739,77.964696 90.4898739,77.9609308 90.4936545,77.9584206 C90.4999554,77.9559104 90.5049962,77.9571655 90.5112972,77.9534002 L92.6826207,76.624264 C92.6864013,76.6217539 92.6864013,76.6154784 92.6914421,76.6129682 C92.6964829,76.609203 92.7040441,76.6104581 92.7090849,76.6066928 L94.5855217,75.1859353 C94.5930829,75.1796599 94.5918227,75.1696192 94.5993839,75.1633438 C94.6056849,75.1570683 94.6145063,75.1595785 94.6220675,75.1533031 L96.1557301,73.57817 C96.1620311,73.5718945 96.1595107,73.5631089 96.1658117,73.5568335 C96.1758933,73.5442826 96.1910157,73.5380072 96.1998371,73.5242013 L96.8488397,72.4674187 L94.4078336,87.8384587 Z M97.426011,66.5170553 L97.394506,69.1665422 L97.3277155,69.4326204 L96.8362377,71.2073122 L96.7467636,71.4256972 L95.6730737,73.1727771 L94.1835181,74.6989619 L92.3322853,76.1008931 L90.1886862,77.4124581 L87.842195,78.5734128 L85.2991128,79.5649309 L82.5153324,80.3631656 L79.4139818,80.8953222 L77.7807635,80.9869435 L77.7795033,80.9869435 C77.7795033,80.9869435 77.7795033,80.9869435 77.7782431,80.9869435 L75.754363,81.111197 L71.474726,81.0183206 L68.4300844,80.7422017 C68.4288242,80.7422017 68.4288242,80.7422017 68.4288242,80.7422017 L68.4288242,80.7422017 L66.4112451,80.572765 L60.9016535,79.7105208 L55.2698227,78.3399668 L51.1993788,76.9568619 C51.1968584,76.9556068 51.194338,76.9581169 51.1930778,76.9568619 C51.1892972,76.9568619 51.1892972,76.9530966 51.1867768,76.9518415 L50.9233952,76.8740262 L50.922135,76.8740262 L50.2466681,76.6493657 L48.6802403,75.9615785 C48.6802403,75.9615785 48.6802403,75.9603235 48.6789801,75.9603235 L45.8485724,74.7278289 L42.4687178,72.907954 L39.6584732,71.0102637 L37.5224354,69.1414404 L37.3258443,68.930586 C37.3258443,68.930586 37.3245841,68.930586 37.3245841,68.9293309 L37.1758805,68.7661697 L36.4474853,67.9491086 C36.4462251,67.9478535 36.4449649,67.9478535 36.4437047,67.9478535 C36.4437047,67.9465984 36.4437047,67.9453434 36.4424445,67.9440883 L35.4027801,66.8320819 L35.0108581,66.278589 C35.0108581,66.2773339 35.0095979,66.278589 35.0095979,66.2773339 C35.0095979,66.2760788 35.0095979,66.2760788 35.0095979,66.2748237 L33.657404,64.4060004 L32.569852,62.5622789 L31.6020189,60.5277843 L30.3582021,57.1315212 L30.3077941,56.9244319 L30.3077941,55.351809 L30.3544215,54.6677871 L30.3695439,54.4707385 L30.3972683,54.3364443 L30.4451559,54.2649044 L33.6309398,52.5128042 L33.8565155,52.6747103 C33.8602961,52.6772204 33.8653369,52.6759654 33.8691175,52.6784755 C33.8754185,52.6834959 33.8741583,52.6935366 33.8817195,52.6985569 L35.4796522,53.749064 C35.5325806,53.7829513 35.5930702,53.8005225 35.6535597,53.8005225 L36.5218371,53.8005225 C36.5672043,53.8005225 36.6138316,53.7904819 36.6579386,53.7704005 L38.7347471,52.7813926 C38.7372675,52.7801375 38.7372675,52.7763723 38.7397879,52.7751172 C38.7423083,52.7738621 38.7473491,52.7751172 38.7498695,52.772607 L54.0827149,44.3572544 L54.0839751,44.3572544 L54.6573658,44.0485032 C54.6611464,44.0472481 54.6611464,44.0422278 54.6636668,44.0397176 C54.6687076,44.0372074 54.6737484,44.0384625 54.6787892,44.0359524 L56.1670846,43.0783216 C56.3132677,42.9841902 56.3548543,42.7909069 56.2603394,42.6440618 C56.1658244,42.4972168 55.9717537,42.4583091 55.8243104,42.5511855 L54.3460966,43.5025408 L54.1369035,43.6142434 L54.2024338,41.5897895 C54.2024338,41.5872793 54.2011736,41.5860242 54.2011736,41.5847691 C54.2011736,41.582259 54.2024338,41.582259 54.2024338,41.5797488 L54.2024338,41.5019334 L54.2641836,41.2848035 L54.354918,41.1781212 L57.6074925,39.3733073 L58.2401125,39.4636735 C58.2413727,39.4649286 58.2413727,39.4649286 58.2426329,39.4649286 L62.6923968,40.1602464 C62.6923968,40.1602464 62.693657,40.1602464 62.6949172,40.1602464 L67.9688514,41.1731009 C67.9701116,41.1731009 67.9701116,41.174356 67.9701116,41.174356 L70.2498122,41.7303591 L70.2498122,41.7303591 L70.9353607,41.9274076 C70.9366209,41.9274076 70.9378811,41.9274076 70.9391413,41.9274076 L74.2736287,42.864957 C74.2748889,42.864957 74.2748889,42.8662121 74.2748889,42.8662121 L78.2798024,44.1602059 L81.7579526,45.5922592 C81.7592128,45.5922592 81.760473,45.5922592 81.7617332,45.5935143 L82.0150333,45.7039618 L85.1718326,47.4058587 L88.1181787,49.4240372 L90.8767551,51.927934 L93.4803269,55.0543536 L95.5634364,58.4732082 L96.7833094,61.8280535 L96.9030283,62.4832085 L97.426011,65.5431085 L97.426011,66.5170553 L97.426011,66.5170553 Z" id="toilet-base"></path>
                    </g>
                </g>
            </g>
        </g>
    </g>
</svg>