<?xml version="1.0" encoding="utf-8"?><!DOCTYPE svg PUBLIC "-//W3C//DTD SVG 1.1//EN" "http://www.w3.org/Graphics/SVG/1.1/DTD/svg11.dtd"><svg xmlns="http://www.w3.org/2000/svg" width="20.252" height="32" viewBox="0 0 20.252 32"><path d="M11.539.024C.915.945.064 12.349.064 12.349c-.637 6.161 3.612 8.146 4.816 9.42 1.204 1.273 2.267 3.823 2.267 3.823 4.038 1.771 6.657-1.133 6.657-1.133.426-2.338 3.967-8.783 3.967-8.783C24.783 2.149 15.065-.281 11.539.024zm-3.143 6.54c-1.404 1.333-3.081 1.848-3.744 1.15-.663-.699-.062-2.347 1.342-3.68 1.404-1.333 3.08-1.847 3.743-1.148.664.699.063 2.345-1.341 3.678zM7.37 27.051c.377 2.729 2.953 2.225 2.953 2.225 3.459-.354 3.128-3.258 3.128-3.258-2.408 2.159-6.081 1.033-6.081 1.033zM7.975 30.003c.271 2.282 2.738 1.983 2.738 1.983 3.028-.31 2.524-3.065 2.524-3.065-2.336 2.515-5.262 1.082-5.262 1.082z"/></svg>