<?xml version="1.0" encoding="utf-8"?><!DOCTYPE svg PUBLIC "-//W3C//DTD SVG 1.1//EN" "http://www.w3.org/Graphics/SVG/1.1/DTD/svg11.dtd"><svg xmlns="http://www.w3.org/2000/svg" width="32" height="24.855" viewBox="0 0 32 24.855"><ellipse cx="13.446" cy="12.653" rx=".769" ry="1.306"/><ellipse cx="17.749" cy="12.653" rx=".769" ry="1.306"/><path d="M17.199 17.888c.041-.012.08-.021.121-.034 4.117-1.248 6.802-4.409 5.996-7.06-.803-2.65-4.791-3.786-8.907-2.538-4.115 1.249-6.8 4.41-5.996 7.061.574 1.894 2.774 3.014 5.483 3.043-1.163.505-2.106 1.354-2.835 2.264-.979.062-1.861.091-2.102.021-.61-.179-2.957-2.157-3.32-2.282-.363-.124-.491.384-.44.722.051.338 2.304 3.392 2.701 3.54.168.062.969.101 1.84.125-.383.812-.557 1.462-.52 1.662.12.652 9.78.538 10.379 0 .547-.494 2.587-6.1-2.4-6.524zm-4.679-1.961c-1.276-.397-1.868-2.143-1.321-3.898.547-1.755 2.024-2.856 3.301-2.46.523.163.929.556 1.19 1.079.514-.748 1.296-1.211 2.153-1.167 1.438.073 2.53 1.542 2.441 3.28s-1.326 3.088-2.765 3.014c-.884-.045-1.637-.618-2.064-1.457-.69 1.241-1.881 1.937-2.935 1.609z"/><path d="M31.984 12.544l.016-.52c-1.959-.151-4.076-.071-5.521.023.504-1.148.68-2.364.445-3.57a5.797 5.797 0 00-1.152-2.491c.265-2.014.59-5.479-.211-5.935-.724-.414-2.793 1.726-4.068 3.168-1.95-.604-4.251-.74-6.626-.281a14.629 14.629 0 00-3.449 1.117C9.98 2.706 8.146 1.18 7.451 1.472c-.805.34-.28 3.55.1 5.417-1.466 1.671-2.181 3.66-1.821 5.625-1.432.19-3.699.55-5.73 1.137l.12.507s3.249-.874 5.698-1.253c.092.356.215.7.372 1.028-1.295.332-3.876 1.05-6.108 2.025l.186.485s3.694-1.533 6.11-2.155a6.605 6.605 0 001.382 1.688 3.557 3.557 0 01-.155-.416c-.92-3.03 2.034-6.608 6.596-7.994 4.562-1.384 9.008-.049 9.927 2.981.743 2.448-1.042 5.253-4.16 6.971 2.269-.806 4.146-2.107 5.392-3.652 2.004-.012 5.55.682 5.55.682l.032-.514c-1.993-.438-4.207-.534-5.284-.556.237-.33.446-.669.625-1.016 2.458-.109 5.701.082 5.701.082z"/></svg>