<?xml version="1.0" encoding="utf-8"?><!DOCTYPE svg PUBLIC "-//W3C//DTD SVG 1.1//EN" "http://www.w3.org/Graphics/SVG/1.1/DTD/svg11.dtd"><svg xmlns="http://www.w3.org/2000/svg" width="32" height="28.641" viewBox="0 0 32 28.641"><path d="M31.934 14.267h.002s-.004-.013-.008-.019a.673.673 0 00-.089-.21C31.085 12.275 26.018.517 24.86.054 23.605-.447 5.823 2.684 4.822 3.561 3.915 4.354.693 17.15.096 19.548c-.011.015-.027.029-.033.042a.937.937 0 00-.06.331.2.2 0 00-.003.014l.003-.002c-.064 1.812 2.253 8.084 3.065 8.549.876.501 25.046-.251 25.922-1.253.812-.928 3.464-11.004 2.944-12.962zm-9.479-.779c-.296 1.979-.801 4.75-1.354 5.226-.875.752-11.146 2.755-12.021 2.188-.542-.351-1.755-4.069-1.755-4.069l-4.512.853S4.861 5.854 5.526 5.272c.937-.82 17.583-3.752 18.756-3.283.792.317 4.872 10.443 4.872 10.443s-3.679.679-6.699 1.056z"/><path d="M4.383 15.395l19.79-2.946v-2.066l-19.79 3.561zM4.759 12.057l21.1-3.365V6.627l-21.1 3.979zM22.982 3.245L5.886 6.807v1.449l17.096-2.944z"/></svg>