<?xml version="1.0" encoding="utf-8"?><!DOCTYPE svg PUBLIC "-//W3C//DTD SVG 1.1//EN" "http://www.w3.org/Graphics/SVG/1.1/DTD/svg11.dtd"><svg xmlns="http://www.w3.org/2000/svg" width="32" height="29.654" viewBox="0 0 32 29.654"><path d="M8.972 11.92c.556-.2 6.364 2.275 7.056 1.319.313-.437-3.79-4.869-3.79-4.869s3.153-4.545 2.758-4.841c-.646-.482-5.361 1.579-5.361 1.579s-3.382-5.34-4.01-5.1c-.63.24-.718 7.094-.718 7.094S.062 8.653.001 9.17c-.062.518 4.514 1.827 4.514 1.827s-1.088 6.109-.641 6.344c1.193.623 4.543-5.222 5.098-5.421zM27.993 12.879S29.751 8.57 29.372 8.4c-.619-.277-4.112 2.276-4.112 2.276s-3.753-3.767-4.226-3.454c-.474.312.709 5.954.709 5.954s-3.695 2.161-3.65 2.596c.044.438 4.041.677 4.041.677s.224 5.215.634 5.324c1.094.293 2.773-5.118 3.193-5.384.419-.266 5.643.705 6.033-.206.179-.415-4.001-3.304-4.001-3.304zM13.548 22.863s-1.104-4.104-1.557-4.074c-.451.027-1.876 4.411-1.876 4.411s-3.423.029-3.564.349c-.143.32 2.534 2.075 2.534 2.075s-1.919 3.706-1.678 3.944c.642.64 3.959-2.445 4.355-2.464.396-.017 3.633 2.733 4.268 2.257.288-.218-1.462-3.884-1.462-3.884s2.933-2.288 2.737-2.557c-.319-.439-3.757-.057-3.757-.057z"/></svg>